<mxfile host="app.diagrams.net" modified="2021-10-12T00:45:58.089Z" agent="5.0 (Windows NT 10.0; Win64; x64) AppleWebKit/537.36 (KHTML, like Gecko) Chrome/94.0.4606.71 Safari/537.36" etag="QLYSFxl0YTM48FtWNgds" version="15.5.0" type="github" pages="2">
  <diagram id="hR-aNl9QiNeqInvNcrHR" name="Layout">
    <mxGraphModel dx="868" dy="1562" grid="1" gridSize="11" guides="1" tooltips="1" connect="1" arrows="1" fold="1" page="1" pageScale="1" pageWidth="827" pageHeight="1169" background="#CCE5FF" math="0" shadow="0">
      <root>
        <mxCell id="0" />
        <mxCell id="1" parent="0" />
        <mxCell id="M_uuZBAT4ugJrkI5eq-T-1" value="" style="rounded=0;whiteSpace=wrap;html=1;fillColor=#99CCFF;" parent="1" vertex="1">
          <mxGeometry x="55" y="23.130000000000003" width="737" height="88" as="geometry" />
        </mxCell>
        <mxCell id="M_uuZBAT4ugJrkI5eq-T-2" value="&lt;b&gt;Шапка&lt;/b&gt;" style="text;html=1;strokeColor=none;fillColor=none;align=center;verticalAlign=middle;whiteSpace=wrap;rounded=0;" parent="1" vertex="1">
          <mxGeometry x="394" y="35" width="40" height="20" as="geometry" />
        </mxCell>
        <mxCell id="M_uuZBAT4ugJrkI5eq-T-3" value="Логотип" style="rounded=0;whiteSpace=wrap;html=1;fillColor=#CC99FF;strokeColor=#A50040;fontColor=#000000;" parent="1" vertex="1">
          <mxGeometry x="66" y="48.56" width="99" height="44" as="geometry" />
        </mxCell>
        <mxCell id="M_uuZBAT4ugJrkI5eq-T-5" value="Контактная информация" style="rounded=0;whiteSpace=wrap;html=1;fillColor=#FFCCFF;" parent="1" vertex="1">
          <mxGeometry x="649" y="781" width="154" height="22" as="geometry" />
        </mxCell>
        <mxCell id="M_uuZBAT4ugJrkI5eq-T-6" value="" style="rounded=0;whiteSpace=wrap;html=1;fillColor=#9999FF;" parent="1" vertex="1">
          <mxGeometry x="606" y="54.75" width="164" height="24.5" as="geometry" />
        </mxCell>
        <mxCell id="M_uuZBAT4ugJrkI5eq-T-7" value="Поиск" style="text;html=1;strokeColor=none;fillColor=none;align=center;verticalAlign=middle;whiteSpace=wrap;rounded=0;" parent="1" vertex="1">
          <mxGeometry x="668" y="57" width="40" height="20" as="geometry" />
        </mxCell>
        <mxCell id="M_uuZBAT4ugJrkI5eq-T-8" value="Контактная информация" style="rounded=0;whiteSpace=wrap;html=1;fontColor=#000000;fillColor=#FFCCFF;" parent="1" vertex="1">
          <mxGeometry x="55" y="-11" width="175" height="22" as="geometry" />
        </mxCell>
        <mxCell id="M_uuZBAT4ugJrkI5eq-T-9" value="" style="rounded=0;whiteSpace=wrap;html=1;fontColor=#000000;fillColor=#CC99FF;fontStyle=1" parent="1" vertex="1">
          <mxGeometry x="55" y="121" width="737" height="110" as="geometry" />
        </mxCell>
        <mxCell id="M_uuZBAT4ugJrkI5eq-T-10" value="Изображение" style="text;html=1;strokeColor=none;fillColor=none;align=center;verticalAlign=middle;whiteSpace=wrap;rounded=0;fontColor=#000000;fontStyle=1" parent="1" vertex="1">
          <mxGeometry x="394" y="154" width="46" height="22" as="geometry" />
        </mxCell>
        <mxCell id="M_uuZBAT4ugJrkI5eq-T-11" value="&lt;b&gt;Верхнее меню&lt;/b&gt;" style="rounded=0;whiteSpace=wrap;html=1;fontColor=#000000;fillColor=#FF6666;" parent="1" vertex="1">
          <mxGeometry x="55" y="242" width="737" height="22" as="geometry" />
        </mxCell>
        <mxCell id="M_uuZBAT4ugJrkI5eq-T-15" value="Текст" style="text;html=1;strokeColor=none;fillColor=none;align=center;verticalAlign=middle;whiteSpace=wrap;rounded=0;fontColor=#000000;" parent="1" vertex="1">
          <mxGeometry x="198" y="60.56999999999999" width="40" height="20" as="geometry" />
        </mxCell>
        <mxCell id="M_uuZBAT4ugJrkI5eq-T-16" value="Текст" style="rounded=0;whiteSpace=wrap;html=1;fillColor=#fff2cc;strokeColor=#d6b656;gradientColor=#FFCC99;" parent="1" vertex="1">
          <mxGeometry x="176" y="44" width="77" height="53.13" as="geometry" />
        </mxCell>
        <mxCell id="M_uuZBAT4ugJrkI5eq-T-19" value="" style="rounded=0;whiteSpace=wrap;html=1;fontColor=#000000;fillColor=#CCFFE6;" parent="1" vertex="1">
          <mxGeometry x="55" y="275" width="176" height="374" as="geometry" />
        </mxCell>
        <mxCell id="M_uuZBAT4ugJrkI5eq-T-20" value="Левый блок" style="text;html=1;strokeColor=none;fillColor=none;align=center;verticalAlign=middle;whiteSpace=wrap;rounded=0;fontColor=#000000;" parent="1" vertex="1">
          <mxGeometry x="105.25" y="319" width="75.5" height="11" as="geometry" />
        </mxCell>
        <mxCell id="M_uuZBAT4ugJrkI5eq-T-24" value="Меню каталог" style="rounded=0;whiteSpace=wrap;html=1;fontColor=#000000;fillColor=#FF6666;gradientColor=none;" parent="1" vertex="1">
          <mxGeometry x="66" y="363" width="154" height="132" as="geometry" />
        </mxCell>
        <mxCell id="M_uuZBAT4ugJrkI5eq-T-25" value="Информер" style="rounded=0;whiteSpace=wrap;html=1;fontColor=#000000;fillColor=#FFB366;gradientColor=none;" parent="1" vertex="1">
          <mxGeometry x="83" y="555" width="120" height="60" as="geometry" />
        </mxCell>
        <mxCell id="M_uuZBAT4ugJrkI5eq-T-31" value="" style="rounded=0;whiteSpace=wrap;html=1;fontColor=#000000;fillColor=#CCFFE6;gradientColor=none;" parent="1" vertex="1">
          <mxGeometry x="616" y="275" width="176" height="370" as="geometry" />
        </mxCell>
        <mxCell id="M_uuZBAT4ugJrkI5eq-T-32" value="Правый блок" style="text;html=1;strokeColor=none;fillColor=none;align=center;verticalAlign=middle;whiteSpace=wrap;rounded=0;fontColor=#000000;" parent="1" vertex="1">
          <mxGeometry x="681" y="310" width="40" height="20" as="geometry" />
        </mxCell>
        <mxCell id="M_uuZBAT4ugJrkI5eq-T-33" value="" style="rounded=0;whiteSpace=wrap;html=1;fillColor=#cdeb8b;strokeColor=#36393d;" parent="1" vertex="1">
          <mxGeometry x="647.5" y="374" width="107" height="55" as="geometry" />
        </mxCell>
        <mxCell id="M_uuZBAT4ugJrkI5eq-T-34" value="Опросник" style="text;html=1;strokeColor=none;fillColor=none;align=center;verticalAlign=middle;whiteSpace=wrap;rounded=0;fontColor=#000000;" parent="1" vertex="1">
          <mxGeometry x="681" y="391.5" width="40" height="20" as="geometry" />
        </mxCell>
        <mxCell id="M_uuZBAT4ugJrkI5eq-T-35" value="Информер" style="rounded=0;whiteSpace=wrap;html=1;fillColor=#FFB366;strokeColor=#36393d;" parent="1" vertex="1">
          <mxGeometry x="642" y="451" width="118" height="176" as="geometry" />
        </mxCell>
        <mxCell id="M_uuZBAT4ugJrkI5eq-T-36" value="" style="rounded=0;whiteSpace=wrap;html=1;fontColor=#000000;fillColor=#CCFFE6;gradientColor=none;" parent="1" vertex="1">
          <mxGeometry x="253" y="275" width="352" height="374" as="geometry" />
        </mxCell>
        <mxCell id="M_uuZBAT4ugJrkI5eq-T-37" value="Баннер" style="rounded=0;whiteSpace=wrap;html=1;fontColor=#000000;fillColor=#FFFF66;gradientColor=none;" parent="1" vertex="1">
          <mxGeometry x="275" y="297" width="308" height="77" as="geometry" />
        </mxCell>
        <mxCell id="M_uuZBAT4ugJrkI5eq-T-38" value="Текст" style="rounded=0;whiteSpace=wrap;html=1;fontColor=#000000;fillColor=#6666FF;gradientColor=none;" parent="1" vertex="1">
          <mxGeometry x="264" y="396" width="330" height="231" as="geometry" />
        </mxCell>
        <mxCell id="M_uuZBAT4ugJrkI5eq-T-39" value="Подвал&lt;br&gt;" style="rounded=0;whiteSpace=wrap;html=1;fontColor=#000000;fillColor=#99CCFF;gradientColor=none;" parent="1" vertex="1">
          <mxGeometry x="58.5" y="671" width="744.5" height="99" as="geometry" />
        </mxCell>
        <mxCell id="M_uuZBAT4ugJrkI5eq-T-40" value="&lt;b&gt;Нижнее меню&lt;/b&gt;" style="rounded=0;whiteSpace=wrap;html=1;fontColor=#000000;fillColor=#FF6666;gradientColor=none;" parent="1" vertex="1">
          <mxGeometry x="67.75" y="737" width="726" height="27" as="geometry" />
        </mxCell>
      </root>
    </mxGraphModel>
  </diagram>
  <diagram id="dmeibeSzH6NUfOqdLwy9" name="Contact Information">
    <mxGraphModel dx="868" dy="393" grid="1" gridSize="10" guides="1" tooltips="1" connect="1" arrows="1" fold="1" page="1" pageScale="1" pageWidth="827" pageHeight="1169" background="#FFF9F0" math="0" shadow="0">
      <root>
        <mxCell id="mzioxLsykNOlInuWf7ow-0" />
        <mxCell id="mzioxLsykNOlInuWf7ow-1" parent="mzioxLsykNOlInuWf7ow-0" />
        <mxCell id="HY1dBoEZfphwUqty8MsQ-1" value="&lt;b&gt;&lt;font style=&quot;font-size: 14px&quot; face=&quot;Times New Roman&quot;&gt;контактная информация&lt;/font&gt;&lt;/b&gt;" style="rounded=0;whiteSpace=wrap;html=1;fillColor=#CCFFFF;" vertex="1" parent="mzioxLsykNOlInuWf7ow-1">
          <mxGeometry x="210" y="180" width="170" height="30" as="geometry" />
        </mxCell>
        <mxCell id="HY1dBoEZfphwUqty8MsQ-4" value="" style="edgeStyle=orthogonalEdgeStyle;rounded=0;orthogonalLoop=1;jettySize=auto;html=1;fontFamily=Times New Roman;fontSize=14;" edge="1" parent="mzioxLsykNOlInuWf7ow-1" source="HY1dBoEZfphwUqty8MsQ-2" target="HY1dBoEZfphwUqty8MsQ-3">
          <mxGeometry relative="1" as="geometry">
            <Array as="points">
              <mxPoint x="430" y="130" />
              <mxPoint x="490" y="130" />
            </Array>
          </mxGeometry>
        </mxCell>
        <mxCell id="HY1dBoEZfphwUqty8MsQ-6" value="" style="edgeStyle=orthogonalEdgeStyle;rounded=0;orthogonalLoop=1;jettySize=auto;html=1;fontFamily=Times New Roman;fontSize=14;startArrow=none;" edge="1" parent="mzioxLsykNOlInuWf7ow-1" source="HY1dBoEZfphwUqty8MsQ-11" target="HY1dBoEZfphwUqty8MsQ-5">
          <mxGeometry relative="1" as="geometry" />
        </mxCell>
        <mxCell id="HY1dBoEZfphwUqty8MsQ-8" value="" style="edgeStyle=orthogonalEdgeStyle;rounded=0;orthogonalLoop=1;jettySize=auto;html=1;fontFamily=Times New Roman;fontSize=14;" edge="1" parent="mzioxLsykNOlInuWf7ow-1" source="HY1dBoEZfphwUqty8MsQ-2" target="HY1dBoEZfphwUqty8MsQ-7">
          <mxGeometry relative="1" as="geometry">
            <Array as="points">
              <mxPoint x="430" y="260" />
              <mxPoint x="490" y="260" />
            </Array>
          </mxGeometry>
        </mxCell>
        <mxCell id="HY1dBoEZfphwUqty8MsQ-2" value="" style="strokeWidth=2;html=1;shape=mxgraph.flowchart.annotation_2;align=left;labelPosition=right;pointerEvents=1;fontFamily=Times New Roman;fontSize=14;fillColor=#CCFFFF;" vertex="1" parent="mzioxLsykNOlInuWf7ow-1">
          <mxGeometry x="380" y="145" width="50" height="100" as="geometry" />
        </mxCell>
        <mxCell id="HY1dBoEZfphwUqty8MsQ-3" value="электронная почта" style="whiteSpace=wrap;html=1;fontFamily=Times New Roman;fontSize=14;align=left;strokeWidth=2;fillColor=#CCFFFF;" vertex="1" parent="mzioxLsykNOlInuWf7ow-1">
          <mxGeometry x="414" y="80" width="126" height="25" as="geometry" />
        </mxCell>
        <mxCell id="HY1dBoEZfphwUqty8MsQ-5" value="адрес (кратко)" style="whiteSpace=wrap;html=1;fontFamily=Times New Roman;fontSize=14;align=left;strokeWidth=2;fillColor=#CCFFFF;" vertex="1" parent="mzioxLsykNOlInuWf7ow-1">
          <mxGeometry x="475" y="165" width="120" height="60" as="geometry" />
        </mxCell>
        <mxCell id="HY1dBoEZfphwUqty8MsQ-7" value="номер телефона" style="whiteSpace=wrap;html=1;fontFamily=Times New Roman;fontSize=14;align=left;strokeWidth=2;fillColor=#CCFFFF;" vertex="1" parent="mzioxLsykNOlInuWf7ow-1">
          <mxGeometry x="430" y="280" width="130" height="20" as="geometry" />
        </mxCell>
        <mxCell id="HY1dBoEZfphwUqty8MsQ-11" value="" style="line;strokeWidth=1;rotatable=0;dashed=0;labelPosition=right;align=left;verticalAlign=middle;spacingTop=0;spacingLeft=6;points=[];portConstraint=eastwest;fontFamily=Times New Roman;fontSize=14;fillColor=#CCFFFF;" vertex="1" parent="mzioxLsykNOlInuWf7ow-1">
          <mxGeometry x="390" y="190" width="60" height="10" as="geometry" />
        </mxCell>
        <mxCell id="HY1dBoEZfphwUqty8MsQ-12" value="" style="edgeStyle=orthogonalEdgeStyle;rounded=0;orthogonalLoop=1;jettySize=auto;html=1;fontFamily=Times New Roman;fontSize=14;endArrow=none;" edge="1" parent="mzioxLsykNOlInuWf7ow-1" source="HY1dBoEZfphwUqty8MsQ-2" target="HY1dBoEZfphwUqty8MsQ-5">
          <mxGeometry relative="1" as="geometry">
            <mxPoint x="430" y="195" as="sourcePoint" />
            <mxPoint x="510" y="160" as="targetPoint" />
          </mxGeometry>
        </mxCell>
        <mxCell id="1aSCQsJIBkyrF7bkC1ac-0" value="&lt;font face=&quot;Comic Sans MS&quot;&gt;&lt;b&gt;&amp;nbsp; &amp;nbsp; &amp;nbsp; &amp;nbsp; post@dcantemir.md |&amp;nbsp; &amp;nbsp; &amp;nbsp; &amp;nbsp;+373 231 234 58&amp;nbsp; &amp;nbsp; &amp;nbsp; &amp;nbsp; &amp;nbsp; &amp;nbsp; &amp;nbsp; &amp;nbsp; &amp;nbsp; &amp;nbsp; &amp;nbsp; &amp;nbsp; &amp;nbsp; &amp;nbsp; &amp;nbsp; &amp;nbsp; &amp;nbsp; &amp;nbsp; &amp;nbsp; &amp;nbsp; &amp;nbsp; &amp;nbsp; &amp;nbsp;ул.Св.Николая, 98A&lt;/b&gt;&lt;/font&gt;" style="rounded=0;whiteSpace=wrap;html=1;fontFamily=Times New Roman;fontSize=14;fillColor=#CCFFFF;align=left;shadow=1;strokeColor=#66FFFF;" vertex="1" parent="mzioxLsykNOlInuWf7ow-1">
          <mxGeometry x="9" y="330" width="810" height="40" as="geometry" />
        </mxCell>
        <mxCell id="1aSCQsJIBkyrF7bkC1ac-3" value="" style="shape=message;html=1;whiteSpace=wrap;html=1;outlineConnect=0;fontFamily=Times New Roman;fontSize=14;fillColor=#3333FF;" vertex="1" parent="mzioxLsykNOlInuWf7ow-1">
          <mxGeometry x="20" y="340" width="30" height="20" as="geometry" />
        </mxCell>
        <mxCell id="1aSCQsJIBkyrF7bkC1ac-9" value="" style="shape=mxgraph.signs.tech.telephone_3;html=1;pointerEvents=1;fillColor=#3333FF;strokeColor=none;verticalLabelPosition=bottom;verticalAlign=top;align=center;fontFamily=Comic Sans MS;fontSize=12;" vertex="1" parent="mzioxLsykNOlInuWf7ow-1">
          <mxGeometry x="220" y="335" width="20" height="25" as="geometry" />
        </mxCell>
        <mxCell id="8wifd4MYzMfJhmpSew9y-1" value="" style="edgeStyle=orthogonalEdgeStyle;rounded=0;orthogonalLoop=1;jettySize=auto;html=1;fontFamily=Comic Sans MS;fontSize=12;" edge="1" parent="mzioxLsykNOlInuWf7ow-1" source="A1HAIuB3RyS8ZVn0IfHB-0" target="8wifd4MYzMfJhmpSew9y-0">
          <mxGeometry relative="1" as="geometry" />
        </mxCell>
        <mxCell id="8wifd4MYzMfJhmpSew9y-3" value="" style="edgeStyle=orthogonalEdgeStyle;rounded=0;orthogonalLoop=1;jettySize=auto;html=1;fontFamily=Comic Sans MS;fontSize=12;" edge="1" parent="mzioxLsykNOlInuWf7ow-1" source="A1HAIuB3RyS8ZVn0IfHB-0" target="8wifd4MYzMfJhmpSew9y-2">
          <mxGeometry relative="1" as="geometry" />
        </mxCell>
        <mxCell id="8wifd4MYzMfJhmpSew9y-5" value="" style="edgeStyle=orthogonalEdgeStyle;rounded=0;orthogonalLoop=1;jettySize=auto;html=1;fontFamily=Comic Sans MS;fontSize=12;" edge="1" parent="mzioxLsykNOlInuWf7ow-1" source="A1HAIuB3RyS8ZVn0IfHB-0" target="8wifd4MYzMfJhmpSew9y-4">
          <mxGeometry relative="1" as="geometry" />
        </mxCell>
        <mxCell id="8wifd4MYzMfJhmpSew9y-7" value="" style="edgeStyle=orthogonalEdgeStyle;rounded=0;orthogonalLoop=1;jettySize=auto;html=1;fontFamily=Comic Sans MS;fontSize=12;" edge="1" parent="mzioxLsykNOlInuWf7ow-1" source="A1HAIuB3RyS8ZVn0IfHB-0" target="8wifd4MYzMfJhmpSew9y-6">
          <mxGeometry relative="1" as="geometry">
            <Array as="points">
              <mxPoint x="405" y="630" />
              <mxPoint x="405" y="630" />
            </Array>
          </mxGeometry>
        </mxCell>
        <mxCell id="A1HAIuB3RyS8ZVn0IfHB-0" value="&lt;b&gt;Контактная информация(снизу):&lt;/b&gt;" style="rounded=1;whiteSpace=wrap;html=1;shadow=1;fontFamily=Comic Sans MS;fontSize=12;strokeColor=#66FFFF;fillColor=#CCFFFF;align=left;" vertex="1" parent="mzioxLsykNOlInuWf7ow-1">
          <mxGeometry x="305" y="550" width="200" height="50" as="geometry" />
        </mxCell>
        <mxCell id="8wifd4MYzMfJhmpSew9y-0" value="&lt;div&gt;&lt;b&gt;полноценный адрес с мини-картой&lt;/b&gt;&lt;/div&gt;" style="whiteSpace=wrap;html=1;rounded=1;shadow=1;fontFamily=Comic Sans MS;align=center;strokeColor=#66FFFF;fillColor=#CCFFFF;" vertex="1" parent="mzioxLsykNOlInuWf7ow-1">
          <mxGeometry x="590" y="545" width="120" height="60" as="geometry" />
        </mxCell>
        <mxCell id="8wifd4MYzMfJhmpSew9y-2" value="&lt;b&gt;ссылки: на сайт; на страничку в facebook и на instagram&lt;/b&gt;" style="rounded=1;whiteSpace=wrap;html=1;shadow=1;fontFamily=Comic Sans MS;align=center;strokeColor=#66FFFF;fillColor=#CCFFFF;" vertex="1" parent="mzioxLsykNOlInuWf7ow-1">
          <mxGeometry x="290" y="450" width="230" height="60" as="geometry" />
        </mxCell>
        <mxCell id="8wifd4MYzMfJhmpSew9y-4" value="&lt;b&gt;электронная почта&lt;/b&gt;" style="whiteSpace=wrap;html=1;rounded=1;shadow=1;fontFamily=Comic Sans MS;align=left;strokeColor=#66FFFF;fillColor=#CCFFFF;" vertex="1" parent="mzioxLsykNOlInuWf7ow-1">
          <mxGeometry x="110" y="545" width="120" height="60" as="geometry" />
        </mxCell>
        <mxCell id="8wifd4MYzMfJhmpSew9y-6" value="&lt;b&gt;телефонная книжка&lt;br&gt;(в ней будут рабочие номера всего персонала)&lt;br&gt;&lt;/b&gt;" style="whiteSpace=wrap;html=1;rounded=1;shadow=1;fontFamily=Comic Sans MS;align=left;strokeColor=#66FFFF;fillColor=#CCFFFF;" vertex="1" parent="mzioxLsykNOlInuWf7ow-1">
          <mxGeometry x="351.5" y="660" width="125" height="60" as="geometry" />
        </mxCell>
        <mxCell id="8wifd4MYzMfJhmpSew9y-34" value="Контактная информация" style="swimlane;childLayout=stackLayout;resizeParent=1;resizeParentMax=0;startSize=20;shadow=1;fontFamily=Comic Sans MS;fontSize=12;strokeColor=#66FFFF;fillColor=#CCFFFF;align=center;verticalAlign=top;" vertex="1" parent="mzioxLsykNOlInuWf7ow-1">
          <mxGeometry x="50" y="770" width="862" height="502.14" as="geometry" />
        </mxCell>
        <mxCell id="8wifd4MYzMfJhmpSew9y-35" value="" style="swimlane;startSize=20;shadow=1;fontFamily=Comic Sans MS;fontSize=12;strokeColor=#66FFFF;fillColor=#CCFFFF;align=center;verticalAlign=top;" vertex="1" parent="8wifd4MYzMfJhmpSew9y-34">
          <mxGeometry y="20" width="132.5" height="482.14" as="geometry" />
        </mxCell>
        <mxCell id="8wifd4MYzMfJhmpSew9y-39" value="Электронная почта:&lt;br&gt;post@dcantemir.md&lt;br&gt;&lt;br&gt;&lt;br&gt;&lt;br&gt;" style="text;html=1;align=center;verticalAlign=middle;resizable=0;points=[];autosize=1;strokeColor=none;fillColor=none;fontSize=12;fontFamily=Comic Sans MS;" vertex="1" parent="8wifd4MYzMfJhmpSew9y-35">
          <mxGeometry x="-5" y="40" width="130" height="80" as="geometry" />
        </mxCell>
        <mxCell id="8wifd4MYzMfJhmpSew9y-40" value="ссылка на сайт:&lt;br&gt;ссылка на instagram:&lt;br&gt;ссылка на facebook" style="text;html=1;align=center;verticalAlign=middle;resizable=0;points=[];autosize=1;strokeColor=none;fillColor=none;fontSize=12;fontFamily=Comic Sans MS;" vertex="1" parent="8wifd4MYzMfJhmpSew9y-35">
          <mxGeometry x="-7.5" y="95" width="140" height="50" as="geometry" />
        </mxCell>
        <mxCell id="8wifd4MYzMfJhmpSew9y-36" value="Адрес:" style="swimlane;startSize=20;shadow=1;fontFamily=Comic Sans MS;fontSize=12;strokeColor=#66FFFF;fillColor=#CCFFFF;align=center;verticalAlign=top;" vertex="1" parent="8wifd4MYzMfJhmpSew9y-34">
          <mxGeometry x="132.5" y="20" width="522.5" height="482.14" as="geometry" />
        </mxCell>
        <mxCell id="8wifd4MYzMfJhmpSew9y-41" value="Теоретический лицей имени Дмитрия Кантемира &lt;br&gt;находится по адресу:&lt;br&gt;Республика Молдова, город Бельцы, 3121&lt;br&gt;ул. Св. Николая, 98A&lt;br&gt;" style="text;html=1;align=center;verticalAlign=middle;resizable=0;points=[];autosize=1;strokeColor=none;fillColor=none;fontSize=12;fontFamily=Comic Sans MS;" vertex="1" parent="8wifd4MYzMfJhmpSew9y-36">
          <mxGeometry x="97.5" y="40" width="310" height="60" as="geometry" />
        </mxCell>
        <mxCell id="8wifd4MYzMfJhmpSew9y-42" value="" style="shape=image;verticalLabelPosition=bottom;labelBackgroundColor=#ffffff;verticalAlign=top;aspect=fixed;imageAspect=0;image=data:image/png,iVBORw0KGgoAAAANSUhEUgAAArwAAAHDCAYAAADGJsnKAAAgAElEQVR4Aey9CZMk13Xvp09EfQfbIT0vYT877CfbL2w/RzxJfnbYsp6toBRhhUhJNgmIEikuAgmABEFCAEGA2AFiG2D2tWemZ+npvfZ937u6ewbH8Ts5tzu7uqqrqmvprKpTER1VXZWVlXnvuff+8p9n+Z3Hj3fE/ha3DXZ3m9JuN2Rnpy71elmKxayk00mJx6MSjYYlHA5JLBaVZDIhmUxGCoWCVKtVaTabsrOzI7u7u7K/vy9PnjyRcT329vZ0/5VKRfL5vKRSKYnFYhKNRvSPY0ulEpLPZ6RUykulUtBjb7Wq0m7XZW+vKfv7Lf0z215c27a+t75fVBvY3W1IsZiTUqmo83O/uZk5N5vNCnPooraZnff05wvWadbsWq0kuVxG8vmcNBqNgWy2l03DIu12W2q1qmSzMEtG+YD+/R3r5Ol3ctDbHCP0gzDGyOSZzaYkmYxLIhGVeDwmiURcUqmkZDJpKRTyUi6XpV6vK6xicEyi4wJh9gNcA9oAN+ANgAPiHAfHw7EB67kcxwMM53QgNZuVAxAGhoPe/nZ8NibNBswGRrWBVqsm+XxW5+SvvvqqFx/o+3wOaDB/In6M+tv2fbPffjaAncEW2CigW6vVlBn62WovQ+Z7MEe9XlMeKRS89d9/HAa8pnAPNbkBjKgHTKa1WlGhEsDMZJKqunpA7IFwOp1W1aBYLCqkMqGiCqMIn9aoO4398ePHR0C4VOJKMSfpNHCeVAjmmFCEOcZcLqXwXq0WpdGo6LlwTk4V9g8Oe22TttmA2cAs2wB3vxAjAIF+D+bSYpHtM0OtCbPcPnbs0x/fKLr1uge6QCkCFmLWKOIYTIEYhv1y1xeQ7iZuGfAa8I48uaEIOxBuNqtqbOVyXifOQxhGGXZ/CQGGcVdwqjAgzIQ7jgcwzQBAZW61Wqpw4B6BKswtDlwknCqcSBwqw7hIsEB4rhGNAxi2SXH6k6K1ubW52cDoNoC7GvMa6tkgQME8jFiAGGDtP3r7WxsebcNGo3zgulCtcue1PZBd9uICmAGbxXUHpRjuwOZ7tbsBrwFvT+PoZTSDvu8HYSCSSRSgxNWgUMhKJuOBJz7C0WhU/XRRZVFoAWEU4VGv/PwDhQkfEGafDBKuCFkIGCy5XFZBGNcIz1c4rH7MqVRcF4xqtSA7OzUdTCjcnNug7WDbHZ30rD2sPcwGpmcD3M3iQh+46PdgjkQcwJ/S+mh6fTTvbY0QRnwQUIp9jQq62CnreLnMHd203rXlrnM3Vdfftga8BrxTndgARfcHOHJ7Ax9bbkEwMeMrjPsBEBwOe0FzkUhYEonEAQgDqoPcous3ubvPGTxcKToYZjA2GnUdTARy4CcMBIdC2xIOb2swHyDsnOHxReKqEr9n/+Cy17ZgmA2YDZy1DezttSSfTwvuXsx1/R6ABAIA8/FZH7v9/myPH9Z3xC0uuBCxEJqwwdO6NDo/XYQq9gns8hv9QNfZkQGvAW+gJrVDGG6qa4GDYeAymYxp1oitrU3Z3NyQ7e3tAxDmqtENpn4T+qCfM7j4Y4DyBxCjOrNwEDBH5oitrS09Fo4pEgkJIIyCjZrtKcJ1U4NtjAVqjLnJ355nGyaG6T/mVQKMmSP7PZjzCPzJZtOWtcHmrlPNXVxkAbq4xxDD463No7ksIkohdnEHmHgcRCbsephxYMBrBj2UwQxjXJPYFhUVRdUFzZE5IhZDfd2UjY112djYUChGlcVHmCtBd/vEASzP43x4kaF1Hdj4B6NMA+QelG+pIpxOJ9SdA4B3PsIO7ifRTrbPxYEZ62vr60FsAAABFrhw7/dgTsPVC5/IQfZt25gNYgOsadiMlzY0pzE0o8bmIDYRi0NAGusorhHcHT6NzRnwGvCeynBOY2yT+g6DjKs9D4SrOuC4AozHI+qCsL29pe4IKLJccRK8Ro4+rjqZ2FkAGJSj3GrpXEDYF6DtUqgBwpFIRFVpXCM8N42Y3pLBrxmXDhz6uT3DYOYWjQGxLSKTGjO238W0LdKOcZeq30U/n7MdvrwWwLaYtjLoHME6hRDl+Yqn1NUAJXaQC6vOddP9j/2xhrJG4wrhpT7N6l3TQY+r23YGvAa8Mw+83QzbvQc8AsIoq7gaeIFyBKaFFTrxzcU/2BXVwDWCwcpAw5fNwXC/BcIN1H7P7I+rVQfCZKsAxIFhjoXXuEXgm3S0qAZKtRXVcP1qz7YImw0MbwPDBLAhAlQqZSmXCwP7SFqfDN8ns9xmCDOINVwY4VNLHn5EpNOul37QJYsD++XOBOv3ONrJgNeAdyyGNA5jnNY+GKQuYK5Wo7pcZ1GN6JGiGiTFdunTgGGUWwY1V6DjeLAf4Jp9A8L4PHlFNVCpvaIapFFDnSH4hAnAimos1sIyrbFhvzPfdoUa56VfLPdNAwl8cHFOZL2pvPNtF8OOe3x0ybzAxRDr4zhy6TpFF9DF5liXqf467LGdtL0BrwHvWA3qJGML8mcsBA6EPf/gkiqsKK34DeGTRAEL7488wty6YVAWNc0Kt/+ci8S4QBiFxQ/Ch0U10gcV5gBhV1QDf2ZAGBWHK2LnGuHcI4Lc/nZstqCaDUzHBlwuVGC2nxLnqbwVdROzLDTT6Z+gjwMg1IHuSSnGsB3iaFi3TrIz1kvP/Y9c+ZTDLmhhikm0gwGvAa8B7wk2ACwegnBVB2JnUQ1XXQ74JFiuW1GNUfyZ/CoyEwf7AoRZsLiFxKTjSi0Tic1xUFDDFdXAn9lTdYoHAXPuvCYxqdg+bWE0GwiuDXBxz0UxQWn95iXmG2DEU/HYfrioeLOD4NrBsH3DhRKCCinrcHVB4AFqHcySQ5/3eCAEkcGITEq9gBfQ5U4pgeXeXdSC3klgbRr22Abd3oD3BNgZtBFtu/kZ1IP0JZN+pyLcragGIHxYVCOqpY6JkmYCAFRZSMalBrMfB8JMOrhHMJEw8aBEA8JeUY2w+i/H41FVrnGPwAfLn0vYFrXFsudBbN62mS+bIGUiF8HMQ/3mID5nO/wpuWtktjBfttCvP72iEYAulUjLKrT4QRfAxT4uXbokt2/flrW1NVlfX1e3vG53EZxowxoF6GKHXIBN4w6CAa8Br01gY7IBB8I8M3gJMgOEvaIaBfVJwg8X2CRnbzjMHxXd4gql+AkzCYzi9N+pBrNYMTk5GAaymZyAboIMCNgjY4RXVCOkgXMu9QvH7kB4klfd/SZc+3yxFljr78n3N3NUtVrSVE/MN/0ebOPdniatmam8i2CjXBSRAowMCW5tYj1xiq6zGf5nHXv33XfljTfeUGUX0aXbhRTrEBCMCIMLHhmKuIialk0Z8I4JdhZhANg5jrYQMaj5A4bxE240qgrDrqgGEEwKNfL3cjsIEEYRxmWBSaLbBOImnWGfmaTYH38AMQsaIIwijEsGGSM2N12Bj82nuYST6stHHuFpTVBmc6PZnLWftV8vGwBoUO0IOBpkbmEOwj3Kxv582xTrE64LiDPkvqXfOxVd/3oD3K6srMi5c+fkgw8+kHv37vk/1td8n+24aOJuIwFpBL5N25YMeA14TeENkA14uYRr6iucy3lFNRwEc5soFAodVJcjl7BziwBg3d+x2WaEN/AV9nys8uqSwe9T3ANVmKtzFs1pT1q9FnB7f74XYuvf8fcvd58KhbzOI8wfJz2AFi6ICeS1vhh/X5x1mzKPE4yWySTUT5e7jfR5v4cTT9ie9cj/4EKK9/AXB3QRd87ybqEBb4Bg56wN3n4/mJMYEwTuEajCQGbvohqkLCuoYsMkg2rLLSQmLSaefguaf6I66TX75kqd21i4QpAlgoWz2ayd6WRm9htM+7V+CW6/cIHtBbRWBlJ5GfsU0TFf3uD26bDjjfWF/qSUNO4LCBysHaOsFw50uTuJ6xw2xho27LGNe3sDXgPeMzfCcRv1ouyPScr5CXMLygPhqK+oBvmEvaIa3Jri1iVX4dxaQrkFhkcBYUCayZGcwRTOwDeZiQ345bi4ZbUofWHnOT8AsGh9ia8+kffcuu73YL5gHmGuMeidbZsHdBFRvDz0BKSRynJ3oAufXnaCfezuehVGCUgbZ9GIcYxLA14DXoOSObIBd7UOcAKe/qIaZGkASr3cvUkFVZTazqIaDoR7TWrd3kf5YT/4//I7BL4Bv/V6aapBCeOYFG0fs72QW/8N33/ME9x2HuQWthfA5hW/sbYevq3Pus1YI8i8QCVPLnSYt5m/gdXTPjzQ3dWLIXLp4vYy7qIR42g3A945gp1xGITtY/YmsH59hm+WA2ECzmo1cnB61eX8RTW8PMJJhVaC5fDXQ82hqAYTIiDc7zYXEx8qMt/1cgLHVA3Cd4tiGBxHv+O1z+fPBq1Pg92nKH1EzTN2+41xoIjtuAXO96xvg923rn9YB1DzySNPJbNymXSUHHt/P91eIMx8zwUQd/pwpyMIkvWF2A73u0F6NuA14A2kYQZpkMzrsQCfR0HYqy6HMssVOrctKaThFbKgohsFLPIKwP3UABZNJkJgmYmQ/Tjl1wt2q1uwm809NvcEyAYAIS50Gbf9HkASqQ1Rhud1fpyn8wJ0/Ypuv8wL/fqf+R0BhMw+BD0C0KS5Cyrour404A3QhOM6xZ5n44p5HvsJFeCoIkzGiLJUKnnNyYgiTDENAJYFD5+vfg93uwv45RYa4BuLRVRRYiI2X0Cz93kcS7N2Tl7gUlLv6vS7oGXMe2mmsqoaztq5Lsrxeq4L3t08ikagzHOxMoiK32teB3TZD6DrpbVD0Z0NAcOA14DXrtDNBvragANhFkVKTOKiEI9HtHgGUdtc6Q+ySDLZAsm4SvA9im/EYmENbmDSNJcHg99FgZEgnifjO51OHUsv1Q1+GO8EOgE9jN0gns+iHhNKqwtkxje72aS4Q3+XtG797N5j7uYiB9DF/YUUZu329IpGjKMvDXgNdmyiMhsY2gYAYCZV4DedjmvBDOqm4/IwiOqLwuCUXzJIkOWBghuJRFSD7Uz1NfAdxwJn+xjejgBYfPABnH4PxjoAxO1sa+vh23oSbcZdM9zRyJLAXbVRQZd5mhgObII7e7ixnEXRiHG0lQGvwY5NVGYDI9sAWSHwzY1Gw1qhLRaLqYo7zO0zbpOh+lLhLRwGnjNCkJ2pvsFYSMex4Ng+gt+XXMxmMilNU9bv1jcwxN0aINkC2M6ubz0Boq7K6zhz6XJBg4qP6k8hpFkfvwa8Bjszb8SzPgjn6fiBUxSGbDap0EpFNuqmA7MoDSyQ/R5sh38w0Exhi2Qypqovk/o8tZWdy9kBgrV977ZnnBHghEI4SAAb45W7NKRBtDHau10nYXPMt7gV5PNphV2XS7ffhcpJc7C78+YuZAhgnpc7bga8BrwGEWYDY7cBbnl5qi8liWNalY1sD9wWI0KYhbTfpMzECygnk0lVjokit2IW011QJ7FI2z6D34cADqptvV7re5HKOG406k99eYOZjmrebG53lwJCpALLano4F0A8iKDQC3b5LvMyKcaKxcOANH5rXtrPgNdgZ26MeV4G5bydByoEQS0EuiUSXvELClSQ8Nylx+k1CfM+bhGkNotGIzrBm4tD8IFp3mx40c4HpbZaLarKi/9mv4tT764MebuLpvJOkCmY+1zmBVKBISDQP4P4W/eaY+lb+s8DXS+XbrVKQNr8BSIa8E7QOBdtkrTzNRDpZwOuAhy3yZLJuOb4pTQxt+KIAO61sPI+E3I0GlVfMosKN1vrZ2v2+Wg2grKHawPprPoBFeOTi1dUYQJZre1Ha/vO9uMCBNB1RSPIvDCIWNALcnnfgS4ZdnBJoe+4YAl6Lt3OthnmfwNeA16bnMwGpm4DTOAEuXjJ7tNPld+4+vsCtr18B3Fx8CrCxdVX2HwGx7uwDrN42Lbz3/ZUR0RJBK56XYw6qAKKq1UvTZmNy/HZRifouniIfv3h+qXz2YEuGRwc6OJ/vQhBhwa8BjtThx1bKMc3Gc56W7IwcpuObAzAL/kdKWwB1AK+3XzSUIKJGsbFgXRItriaPc36OAjq8TM2GZeUoe2n8gJWRPVns55SGNRzmqXj8ubEtILpOFKM0YdcvPhBd54V3c6+NuA14DXgNRsIhA344ZeUZAAtwRjdFloWVvyAqdgGLHdObPa/QbDZwHhsAJXXc1Vo9FV5UQ8BMyoyWvufvv1xLeDin0wZuBwMEuTbqeT6/0c4QChgPiVtGSkkZ61oxDjsyYDXYMcmJrOBwNkA/oMkOCctWS6X6wq9BGskEgnN17u/Pz+RxOOY2G0fp4cNa7ujbbe/v6NVtVAFe7ka+eGKbQA1MghYWx5ty37tQRl3ciCjko8DdLkAQRwgxVg6ndTy8Kj2i3pXzIDXYMcmJbOBQNoAEzNKBEUoUCW6Kb1M5LhAkPu332Jinw+3+Fp7WXs5G+AuCiBGmrJBfEdRE6nKtahg5dptkGfaCP9ZAnlx1WJOA1JHeTjQBZpTqaRWXqvXrRqeAa/BjoGC2UCgbQCYxb2BfLyd0IuaxISOCwSAPMgCY9sYyJkNDG8D3GbP5bKaBqsfjHELnbSDQJxBb/e2Zr7y0jVm9WKC9gJ0B7mg6NX+fJc5EdClr3CLQDQwe/f6wIDXYMcGg9lA4G2AdGb46+K327kgMLmj8loO0O4Lqy121i7jsgEqepFCsHMMdgMw4M2luhrX78/DfjzQpbhDTtuHXLoo4t0CdLu1a7f36A9y6TIXuoC0chkXFBMB/DZjwGuwE3jY8RusvV7cxZvUOZubGxoU45/0UX0BYXzUCMQwG1lcG7G+n2zfc7eFcQag9YNePscFgrsvNi69fkHRJbcxFwKFQl4zJgCqp33Qxsx/XooxCoVknwakzV/RiHGMbQNeA14DBLOBmbAB1IpsNinxeFzVDP8iwQKM2wNpfMYxMdo+JgtO1r6z275UTKTy4SCgxu11FMdFv63uCu5Qspf2GDXFmFN0j4LufBeNGMecYcBrsGOAYDYwMzawu9uQSCSs/oF+4GUB8MoPh01NMnueGXsexyI+7X2gUmYySb19zrg76cHnQFmhkJvrCl69+oBsM5VKUc/fA926Xij0a7debcr3UHS9XLqeT3WtRol2S83Yqw/87xvw2uJgi4PZwEzZALcEKTFMWjL/A8UJX95cLjVT5+OfkO317Cqfi9R3VP/KZrMDpSljXFIKF59VLlgXpZ2q1YK6c+C6gGsHavdpQZd5zp9LF5cIUpgtQnW0cdqLAa/BzsJMQOMcOLavswMT/AETiZjm5/UDL6+pzoafL7cQrY/Oro+s7ee77cm8AHQRwNaZOaVzTAJ5KJLk5l2E9IG1GkUj0polAdAdR+YF9kG6MvZLfmMuOCz7xfBjzIDXgNfAwGxgpmyAiR6fQLI2UFfe/2BxJX1ZIhFdKDXJAHP4xc/abLQ2w7WBAgmdd1r849G9BoopT+wFsM3nxWijUdY0YOTSJVvC7m57JEWXtgN02ZdXjCKlFwwGuqe3WwNeg52Zgh1bpE4/2Oep7bg1SrQ42Rk6FSYWic3NTU1TNk/nbOdith8kGyCIFLUR39RBAtgYl6i8qJNBOo9RjwX/WdK1UU65Wq2MrOgCurg/4PvsZZ9JCKrxqMdp398RA14DXhtIZgMzZwOoHOTdjcdj6sbQ6RuXz+PnG1nIQBlb2AyMp2UDOzukHeMWe7OvmokPKrflcYWYB19ezh2/ZNTXUql0JJeufz7ighx4RantvDh3CjjPfIcLh2azIcxf7Neyzox3LBvwGuzMHOxMazK33xnvZDPu9kRhQllJpVLHgme8ALaYkELJbgEGux/HbRe2v+n1N2OwVMqpyosq2e/BNrPuy4srB77IuHMQkAbsO5AFWkmRSDEJAB/ITSQS8ujRI33upoQfgm5Tv4fbB6Br89b47diA14DXgNdsYGZtgIUHlbez+hOLSKVSlng8+jRQpjWz52gAN/6Fz9p0fG0KAJJ2jIDRftXC+By1k+CrWcswgKJbr1cOikYAswAsc4174LZx//59OX/+vOYLX19fV/cqtu18ONBttbhoKGkbUh3NinSMzzY7x7kBr8GOgYDZwMzaACoIfoSJRPxY8AxqEuov9eRRojonP/t/cguLte1itS1VEFE7CWDzA2An5PE/kEiaMpTMWbATVzSCeYZc3w50u8E9n7///vvyq1/9Si5cuKD5wrtthyKMEuy1A37Qi5mneNr9b8BrsDMTk860B4b93uws2ChFKLksNv7FlteoTsBwtVqyW4Q219lcNyEbwCcXIMRHtxvg+cGXcQns4aNKZoOgzrWcE3EC+CgD88wlXETjrkAecM7V/+C8yE189epV+eSTT+TmzZvHLsIBXS4KUHS9/eL/TKDb4uQnPsv+NuCd0ARwlp1qvz07sGZ9NXpfofKSpowKbOT79D9Qk/C1I4LacvOO3tZmr9aGvWwAlTeXyyrM+sdgt9fAIcBIxbZe+zur95lPOkEXVwVAfnV1VX72s5+pgvvGG29ocJn//NgO9youvv05ivmu91lZ24iLA7I7GOhOdzwZ8BrwBm7COauJzn53upPPONsbmKUYBWl8Oh/4DHp+vqRPMl/ecba77Wt2x8y4+25vryXFYlbz7bogrs6x6P8fAORilIvVcR/LafdXrwPtFI3ISK0GkHqgy3Gj8P7whz+Ue/fuydbWlrz22mvy3nvv6Tb+8wLm3YPX7AO451xx4/BA11ysTttHo3zPgNeANzCTzSiGbN+1hZeFZHt7U33s3ILDM4sOtySTyZipvDbf2Xw3QRvARYH82J0FYfzj0f+ai1FcG856/satANBNpZKqzOJ2AKiGQiF555135Ny5c/r6mWeekeXlZfnRj34kr7zyioTD4WNuC+78uLuEvy+gSxwBAbZ2wX2265QB7wQH/1kPYvv9sx1c1v7Tb/9sNqmLkFt03DM+g+TltXQ/0+8TGweL1eakKcvlcsdSBbqx6H8GCvGJ5Rb/WdgJAMqckEoljuTSBXjJtPD9739fvvzyS3n++eflxo0b8uyzz8q3v/1tzbwA1K+srMi1a9eOnCvqNp/RBgA08QNncW72m8fHnQGvAa8NRrOBubEBXBtCoU1dRP0LK68JFPHKEc9XpSdb2I4vbNYmZ9sm+Myjbvpv73eOR/c/fvekKavXpxPABuTu7jYFn2PUZe7+kBoM+AZU4/G4Bp998cUXEovFNEANNRfovXz5snznO9+RpaUlDU7DrQHFF8jl++yHynNe0Yjc3Myr8zKeDHgNdmxQmg3MlQ2g2HArEpXG/2BBYgGjWIXdWjxbIJqXBdTOo7sdEfSVTqeOjUH/eHSvCeiiJC+puSadPpALYsAa9wWvAEZD1Vn8c8mZ++6778rf//3fa5EI3rt165a8/PLLcunSJVV7UXOvX78uP/3pT4WgNbI1MM8A7eVyScEdP2azi+52cdbtYsBrsGOD02xgrmyAyGf8dTOZzLEUSahOodD21NSks57g7feDufAuQr/kcpTGRbV97Ni26zMqMC5HAGitNhmV16uOVtagMRRd5gEXkAZwkzP3n/7pnwRV9ze/+Y188MEH6pIAAKPqArY///nP1W8XwPX/kY2BFGMAu/npBnu8GfAa7MwV7CzCQmLn2H9S5XZlJBLpGsBGMQry9k5aTbJ+6t9P1kbz20bNJpkJ0uom0M+1AegkK0KxmB9rqi4UXeYCsiMAumRL8HIAZ9QV4e7du5paDKh97rnnNGCNeYPXZGP47W9/q9kY3n77bbly5YpmZwCUd3fbWsmRCnOALqqxzSfBt2UDXgNeA16zgbmzAVReFlvglmTx/gfqzPb2thBcY8AV/EXK+mh2+wjYBDQ7x6B/PLrXgCTbUl53VHhk/Hug6xWNQIXlGPjb2NiQX//61/Lhhx+qWwKKLtkWvve978mDBw/UPYHCEbyPaxQuDJQLBpY5Rk/RBXSzquhaLt3ZsU8DXoMdW/TNBubSBkg15OXfrbg19eCZyPBIJDRWNcnAbHYWPuur6fQVMOjltK0dcy86GIxPX6DykqbMK15RO9WcBCiTS7dQIOctld8q6n7AvnGvoBIaacY+//xzLQ6BTz+uCvjqovJSVAKo5f2PP/5YtwGSuUgGeDkX1GLUawPd6djQOMeqAa/BzqkmlnEaoe1r9iaOWegzFj8Wp2SSKmtHA9jwKwSGyY85qpo0C21hx2hj7CxsYH9/R1VQbv0PovJ6acoKevdl2HHJ9oAud3YqlbK02zsK2bhT4LNLoBkZGMi4QDoxHoAw6cbefPNNuXPnjvzN3/yNzhUcB9/B/YHgNSCcQLednZqB7gwzkwHvDHfeWUxg9pu2cM6SDbRaNQVbSn12+hG6ADbUmlk6JztWG4OzZAP40XLhCYQOGsBGsQa+N+h5AroUvODODZDK7/C8ubmpzwSdUSUNeCUQjQppXAQDvKQVe/3119VtAaWXeYLvN5sNDaTjopg5gkpygx6PbRfMMWrAa8Brg9hsYG5tgPRj+Nqh5rIA+h8sdpQiTqXimpfTFqlgLlLWL7PfL2QvIAsDkNl54ekfk7wGNkuloroP9EsfSPozikZQ5IHUYHwXJZmLWbK0kHkBv1wqpZF5gc9Rdyko8dlnn+n7//AP/6Cwy3zAsTFPAM4ANH7AZn+zb3+uDw14DXZsQJsNzLUN4GvnFkUWPP+DRZIKbJVKYa7bwE349jw/i/cs9WW73dBqauSq7RyD/vHoXgPGmUz6mMoLAOO6wJ0b/Gnxy2UM44LAfvkj88Krr76qfrhUS6M4BMUiXnrpJVlbW1M4fvjwoboxvP/++xqwBiQDugSkAbooxpQqn6U2tmPtP7YNeA12bFCbDcy9DaAExWJRTZHkFlWeWSDz+bwkk3EhV6ctGv0XDWsja6PT2ABuAQSSUc2sn8qL2or7QSaTPPCZxaWAfZRKeVWACSq7evWqKrooso8ePdKAs5s3b2oJ4E8//VRVXlwZ8NElKwPQS/YFXP5qbC0AACAASURBVBwcJAPXBKThRkGJ40ZjMrmAT9Nm9p3xjjUDXoMdW+TNBubeBlCFUG5IU9apMKHsJBJxXUj73UK1BWi8C5C152K1J3dSSqWCwqb/wrPba1RX3CDw/93ZQSHOqzrbaNQVclFyX3zxRR3TwO4LL7ygLkoAL6ouldBIK8b/P/7xj/XCFleHRCKhMO2B7mHRCLI7mD3Otz0a8Brs2CA3G1gIGyA5fCQS1sXOv8CiJqEQ4fZgAWzzveAZ0Jxt/5LlAFcEwLOfysvnuCtQohifXsr7kkkBZZYH+wBsUW5RaFFxUX0BXDIv8D7pxxjbpCIjcJWxTtoxtidzBLm4AV0LSDtbu5jWuDTgNdhZCNiZ1oCy3wnuxIl6m8+ntQJbp8rLIkj6MlIPDZsOyfo8uH1ufRO8vkHlRbllzPV7AKjcgSE/Ly4Kv/zlLxVgAeHV1VUNSvv2t7+tfrjr6+uaeoyKaGRnoJgELg+4RgC47Idqbl51tLwVjVhA9jHgXcBOt0UgeIuA9cl0+gSFKRwO6e1N/2KLmkTACiWHUYKtP6bTH9bOi9fOXjGKtBaFAGgHeTA+KflLkQgCzVBz8cel9C8pxQBhFFxSjlE8IplMqtsDsAvoogZTdMLzIbaiEYs67gx4DXhtcTcbWBgbQOUl1dDW1qbeLvUvtqi++PgSKGMq7+KB2KJCwFmcd63mpf0CRgd9sC2pxFB0cVHY2trSADh8cv/u7/5OUHipkIbCC+ji+kCAHGoyxSgISrXqaIs9rg14DXYWBnbOYmK33wzmBIuSiwrU+eDWKQqwqbzB7DcbT/PRL557EVkRugewAau4LNy+ffvIEKVSGgruhQsXDlwiUH+//PJLLQ2MmwR/uDywbwJV8dO1C9j5sJtRx78BrwGvAa/ZwMLZAK4N29tb6tt3ZEUV0Vuf8XjE1CAbFws3LkYFikG/D/Diy0sQqb/kMC4OqLQvv/yyfOtb35I//dM/lVKpdDBEgVkC0X7xi1/oOHUfkHGBOzR8Tq5fl0t3mGptgx67bTe78GzAa5O6TepmAwtpAwSosbi6qG//4hkKbQu5ex8/tnKitsDP7gIfpL4DclFacSmiXC+FJXA5AHKd+wF+ts8995z66ZJdAT9dgtX8vr64HVFYgrRkfA+FF+DFB599ksbMikaYzXazfQNeg52FhJ1ug8HeW6xJkmpNuDawsLJo+h+oSijAtnAulk3YHDCZ/gZ0cRMCRinwQNYE1FjGHX9ceOKfS+W0a9euafAZY5DS33/5l3+pn7vxCeQCxgDuYdGIrFZHs6IRk+m/eRkXBrwGvAa8ZgMzbwN7uw3Z328OdR4oTvj3sdh2Bs9we5SocJQotpuXCd/Ow4BgmjbA2CG3daVSlFwOSC0rpAKqKLVu3DEG33vvPc2eAsg+//zzsry8rAoumReojuZcH1B7gWVSjFElsVjMSrVqRSOm2a+z+lsGvAY7tpibDcy0DbCo1io5/dvbawx1Lqi8FJzI5XLHKrBxu5UANm7BzuoEb8dtgHtWNtBoVBR0SQWGcgvcAqqotg8ePFDAPX/+vGZUQLHFdYGSv1xsAr8XL15U4EXp/eKLLzQQzQPdmlZdo8QwY9MuSM3GB7VxA16DHVvMzQZm1gZUQWqUpJCJSi4VlkopM5TSy/fx1Y3HY5rc3t02dc+ZTEYSiZhFedsYmdkxMigMjGu7ZrMi5TJlgDMaQEbGBNRZsiYAsai1uC1QDhhfXKqjUSSCYLSHDx8q5JJnl8pqwC8uD+yDDCqUFwagGbOWecFAd1ibNeC1idwmcrOBGbWBlrSA3WxMMoltycS9v0oxPRT0ttsNzb2Lb2G3ALZYDD9fUhuZa8OwC4xtvzhQwt0SXIQYR2RK4A4JwOqqor399tvyne98R8sB44rAZ6QZA4ABXIpIAMKMwY2NDQVkQNlLMQboZjSzAxlWTNVdHLsa5xxiwGuwM6OwYwN+nBPB7O2rJa1mWQoZD3bTsS1xf4BveUjorddLAtiSsN4fwMZrgtpisYiw0M5eO9k4sT6brA2Q+ssD3bSmEHOgy9jBBQGI/dWvfqWFIsitS7U0/OP5nD/uogDDzzzzjHzyySeqBgO6uEAAxplMShVjLkwNdCfbl/M+Vgx4DXhtETcbmDkb2GlVJJ+OqrLrQNf/rNBbSMmgPr3cHs1mk5JKeSVJnUsDzyzaiURcSGNmt1FtwZ13KBj0/BgLuC5QmRAwxeXApQkjIA1o5f3NzU3553/+Z1VtgVty6H7wwQcHd1OAXvx0CU778MMP9aLTy9CQ1IA0fsdA18bdoHZ50nYGvAY7Mwc7Jxm0fTb/EyMZGfJdlF0/8Orr+LbkUhENZhskgwMKbjQa1gAbFmH34DVplFB5CcQxG5t/G7M+PrmP8aEFdAHYer1+ALr46fJHqV/8cYFdVF2yLuC2gHsCAWzf//731Z2BMeZcGwhUo4IapYDx093dHS7rivXZyX1m7bMjBrwGvLaAmw3MkA20pFEvSiYROnBhOAa6He4N2WT4aQaHkxdQfHTxEyRFEuqU/8H/6XRK05SZymsL6yLCw/4+WRaaks+n1c3An0uXsQLM4rpw+fJluXHjhnz7299WJfe73/2uvPHGG/L6669rcBoXkOfOnVPFl9e4QFy/fl2D1wx0bWxNcmwZ8BrszBDs2GQwyckg+Pv2/HZRbU+C3G6fZROhgaB3d7ehSi4qU+cDJYtCFZamzMZh8MfK+PoI0G21GlKrVTRLgsuly0UgPu8u0BN4XVlZ0UpppBf74Q9/KL/85S9VyUX1Je3YlStX1EXIq67mfZ8At0ajLu02F6SUCB7fsdu+rC39NmDAa4PLJhizgcDbAD58zUZJXRTIyNANavu9dwi9J+fqrVQKmn+X5Pj+B7deiUAniIZAHf9Eaq9tYZ03G2DM7ezUtcDDnTu3FWZRYxkXjAX8bKmO5hVoyernuDG88sor6osL/P7jP/6jJBIJVXEJ/sSnl+/X6zUpFkldlpZajRLeZj/WBpO3AQNeG2g22ZgNBNoGFHbrRS9ILX462HUwDPSSq7dZ752wHpcFilGQMgklyv9gwSebA8E6Fkgz+QXKIOAs2rgtZESgFDBQSuUzCkS89tprsrS0pC4L9+/f1/FBoBlBaO+//778+te/lpdffllz7eLDu7W1panGUHtRf1GCUXKLxYLm6K1WC0IqM+vjs+jjxfxNA16DHZtwzAYCawNAJT67+UxU8+w6cB3lmQwOubQLZuueW5fgtK2tTQ1W8wMvAIxKRTEK1C9brBdz4ZzPfm/L3t6OVKtlSSapPphVv1wUWQD32WefVbglXy65c/m7efOmui7grkCAGvB79epVVXjX19cVlsnewIUioIuPLmWGDXRt3JzFGDLgNdixRdtsILA20Gw8zbU7orLbCcgKvQcZHI5DL6BNblFu13YLYCOwrVDIBLbdzmIxsd+cXYghGK3RqGn1sx//+Mfy4osvKuSiyrriEASkEYCGcru9vS0/+clPVO0llRjwC/QCvHxOQBs+7wSyOUUXVyErGjG7NjIP49uA12DHFm2zgUDaAKnEcD84rc9uJ+Qe+z++JS6DQzf3BFwbotGIKrp+lZfXpFYKh7dN5bWxE8ixMwycUAoYVffChfMacEZJXyqdYeNc7JF14Z133tEMC6QXI/CMohAovbgy4LcLIOPeEAqF9DNUYXx2s9mUlEr47datUqGNlTMfKwa8ZoRnboTDTM627awqBAS6DPb35Mmu2qSqu9m45FLRif4VMnFpHATOHD3Ger2iChcLvP+BT2I6ndYFfdDzsu2Otu3stcesjr3ux91qVZ8CaVEoFEHZX+CVgDTsmz+A9+LFi5pejCA1AtH+6q/+Su98UEzi1q1b6q6Qy+VU0WWckHWBAi7cAbGiEd3b3taxs2kXA14DXgNes4GJ2ADg+tVX+yJCEYfB/7766onw9+TJY3nyeHp//Ga349Tj6AheA35dIA7P3b5n781Xu3g2uTeRsTJNACL1Xjab1rzSuB4Atfjf/uAHP9DMC/4LO17jvvPCCy9o4BoXeai8wDEpx1CBHRiToowMJqi63e6YTPMc7bfOBiiD3u4GvAY7Mz+BB32QLeLxPXnSVmg9DfQ9frw3ddg9AOsnqFtHwZf/nerVCQMEsR1+Nl+Ad5q+W4TvPHkC9KJWzw5UUFQF0KWwClCKWovbgctCQuqwb33rW+q24LdxYJagszt37igQ/+3f/q2mGkPlxVfXy7zAfnMKuhbIOTs2MUv2O65jNeCdoUlrXJ1u+7FJadw2gKLj/wNaAcVOeOwHRGy/t7szVWX3AHadmtwFeh3Y+mHAvQZ4PXAw4O3Xv/PwOTbq3G7GPY7GvT9cCoBQAjBRXgkgA3SxWf8DqKVQxNtvv60+uHyGTVMwYnl5WZLJpEIyCi9pyt566y1VfGu1qhQKOSEgDaAe9/Hb/mytGqcNGPAa8NokZTZwahsAclGP+KMi0/5+W/9YUD0Q9BRTFs9+AOyBxGPZbbfOFnifgi/H4wCN14dg60cFDwz4zFwbFgf4PZU3uDAC6JL6q1z2UoEBuvjXosgCvN0e+O/iqvD5559rFobV1VVNL0ZgWiaTUQDm+2ReIG0ZRVhaLSqkWXq+cUKZ7Wty48qA12Dn1LBjA3NyAzPobesH3b29tuztP5Za+4lk608kUXmsf+naYym3nkh7/yt1UXAQ3At8nc+uH3hJc/R7v/d7kstmpwrBjXpd/uiP/kj++q//+gB6gfZvfvOb8ju/8ztd/375y18cbOtAedaeOd/O8/v93/99LSk7S+fSajXlj//4j4+cy+/+7u/K2trqWPoI3/QgjlHGJcFoKK7kvAV0yYELqJIm7O7du3LhwoVjCi8AjC/v7du35aWXXhJSkL355puaiYHUfEAyKnCpVFRFF9AllVkQ28COaXHXpX59b8BrwGuTltnAwDbggW7zqaK7K+19D3CX4rvy+t2mfPd8Tb7xcVX+6rdVeeZcTV660ZAvNtuyVdhX+AUaHz8GFvaPuDt89eTJAdAOArwOSCcFw/VaTf7wD//wCPCi4DqVF5ULoPKA2Atg81TeQ1V4WoDo4G4cYMr5cF7s0x2/g+DLly/p+3x+mt965ZVfKoCyH7fvk55Pe16FQl6Pr/M8gN27d+8M9NsnHRefBRF4GZse6GYUdKlqBsQCqw8ePNAcue+995764OKa0O0BGGezWVV48eslqM2BLgBdrRal2awOPF/0AxD73OB0mjZgwGuwY5OX2cBANuBgd3e3JXv7+1JsPpGr4V35xidV+Zc/K8h/8E+5rn//4ic5+eM3SvLKUlMipX1p7R2FXufK4HxpBwFet+0knoHxaqVyTOEFdDxgf6yqmR94gQc+Q6WetGuDAzoAsh+YDft5N+B14NkJkMPu27/9pM/hNEDuP75+r4MGvE7RpV1Rch3o4m/L/+TJxe+W9GHky0W9ZRts1rPXo/jLxZtLMZbLZQ6qozEHTBNQ7LcMiMdpAwa8Bjs2gZkN9LUBP+zu7u1LpPRYXrjWkH/1cm/Q7QTg//j5vPz7d8tyfqst9bYHvfv7RLzvH6i7AOygwPvNb35DoRS1l+89erQiv/u7Xzu4jY1LAp/hDoES7G7V8z3/9hcvXtD/nWpMBDqgcAi0h76pTuVF9Tr83IMFPnv06JFw69z9lh9KUTbd+zy7z1AeOT6eAU7+AC7+79yXg0//fthvJ6h2fndQWO3cjwM/3ncQ6d/Gvf6zP/uzg3PjvPznyjbsh/c4n+Xlu9p2nefA5/xGPB7Tz9mP279TnDvPy7WhO04H0u433fvjfg4K8NbrJcnl0loG2IGuA1hSjVHmF1u+fv26/OhHP1L4DYfDmlqMdGOuqATbuIs2FGHSjWUyafUBxkfXQNfAc5zgeVb7MuA12OkLO2dlnPa7wZlkCYJpt5uyu7ensPudL2td1dxOyO32/79+pSgfr+2o0ovKtEvU+P4h9J4GeB3s4vPrVF9ANxqJKEx2Qi7bue/4gRc3BoD3KNAeAi/ghCINXHQC79ramgId+wY6HPTx7EDNAZr/f/f6D/7gDxQagTX3ntvevy8Hde4zjskPhp3f5XO+46DxJPjz78e/Hb/lfGD92/AacOX42J7t+J/3+Z/33ff8r7udg/vcXZywL/9vdZ4X2/t/m9/r3MZ/DuN8fdbAi1sBuXQJJiP/7e4uOa+/UlUWdZYH1dIo90umBfx4n332Wc23i3L78ccfC4UjSE+GrfMdxiL7SqdTCtH1etlA1/hgrvjAgNcMeq4M2iB5/JCMutNuN4TgtFLzibx4vXFq2HUA/G9eK8qt2K7eUkVR2tvdPQDV0wBvp9rroBf4RPUFbnnPqbhs3wm8pFj6wz/8txqY5pRUB25+WAIs8I88DGpTvlA4Q6HEB5JbxX6oYz9OIXX7cjCH4gkUdgKsf3v/vvyvO/fFcbv9DgK47vvuudd3TwJev3rMdv7jdgAKnDqg5b1u59ANYP3Hw2v/vrvtw/2evy3duY3z+ayAF7UVRZdKZqiwjB2n6OKu8POf/1xVW94nlRhg6/x1P/vsM4VcbJNtCWBzAW1AL/l5Uyn8dou2JhgXzKUNGPCaYc+lYRv4jg98ya+pUdn7T+R6ZFf+4Bfd3Rj+w+dy8p+9mJf/8dWi/C9vlOS//2VRfu/H3f16cW/45idVqbSeaAT5Tqt1oPKOG3j9t87da2D1zp3bCsMovLhWVKuHfrsnAS/gBCiwD7I2uAdA5vbvf+Z9P7g58HJweO3aVQVegM99dtK+uoGef//+125/gz73+i7vO9j0b+N/zW+4c+IY+d8B6KDA69Rgd7z+/fPa367uNe+77V3b+N9zn43zeZrAS8o/LjiLxezTohFFBV3A1f8AfNfX1+VnP/uZfPnllxKNRrUkcCgUUgUXH97XX39dv8K2qLrYcT6f1/2Wy3lTdI0H5poHDHjNwOfawA18RwNf1F0S17fbLUlXH8u3Pq8eU3cd6P7b10vyjxfqGshGarLfPtqR//u9ivw3Lxe6gu9/98uCfPRoR9VQgNepvOMGXr/C65RfnlXh/drX5MKF87K3t3vETaEf8PI5wPuNb3zjgDmALKAQgAAmPCDx3CHcZw4EgS/eQx11Cm8n8DrA7AQ1B3V+FdPti+Pyv+78br//u3238/f82/hfs+9JA2+vNvGfF8c0yHb+7wz7ehrA67kRuaIRaXVNwB3BuSwcGJ7vBZ9RAQ2w/eCDD+TVV1+VlZUV/Q4uNyi7ZGJoNr0UYwSkAbpWNGK0edLWmdloPwNeA14DXrOBnjbAQths1tR3935qT/7AF6TWCbo3Y7u+pVdk78lXmpXh18utruCLyvu3n1Vld/+J+vE6lfc0wOvcE/r58Dq3htu3lxR4v/a1r2nFKEDB3VIHmAYBXmBVfYOfKm3Oh/eVV17R28zsE/hdX187UDodpDrlk//daz/wuvfc9gAZ4Mm+OgGUz/zg2eu7nJMDO3eun376iUK3c0vw74dtXTv4AdK/jf81208SeHudF23izotn1z7unNxnfJ+0ZO7ceXb75DzcuXZ+z33f/zxp4MV1ARClFDA25FwPjgywHv9gd+TOfeedd+S73/2u3LhxQ/1zeZ9zxG+XFGPsf2en1nPsG8TNBsRZPw3eTwa8Bjs24ZkNdLUBz3e3Lo1GVQPMPlrdOaLu4r7wVx9XpRN0WYeffOUBL68d+L52pyl/9HrpyD7+3RslSVUfq+qEf+2+BrEdVloDYN2ta/8zbgidfrsOet12KLDdsjTwOd8nO8TLL//8YP9kGgB2/PDDaz/ouNcOjnBpACScH6WDXncM/lv0Dq7cZw5m3ft+4OV33Ptue/+++K57n+91gmfndzshDtBlfz/5yU/0nB3Qsh+3X/fc2Qb+3/K/5pgHBV63rfsNzoE//zmyTef+O8+rc3u+4/74rts/z+4cXdvxzG/yGe1Ddgi2cdu5/XR7nhTwcoFZq5WlWMwruHdmXujBuMfe5u4CeXRxb7h06dLTXLoe6FYqlkvXIHFwSJyntjLgNdjpCjvzZOR2Lqeb3Dx3hpoCLxXTXrp5NFjtv/55QQPYtvL7Uts59CcEdguNJ3IzuqsKL59RbW05uaeKrgtc4/l/fq0odxK76r/L4t4JvH4XhPG+3lc3BnWjeEJU+yEoDfua3LtAb+fD+UmS1WHYfU56ewemqKMAHv9P+jfnaf/jBl7cFwgWKxZzCrou80Knn26njfX6H9cHLr5ee+01WV5e1gpptVrJikbYer/Q670Brw2AhR4ABsO9YRjgpUxpvV6VfOOJ/PBy/Yg6C7ASlPbHvy7JW/da4sAXRfdBak/++pOq/H+fV+XDRzuykd+X/+ej4/6//8M/F+VyqK0KL4s8AOp3aRgv5D4+yAShYL3b1kIRo4LYIdgCzUcfAMuhAnx6qB71GO374237cQIvoFso4LqQO0gxdlrQxfr4Li4Q+O7eunVLc/Tih29zXe+5ztpmMdrGgNeA1yZCs4GuNoDq1GxWpFarSKH5RH589TjwAr3/5c8KCrN/82lV3nvogW+2/lgV3m+fq8lffFCRzzba8swXx3P3/k+vFuVaZFeBl+pm5ORt7zQPwHQSwEtGhl2F3fEpr0fB9ij0ArwewIwXugxiz649xwG8rmhENksu3WrXzAtHLan/f+Tj5cIRP+ZSify7NS0DbkC3GEBn/XxyPxvwGux0hR0bOCcPnEVoHwe81WpJau0n8vpy85jCC/D+b78pCVkZbkR35e/P1+RvP6vJL5ea8uwXvK7K19+vyJv3WvL9S8eBmcwO6zncC/Y0r+ikgdfB7lcaaDY+YHIqbzdlzn3Gs0HqfLTBKMDLRSS5dNPppFSrHuh6ttEfaHttQeYFL5cuxShSYkUjbP5ehDVq2HM04DXgNeA1G+hqA7g0sDhXKgVp7z1W1wMyKwC5/j+At9j0fHhbe1/JncSefPBoRzbz+0Kg2//+VllfU13tP33h8Pv/0XM5+b/eLUul9VjVrUq5fKJLQ6lYPKb8NhsNefaZZzRFGEFqf/InfyJbW5tHtivk8/Lnf/7nB9uw3QsvvDB2+Oyn8pprw3zALhctpwFe3ApwXaC4Q7lc0qpo4wBd3BdQidkvY3VYCLDtDY4XxQYMeA12bII0G+hhA+TgrekiSlaCUGFf1Vw/7PKawDMC1Co7TzQjg1OhCFx76UZDKEPMI1Tcl//jrfIBLP/Ln+XlhWteWVNuw9ZrNQ1e6+bD++6778hf/MVfHAFZ3B0A3gcPHuj7Dn4BYF47dwgHvO+++64C9aSUVvZ76L7gWsF7dp8FMYDNVOfhQXwY4CXFWKmUl2w2JcViQVoUWekS5HjUYnr/hy15uXSb6rqAosv+FwVa7DwN0E9rAwa8Bjs2UZoN9LQBFmtUo3K5KOXWY3n1dlO6qbz/7S8K+tnd5K7EK4811Rilg4Hdtx+0dPXO1p/I35/33BpQd//dmyUhty9+h8VCQSH18f7+kaC11dVHAuyiyvJHmqXLly9LuVQ6AFoHtg54n3/++SOfEQz09a9/XQDeSfvSArSHSu5RaDmqAA8PWQamwWmzQYCXsUPQJ+4L2CAuB4Cqd8F11DYG+c9dNAHMpVJRKBpRKuUE16PTAoB9z+BxkWzAgNdgxyZLs4GeNsBiSnANt2IJ9IqU9uXfv3uo0vrVXtwV/tc3SxrA9v9+VtPXlBf+YGVH05Q9yuzJM+e8wLX/6qWC/OJWQwGUdGQAb5sqUj7g5X8Hup3PH3304QHUOtBlm/fff+/gfUCYXLu5XFaB178PCk9MCiABWw+sj2KMA5ZJQ/ekzsv2ewjcJwEvoNtoVJ4WjfAyL+CjPirokmqsXC5LoZBTRZffWSRYsXM1OB/VBgx4DXZs0jQb6GkDLhcvShLJ8BvtfTm/1ZZ//UrxwDXBD72dr0lbRrGJf7pcVxD+L35akP/khbz89adVSVX3hepq+VxO3RlIFQak+l0actnsMej9zt/93RGodQovz6i7zqUB2GWfwAa5ch2w4b+LTy8qmXtvnM+m8h6C4TjbNUj76ga8ACi5bgFSsiRomj21vcMc1e4SCHjNZDLq3uDe6/bM3YJ2u62gi0pMnl5U41EXfvu+weMi2oABr8GOTZ5mAyfagFN5c7mUVColqbX2hQC0f/Nasat7Qyf0uv9xY0DZBXa3C/u6kONf61d3O4GX//Hd9auzuDT4Idf/GoXXBa6RkaETdoGmDz74QLcJhbYnArz8hnNf6IQYVD7g21Te2YZiP/BSHY3qZcAoPrqdoIsbgysPjPsOoLu5uSmhUEgD1zpthP+xD7ZF0aUMcKGQVdWY31pEULFzNkAfhw0Y8Brs2ARqNnCiDaDyol6Vy3lJp+NSqZSlsbMv+Oh+85Oq4L/7L35yNHODg1yeAd3//Kd5oYwwbgyq7O7sKARkUbmaTVViHbj6FV7eA3aBXvx3eY1Pr9sWYN7e3jr4H4UX9Zayqs8884w8++wzkk6nJBwOKdzu7LTk2Wef1T9eT0o1POq+cBRp3GcWwDa70AvwMi4YEwApoOvKAHsXM16f09fFYlHL+1IEYn19Xba2tqRQKCjQHrUMUbcHQJd0Zew3n89ophRzXzDgGwfwLfo+DHgNdk6EnUUfIHb+3kJz6NqQlVQqpknt9/Z2pdR8LO+v7Mg3PqnKH/26JFROA4D/1csFwX+XDA7/5ztlee5KXe4l9zSgizRKuCpk0mlp1OuaOQHfXQexncDr3ueZ4hT+/10GBqcAq7q7ualpmv78619X+I1EwkfSkk3SncEP0L1UXqfgofQCRP7v2OvZaA8ulrLZtIIrwWi9fHSxAUr8vvXWW/LRRx9JJBLROxtevx/iLv+zD9RhfM4JdMMP2BRdA11bg8ZnAwa8BrwGvGYDA9nAIfTmJJmMSjqdkEqpqH64zZ09dVO4uN2W9x7uyFv3W/LJhSCZuQAAIABJREFU2o7m5M3VH2t0ugbdlEqSSiYFZbcb7AKzJwGvH3a7v97X4DpKFC8tLU1cyT0JUIEYS1M2GwB7Uj/6P0OV50KFTAlcuPUCXYeybLO8vCyffvqpvP/++7K9vX0seM2lGAN0M5mkFo2wzAvjgxwDRmtLZwMGvAY7A8GOMxh7XuzJw0FvtVqQrY2Hcv/ODdlcW5F0Mi7VSknqtao0G3VVsQBcwIBbvfgw4mYQj8fVZxc3BqDUr+w6gB0FeFGdySbBbWSU3ElmY/CDUK/XQG+vVFROAfbUvvkCw17tMavvO9Clz+gvngd9sC3gyzhgPLgHF0P8z9iwohGLPa/aujqd/jfgNeA14DUbGMoGgN5msyzJ2JZsrt6TleVbcvfWFbl947Lcv3NTVu7fkXBoW+KxmEQjEf1D1SU4jeISpBsje0I32D2twnuQkWF3N3BuAiiCwE3nwynA5ssbXNh3cOtAt7MPh/3f9TmgWyqVtAxwsZgdavwZHE0Hjqyd56+dDXgNdmyyNRsYygZ22zUp5ZOSjm1JIrwhse1VCW+syNbqfVlfuStrD+5IaGNV8rmMRpkDuSi6u+32iaB7WoX3AHb3gF2Ut2ABlIOcbqog7wHDbBO0417U46Ev+KNvxg263PUg6NPz/81q4JuB1fyBlfVpMPvUgNdgZyjYsYEczIE8rX5pt2tSLiQlmwwp8AK9qeim/iUjG5IIr0ucv9Ca5NNxadarquSi5vZSdB3ouufhXBqIlnfpx4IHuw4aj4LtUV3w0M/XoNe111k8Tx50K09z9Ga1mAt3SqY1bu13Fnvetv73+t+A14DXJl2zgYFswIPd1BHYBXh7/WUTISlkElIuZKRaykm1lB/rX6WUk3wmKZHtDamUC/Lk8a48eUKRieD97e21VdnDj9NTcw+hF9WPogK7u61AHnsQ23Ocx0Tf7Ow0pdmkQprnf36ouh/20zCv6GP2oYGaT6ujUZCiXi/L7q6VAjYAMwA/Cxsw4DXYGQh2zsI47TeDMykOC7u9IHic74c2Hsr1y1/Kw+UlqddKgbZj1LxKpSCxWFRIY+V/oP4S0JdMxsSi86dn817BiIKqrv48up0XJP6+6vfaD7oETno5enOWYszW2UDPT4uy1hrw2kC0gWg2cKINAGHlwuDK7jihtte+YqE1uX3zsty7c1OqlfxM+EJSPCCbTUkmk9bMDX54otgAxTHK5cKJfbEoC9Mkz5OLj1LpsGDESXl0/X100ms/6FKyOpfLaHU0ygBbLt3pXcRM0m5s37Pfjwa8Bju2wJoNnGgDO62KZJPhnq4LvaB0Uu/jK7x8+5os374utWphJmDXLZbc0o7HY1pgoBOgqL4Vi0UMkCY0HpvNqpb/pagDiu44QJc+dK4LZF1wwWitVs1cFybUj24s2fPsA+i0+9CA1wblibAzbYO03wvWJLa315B8JhYY2AWigd2lG1ekUQ+2G0M3W0YtB7hSqdSx0rLk643FYvq5uTaMbxwAn6T+olAKFxXkxO2VG7nzIuSk/3FF8Xx0S1q+mjLAKLoWjDa+vus2huw9a9/T2oABrwGvAa/ZQFcbUNhNR4Xgs0mptcPulxRoVy6ek3qt2PWYTzsRTvN7zWZFldxKpXIkgI3b4rxHKWQgbZrHNI+/hQuJA12KOwC6qLGjPgDddrutKfeSyYReoNCn89iGdk4Gl/NkAwa8Bjs2UZsNHLMBcu0WMrHAwG4quiXhjYdy/vOP5f7dWzOtoqHeogYmEnEFJz+AoTyi/lJi1nw/h4cN1FVAt1TKaVEHsl84RdffzsO+9vvokkc3nU4q6OKiMk9AYOcyvM1Zm81OmxnwGuzYhG02cMQG2js1KWbjgYFdVODttfty8YtPZXnpmnB8s77IAGXxeFRvsaMYugdgReoysjnUAp55Ikh9wEWEA11cRgBdfHRHdV1woEtlNK9gBMFoGc2jG6Tzt2OZHeiyvjq7vjLgNdiZeXiwCWR8EwgwWcolAgW7ka1H6sbwYPnWXMAu9uoyBQC2+IH6H0BaLpdVlReIM/vubd+ALn6zXtYFYDQ/NtClHwDdcrn8NL2YFYwwW+xti9Y2wW8bA14DXltQzQbUBoCwajk7cGGJYf1vT7N9dOuRph9buX9bWnPmJwmskXs3nU75eVdfcxs+kYhp7l4Lgjq+kNJ2+M12phcbh6LrQJf0Yi6PLq4L/KZBzfG+sDaxNpkVGzDgNdixSdxsQB4/bkmrWZZCNiaZ+HYggtSA3bu3rsrqw7tzewu5Xi9JKBTqWoyCQKtUKqEK5qwsKJM+TuC/0QB0cwqjQOm4XBcc6JKyzIEuv2W+1AZ0k7Zr2/90bMyA12DHgHfhbaAl5NrFbzcTkIwMqeimPLq3JCi75Np9vN+aSzsF4MjdCvR2ZhAgEwBpysg0YCrvjoJusZjTog6TAl0KRvAbVjBiOgBioGftPE0bMOBdeNixATfNARfE39rZqUohYLC7sXJXrlw4J7HI1tzDHinIQqEtoRSt/0HAFMUMotGIUDQhiLYzjWNCZS0U8GlOSblcPMi6QPuM8jhUdIt60eGBbs1cF2xNXNixNo3xfJa/YcBrg9sG9wLbQPtp+rGgKLv4+YbWH2hGhrWVZdmZg4wMg0zw+Ihub28dS1OG6huPx7Uk8SD7madtUFnJiEAKMMCfALJRfXQBZNqUfeG6gP80MM1Fh6noJn7M0/ixczluzwa8Cww7NiCOD4hFahMWeKqoZRLB8NkFduPhdblx9bw8uLckuwuWoYA0Zel0+phoSZoyYHhRVN6dnbqCLv7LQClw2unucayRBniDfZARAyU9lYprLmSgepHGvJ3rYs/5i97/BrwGvDbhL6gNEKQWJGU3EV7XjAwUlpiHXLvDLi7cug+HQ5qHt5PfAOF4PDK3KuTeXksAXfyVKbpBerFxVEbz59FFJaa8MEU/aOth+8e2N1g0G5htGzDgXVDYsYE72wN3tP7zgtRyqUggsjGg7FIyeOnGJa2itoiwS3+S9iqbTUoymTymaBLAtrW1JbVaca6gl3MGdMm6QPCeA91RXRcAXc9HtynlckkyGfZNHl2rjDba3LHI86ad+6zbjgGvAa8pHQtlA176sXw6GhhXBjIy3L5xWe7dubmQyq5/EWk0ylqBjWIHnUFZ3IoPh7fnIk3Z7q5XMIJAMVKAAbqtVnNkH10HuqjDgK5LLwbomo+uAZt/rNnrxbMHA96Fgp3FM3Cb1A77nAW/1ShJIUB+u5p+7P6SXD7/uRYSWPT+QvHklnsikegawBaNRiWXS81sJgHOzysYAejmDnx0x6XoArqkLAOkKxVy9FrBiEUfU3b+h2vAoreFAa8Brym8C2ADwG4T2KWwRICC1B4p7H4moa1Vs8OndkggFQFbhUJBnjx5csSdlwC2SCQstdps3ZrH/oBPp+gCpcDpuECX4hO0F4oubUPWhUVf3O38DfTMBo7agAHvAsCOGf1Ro1/E9qCwhJdrNzgZGbbW7svVS18o7LYXLCPDSTYIHJbLeU1HRoYC/wMAJoANIEYtPWk/QfkMdwKC0SjqgJvBOF0XPNDN674JRDPQtbkuKHZvxxE8WzTgNeCdiUXTJo/TTx4AVK2SC1RGhvDGQ7l57YKENlcXJtfuMDbMBQBQm8vljgWwAcGxWFShmL4dZr/T3BZFF/cMr2AEqquXXqzTN9kP9IO8RhVGHcbvl0A3QNcumE4/P0zTJuy3rJ/O0gYMeA14A7tgnuXAmJ/f9lwZgpSRIbK5IjevXZStjZWFD1I7yc6q1eLTKmvNIxxIPtl8Pi/JZFx2dxuBG7/kCwZ0U6mkVCplzX3LMfcC3U4V+8jJ+v5hHw50geharTQzKvdJ/WyfGQSaDUzHBgx4DXgDt2Da4B/X4PcyMgC7mXgwXBmi26sKu+uP7gcS1oJke2QyQOVNpVLHVF4KKMTjMS3QEBSVl6p4+bznbkHOW47R74O8t7enwArDAr/43C4tLcna2poPa4+/BHSBYhTdZDKhynaQ+smOZVzzle3HbGmyNmDAa8BrwDuEDeA3iXsAFcrq1YI0GiXZD6QvpQ92AxKkloxsyOr925p+zCpcDTaxo5ZSjKJarR4hQYCRNGWJROxM05QxHrzKaFkt08sxAbpAqv+xu7srGxsbsry8rOr0ysqKPHz4UEsG+7dzrzk/57rgSgDjB2xAMJjdWDtZO5kNHLcBA94hYMcM6LgBLVKb7O01FHZzqfCBYnrr2kVJJcIBu7UaPNhNxbYUdkk/FgmtG7gMOO8AlLlcWn12u0EkRSpwH5h2ABvqs6uMxvH5SwB3ui7wP4F2H330kfzmN7+RGzduKPR2ng+w6wddMjlwbmR2WKR5xs51sdcZ6//J9b8B74ALjxnh5IxwFtrWBX4Bu9lESNJPXQQ2V+/JtUtfSCK2HZjE9pQMVjeGgCi7VFLbWr8vF7/8VLY3H5krw5BzDn66pCLDb7fzgfKLa8O0SuVyLKjOLr0YoIuie1J6MdwayB/82WefyYcffqguDJ2wyzbsg6wLgG6hkFPXhSD6KM/CfGXHuNjrlfV/9/434B1y8TFD6m5I894ulLsFIv2wC8jxB/TevnlZ6tX8mUPv/n7TSz8WEJ9d2md7/YFeFGxtrsheAIOsZsF2SVO2vb19rBgFkIh6ms2mpN2eXAAbiq7Lo0uJXue6cBLoOjhHtQVks9msploD3PHn5XEIunVViQFdCkagHs9Cv9gxLuZ6YP0+m/1uwGvAawtLHxvgdnG5mO4Kuw56CcbKJELq8uD59E4/XRQqNNCNCu2O66yft9fuy40r5yW8tWbKbh87O2kRxQaTyZjgwuAPBAMagUmvGEVx7GN5b68lXh5drzKal0e3daKi60C389nv6uBcFyikQTCaKxhB4NtJ7WCfzSZoWL9ZvwXBBgx4R1iEgtCBdgyTnUhQTBV2k2FJxz1F9ySIBHrjkU1JxkNT9at0sJtPBycjA0Fq+DhTRc2U3dHtFIU1FNqWWq12hCUBYNRTAtjGqfLW6yVBzQVGKxWKOoyeRxfQRd11oEsxCtwxDHRHtw9bC6wNzQZOtgEDXgNeU1R62IDCbiElWWD3qfvCIM/cwl+6cVmS8ekEswUVdpdvXZUrF85Jo14yG+thY8MsUPQzmQrwh3UuAY58yYIQCoX082H22W1bFF2CxSjqgI/wzs54QNf56ObzOSsYMQZ76NZ39t7JwGPts9jtY8BrE4/BSBcbOC3sAsSp6KZsPFqWG1cuSDoVnahfLxDUqBUkFyBll4wM929f1yC1zITPf9EWMALGotGI+tA62HXP+NVubW2euuoYSisZF9LppNRqgK6XR9fviuB+a5hnQJeCEVSNS6cpGFGe6t2PRbMRO9/Fhjrr/979b8DbBXbMYHobzCK0jR92s8nQUOquXwFef7QsVy58LuXS5PKHtpqVQMEu5w/sX7l4TpKJ8ERhfxFssfMcucCpVAqq8gKknY9wOCyZTHKoi9hWq6agS5ELXBfY76iQy3EBurhBALoUjOC4O8/H/l/sudb63/p/mjZgwGvAa4tQhw1QWELTj40Auw58w5srkoxuSKtVkcePxxvIRiBTtZI7yAnsfvOsnlG2t9buayW1WHjTVLwOuxrXxN5u17WsMNkOOsGUALbt7S1pNrG33osptuNVRssIZXoJRnOKbidED/M/x+MUXYLRgO9SyfLontQX9llvO7W2sbYZpw0Y8J6wKIyzoW1fszFw2+2alPJJLyPDEH67fSEzviWNelHVXlS6Ue0BFbpeKwztX9z3OE95zg528V2msIQFqU3O3p3K6+XfbRzjUdKU8Rlg3Gln5LUFdAlGw0eXEsDtdvtYZbRjO+3zBqCLXzHATW5eXCMMdCdnA539av9bW5sN9LcBA14D3mOL4qIOnN12XSqkHxuDstsNLIHCm9cuSjYdG0n9BHjqNS/9WCYg+XZj26uydP2ShLbWDHanMKeQjSGdTkgmk1FF1c+jKLWRSETK5cKBS8lhwYiskBkBf99xgC4ZIlzWBUAXkCZnsBWM6L/4Luo8a+dttnFWNmDAO4XF6aw613538InlCOwOkH6sG9D2ey8V3ZK1h3fk9s0rkk4Sad8c+mJDYfdprt2gwC7px5aXrsmdW9csvdSU5hPsoFYraSoyMin4XRt4DdDG41HNoduZR3cyoJuTahWIPq4q2zw0+DxkbWVtZTYwORsw4J3SAmVGPDkjHrVtd3frUi6SfoySwf1z7fYD25M+T0Y2FXrv3LoqmXRsKOBVyHnqXxwU2E3FNuXOzSsapEZGilH7wr4/+DjhggnXgVQq2TVNWSKR0GAx0oBVKmX10e0s6etXhgd57VwXyAVMVTQrGDF4f5ltW1uZDZytDRjwGvAuNKTs7TWk/DTXbiaxfeqMDCdBbudnKKJkMghvPZJmgxy1g/n0elXUglNYgvN69GBJzp/7RDT92CkUa1sARlsASFOGklsul4+pvLg2uPRigK5fBR4Ebv3bONClYAQAbQUjRus3s3trP7OB6duAAa8B70ID7yHsnj79WCfQDvI//rzJ6KYGnQG9BKGdNAEC5oVsPDAZGTjHtZW7cvn855LLJg58RU86B/ts/BM8qj9+s7EY+Z73/YyqrwHVcYFuLuf5/5Kv11wXxt+XNj6sTc0GJmsDBrwGvCeC1jwPQFwZqKKWTUwXdjuBOBMPye0bV6RW7Z6nFBiulDLCdp3fPav/11fuahW1fC5psHvGcwj5bSORsBZ3OEa8I7zhsi5QtpjUZfgCn8bvfJ7nEDu3yQKKta+17zhtwID3jBercXam7WvwyUEV00xsYhkZhgXRh/duyYVzn0izUT5yAQLsVsvZwKQf47y0sMSFc6bsnvHcgTtDNptSH14C17opvI53yaZAujL8evs9XB7dbDYjqVRcKpXiEZu0eWbwecbaytrKbCA4NmDAe8aLlg2GsxkMWo43FQ6MYgpIAr2Xzn8mlTKJ+luqptUc7AYk/Vg8tCa3r1+WWGTL1L4zmDtQWL3KaBSMSGtlNLIu+N0WAFbSkgG3u7u7mrrszp07sra21lMFdj665NHFR5eCEaQXs/npbOYna3drd7OB8duAAe8ZLFpmyOM35GHbFOUU/90guQkAvSv3bsntG5elWS8dKLtBycgQC61pRoabVy9KqZgxGJri3OEKRuTzGS0YQZAaoIty2/ngs3Pnzsknn3wi9+/fV9DtTF3mvuPPo1soFARV10D37OenYecz2976zGygvw0Y8E5x0TKD7G+Q02wj5y4QtGCwyOaKKs+ZRCgwQWqJyIbcv3tDbly9oIUzCJaaZl8t6m+5ghEEppEZoV9lNAB2Y2ND3n33XXnrrbcUdrtB8SHo1rQyGunF8AXe3T05eHJR+8HOO1hzt/WH9cdpbMCA14B34cGFohOe2judtGTOvxd1OZeKSiGTkGI2KcVcUgrZhOTTsTMPpHPHyDPZJFYf3PYKZqSism/pxyY+ZgDdowUjyuqe0C+PLp/H43FZXl6WmzdvSjQadWKuPjvXBRTfYjGvGR6sYITBw2ngwb5jdjNrNmDAa8A78cV7FgYFGRsoKzwN9wF+A6jNZxISDW/J6qOH8uD+sty/d1dWHj6Q0NaGZFNxBWFUXj98nsXrVarD3bgsFJawKP3JLnK0LxXUisWcFnaoVEgB1pZ+oOunWqCW77RaLX32f+Z8erPZtNTrJauMZ/O/zf9mAwtjAwa8ZuwLY+z9wFuV3glDL7CLihuPhGTp1k05/+WX6mv50UcfyUcffSgff/yxfHHunFy/dk22N9elkElKNnF2wXXx8Lpcv3Je0smIKbsTnitQWguFjAaNocD28tH1A+ywrwlo29raUveIfuPBPp/sxY21r7Wv2cB0bcCAd8KLmBn0dA161PbWMsMazDYZ94ZCNinbWxvy5RdfyG9/+1v58MMPu/4BwJ9//rk8vH9P8unEmUBvIrwu1y5+IUvXLwu32EdtW/t+97EA6OZyKaGwA5XRxgG6qLyowp3+u7yfz+clEglJu219ajbZ3SatXaxd5tEGDHgNeA1kOmxAyw0X02PPfYsbQyIWkU8//bQr5HaDXyLt11cfKfROw93CuUwAu1cunJPL5z+Teo+CGPM4IU7znGq1subRJb1YrVZTH12AdNQHBSMoAUzeXYpG4MbgfwDB0WhEf9tcVAxspmnz9ltmb2dpAwa8HbBzlp1hvx2syQC1t5CJjcmHdluq5YJcunixK+xevnxZrl271vWzL774QlLxqGSTkTEdy9aJ+0nFNuXqxS/k0pefSqtZsQuiMc8RFIygclk6nRJcFzqB1A+nw7x2ldEA6HQ6oW4L8XhUSFPW+QCwQ6FtabWq1r9j7l+bx4M1j1t/WH84GzDgtcnOFrwTbEArsmXjJwKiU0VPei5k4hIObR0ALS4LqLdXrlzRAgEuKIm0U0tLS6oCs41TfR8+uC+5NMcxGVcLd+zJyKamH7t2+cuepY7d5GHPgy8khwUj0lowwoHuqIou33eKLmnLMpmEphejb0gdVyxmNWsDAWz+ByovwJ1Mxs1d5YTxbzY+uI1bW1lbBd0GDHhtsjPg7WMDQG8xlxgpg0OlmJPr168fACyq7fb29pEoepQ+AAYYyWQyCsMOeC9duijZ9GjH4KC21zO5dlfuLcnSjcteYQnLtTvy2PAXjABIybpAP3f61vphdJDXfJ/94LpQKOQkl6PqWuHY8bbbdYVaqqe5iyq3fyAY14ZKJa9wHPTFyo7PgMpswGxgFBsw4O0DO6M0rn13fgYn7g2lfPLU0FuvFuUzn+/uhQsXJBwO6y1tBz9ALj6X3G4GjG7cuHEAyJ9+8olk06f//V6Q695PRTdl/eFduXPrquRzSQOgEecFAsJwXXAFI3ArGBfo7u3tanBboZAXVzCily8uKi8gjGsDZYP9ijJ2R3U1VN6dndoxWLb5a37mL+tL60uzgR0x4B1xYTMjWpyJpN2uSamQeloUYjjXgkatLL/1uSig3J4/f14rYVEoAMjN5XLqx3v37l29De3UXZ5xb/CAd/x5eVPRLQlvPJRbVy9KJLRuuXZHmBP8BSNQXrlwweXAXdQ4dXXYZ77PftgfoAtID1owAhjOZJKSSqWOqLzsk4wQyWRC8/5a9bzFmcts3bK+XkQbMOAdYXFbRINZ9HMmV2+9mpf8kMFsKLyd2RlwcQBCksmkqr0ovvwRwIbaS05eB734+05K4Y1sPZKbVy/I8u3rUinnTek7xZwAVFarrmBEXqrV8boueKCbU0WXghG4KgwzFhuNirov4DvMA3hOJPD3rWiaMlTeRqNsyv4p+n6YfrBtDTTNBs7OBgx4bYIbauG0wbojmraMXL1DVEHDh/fa1asHAAvIArbFYlHVP243o/Li0vDgwQN97ff5JbvDJHx48du9u3RVywaXS1kDnlPMB9VqQRVXlNdx5dFFfcUFwgPSrIIu0Dos6LrxinqLKhyJhIXiE7hY4FaDDT58+FA2NjY0TZnlWz67xdj1lT1bH5gNTMYGDHhPscCZMU7GGGehXQGHRr0o+XR0KH/eQiYh25sbR4AXBRc/XfKlAiEEFa2urqriiwLHa6fwPrh3b+xZGnBluH/3hgapVco5g90h5wJ8Y72CETmp12tjKRjhQBclNpvNaGoxQHccIIqfbjQa1osqfHfffPNN/bt586baYCwW1bLG5tqwuPPbLMzBdoxmn6e1AQPeIRe50za0fW8eBmlLmo3S0LDrBYZtS7mUl4sXzh9ArPPNxdWBqmr84boQCoVU2bt//75ue+7cOS1YMe48vMDu9cvnvfRjlpFh4DsdtVpJ8+gCpGRJQIn1B4MN65/L9nyf/aDyk0c3m00LoNsrGO2080mzWZHNzQ2JRCJqa+R+5jWgzd2FZDI2Frg+7fHZ9+ZhnrRzMDsOpg0Y8BrwDrzQL/YgbkmrWZZcKjKUsuuyIPBMLt5kPHbEN9cpuL2eKT+8+uih5DPjTUkG7F78wgpLDGPTAGiaTBmZtCq6AOqoDwe6uLSQF5f946M7zHENuy1QG41GD4Lg1tfXFdx3dnbUhxygH3aftn0wF3jrF+sXs4FDGzDgNeC1xa2vDfhgNzFcdgY/8PK6mE3K1saafPbZZ5p5oRfo8j6pyO4t39WywtlEeOTiF+5YIpuPFHZrVjK4r+2jsFKNDMUVRRcFFneTURVd57qAQsx+yaJA1oVpLE74AVNljSInuNKg8MZiMVV58SmPRELSalmasmn0hf3GIYxYW1hbTNoGDHj7wo4Z4aSNMOj7P1B2R4RdgDMT31bojYa35fq1q3Lu889V8XVV1VB0geHLly7JxvqqFLIpySbHB7uhjYdy5cI5ubt03Xx2Txj7+MwCfRR0oGDEuCqjeaDbVnAmDV2vghGTHhNUYCOAjbRkQPzm5qYGsjkAzmZTZh8n2Mek+8f2b+uu2cD4bcCA1ya1qahKszp49/eb6rObHSIjg1NSez0Dvbg35DNJCW9vyIP7y3L71k1ZunVTlpfvyOb6qmRTcQXjYTJB9Po99350e1WuXzmv6ceajbL1e5exj/qJ64JXMIJct9WxFYzY3W3r/lzBCBTdcfvoDjrOOM9UKi65XFaDJUmDh7qLco17xdbWlgawDbo/2278i7O1qbWp2cB4bcCAt8uiZ0Y2XiOb1fYkWp2cu9lk6NR+uw42uz1n4iHJp2NSzCWllE9LOZ+WYi6lMOxcGADeXDKif7wHLB/8//T9fCqq77G/br/De7HQmiwvXZUHy7ekNqVb57PU7/6CEZThHS/oeunFDgtGlAIRGFavl4XMDAAuGUJQn92DzCF8dlZAPku2Y8dq64XZwGzYgAGvAa8pfR028OTJruzvt6W905ByMSPlQkaBtJRLqeoKnPKHSguA9oLMUd8HcEv5lJQLOSlRtauYlRJwXOT/rJSLOSkXs1LIZ/RzYDlzxNd3W4Dctj5vAAAgAElEQVThbCIiK/dvy8r9O1KtoCq2pd1uyt7ejnCuizxZA3QorcViTiuYcXufYDQ//DkIHObZ+eiS75aKa5QABjBPm0d3En0E5OO6ANzil+x/0Aa4POD6YNA7G4v5JGzE9ml9P082YMDbATvz1Ll2LqeZrDwYXFtblUePVhQQ47GoLN26JZFwSAq5jDxaWZGN9TUp5jPilNjjcLutMDwKEOdSUf29O3duy4Xz5yWdSki9UtLbzRcvXNDKWcvLd+Xzzz+TO7dvSy6bViBPx/jtkEJ5OLQl9+7ekUhoS8+lVCpo7l98hS9evKABU48fLyb0ko0A1wWUV/Lojgt08YutVMoKuYAuqcCCBLr+eYHqavF4TP13OwPxgPVwOCTNZnWhL4r87WWvTzOn2nfMboJhAwa8Bry2mHXYQL1e0QwK5L+tlotC2qYXXnhBVh4+lEw6pblxv/zySykV86r+ovQCp7gmFLMJVX7LhaxUywWpVYq6jbohpKKq2KLa6h/uC2nPV7daykutVDjYFoBWV4VMSt5//3157rnn5M6dO1KrlLQS28svvyy3bt3SXKq8Ty5fKmbxu/xWpZRXCP7FL34hr7/++tMCBjXhnN555x1ZWlqS27dva7T+Iqq8KLqkF3OuC52w51c7B3mNouuBbkUvIgBpQHEcBSMmuVii3ubzaUkmE3r8/nMlgI2y12SQMJU3GAv2JG3B9m19PO82YMDbATvz3uF2fidPajutmhaIeO/ddzVbggLv2pr84Ac/kIcPHyjwAowUiUgkErK6+kjKRQ9sqYxGuqdataxwTOYFCklsbW5KvVJUdfbBg/vi/jY31hWa+c6XX3whH334ody6dVPKxbxCqwPed999V379618r+AJplB7+2c9+JlevXtXUZdFoREH29u0lz90hn1I4fuutt7R87BtvvCHFYkEVYfZDQQsAp1wuyc5Oc6HcGlB1yXeLn26r1RrZdQFQBnQB50wmpVkXJlEwYpLjdmenLslkXKi+1unK0Wo1tTrbtFKmTfI8bd8nz33WPtY+824DBrwGvKbwPrUBVKx6raj+sYMALxXRUH5RwVBZX331VUmlUrJ89668+OKLgtvA22+/rbCst4brNXnllVfkJz/5iSq2fAbAXrp0Sah4RYnX733ve3JveVmVXj/wXrx4UZXa5eVlBd6XXnpJwZV8vQDtBx98IKHtbVV4UY8B8XQqKffvLctvfvMbBd67d+/o65///Od6DKi/qVRiIYCXFGMomakUhR1qmn/Wr2YO+xrQxQWCPLrsE9jFR3eaCwZBlZVSWhq1gjx+3Brpt0ulvAapAe/+B8FsXgW2eODV6mm2vf2WwaHZwOzZgAGvAe9IC+W8DHrSj5GRAZcEAsIGBd7nn39eHty/Lz/96U9VyS2XiupeAIgWCSwrFQTAvHz5srSaDXnzzTfl4YMHcnvpliq2uWxGCvmcfndtbc3b9tIlqRSyBy4NKLxXrlzRfL0ff/yx3Lt3TwDecDisPpb8v721qW4MhUxCUrFtCW2uyvrqA1lfXzsAXhRgjhd3Bvw2cYvAxWGefXj1IqZe1uAsVG6qiY3ivuBcFwhu42IF0J12ZTJAt92uSaWY1oBJqv+1d0YrFLG721SVlyIYQK7/QZthL7hpmGvD7C3y8zJH23mY7Y1qAwa8BrwLD7wKu7W85FJhL01YPnMAvBV8eHu4NKDw/vCHP1T4xH2gkMtqkBnKLn8EuAG8r736quDzW6tVFTJXHz0S4BPf3EQ8ru4Rb77xhvrWfv/735dLFy9qRga/wov7Ar7EKMQ3b9zQ34xFo1KvltRPGB9gYD0eXpc7t67I7ZtXBfeMjY31A+C9e/euvPbaa3pLH8gFnoHp3d35m0j393fUh9bLp+tVSMMn9TSwy3eAwHZ7R10XyF1LwYhp3+YHdHdaVamWs0Jgoj9QslbJjVwoAnAnMwNpyvwPIJ8cvbg9UHVu1EXHvj9/48361Pp0FmzAgNeAd6EXMJdrF9jVHLcEnz0FXoB0fX1VARNXA1TWhw/uq2sB1dCcSwO+u4DolcuXpVQsyLVrV9XnlgwKd+/ckZ+++KKqwCsrK+p7m0zE5c5T4KXCFRAKxK4+WhHcDKiyRgqyTuDN53KqyBKEhisFvrukTMsmI0JhjFR0U+4uXdXCEjs73LbfOQBesjPgVoEPL8Fum5sb8qtf/UrdKUjBNguT1aDHSEYE3AuokEb5XG7Td/qm+oGu1+tD0CXrAsUoSC9G1bXpFozARluNstSq+WOg66CXany77fpI/Yh6S5oy1NxOlRf3DVx3AH1TeQ1uBh2Ltp3ZSpBswIDXgHekRTJIxjzssXTCLvCg2RbyGblw4bxmYyA4jQwIQCmKKKBL0Bo+twDve++9p76ya6urquqiugK0uArg1sDnvCb1Ffv5/LPPBLeH9bVHgl9uMpFQ6GQb/j9//rxCsh94L1y4IKizlVJBIuGwAjeKMoUByAeM2gfsrj28o2WDq5W89inAG41GVV0GeFutuirLnAfH8umnn6hv7zy5NBAwBpR6qcbq6qvbqep2+ql2Au9R0CWPbl5v56OATjPrgl/RHaTiHsrvsGOgc3t8nbkwQtHtfAD98TiFKqbrq9x5jPa/QZTZgNnAaWzAgNeAd+RF8jSGF4Tv4LPrlF2/UlYqZCSVjEssGpF4jL+ovnb/80xAWD6XkXg0oj6/fIdt08m4VIo5yWVSkohH9a+QTUutUpB4NCyZVEIhNZ9NSTJOKrO0ZNNJiUVCkkrEJBmPSCoR1dRmpBdDbU4lE5odgv0Cvd5xeDl6i9mk3tpef3hXYXdz7eERKGs2awprROIDtjs7Dc1QgK8m6dfmBXYBtUqloLlvyYFLIYVOVZf/yURA2VwUy24PtgGIyWCBootLxFkUjAB2G/Wi5DMxSQ9Y3ASVd2+PqmmnXwz53XI5L9vb2+rv7G8jXEIoUkGasqDmFR7l3O27p7cbaztru1mwAQPeERaHWehgO8buExFgkE9HtWywg119flq6l5K/5Nd1f/n08ddso24H6lIQVnWYACKKUQCrfMY26nKQDB9sS1EIl5cXSNHtU175YN7nPSDHc7GICL/Nn+6T33z6P/tG+QttPJTrV87Lxup9aTWBWP85467gd1lw/7tn/7az9xrFFRcDVN1SqSjNZvPgdjzQm8vl1CeV9wHdjY0Nhd7OW/aougAdwWgUiygUMuoDPG2wAzhbzbLmdFY7iG0d8dU9YqtdPivk4oJP+lEbGK5f9/ZakkhE1YWhUx2nHSORiLb5KL9h3x2uT6y9rL3MBka3AQPeI3AweoOaUQa/DQECItw9sBwOKPoBx7Q/j2w9kqUbl2R99b5W9Fok+0O1BnQJIgNUO4PSuAVPyjd8r/Gfxr2DgKxOiEPVJRMBWRyy2bTgFjFN1wXXZzs7VVV0TwO6frurlMi0MNo4pA3ID01+Yf+DtuMiIhaLmMo7YhuP2kf2/dFs3Npv8drPgNcmrZEXx1maOBR2Sxl1ZfBDwiy+jm2vKuyuriwvVPS8u+1OgBWqbregNCCWtG34W5OJAlWyU9UF5FCBXYox3BcI9pu2PRMEVsonNfBwHHYIMO/ujhbAhv93qZTVdqON/A8uLGhbLjam3Vb2e4sHKdbn1ufjsgEDXgPehVm0gN1qiawG4aFuE48DQsa9j0R4XWH34b2lhVPayH1LDly/+4IfyHiNjy6qLtXuKMpBJg2/3y5KJaoufrrpdGLqRSPcBA6Yjt0e49tSLqZHHtf4RZMJBL/nzgfKLynv2Madiz0bmJgNmA0E2QYMeA14F2LBQkWrlbNz4cZARoaNR8uydOPKwrgxqApa8uAUVRd47XRN8EMZn6H84sJANTSnUvI+30XVpcRwqZSbuv3v7zWlvVOVQjY+sQsvLUbRHg1GUdLxjwZ6ubjofFBaO5GInYn7R5AXVTs2gz6zgWDagAGvAe/UF/xpTwYABon5UdIIBBu32jrt/W2sLMvFLz6VzfWVkYsNTLsvhv09QNfz1aXYQ1ZaLUroHq0E1gli3f4HdPles+myVKSnXyFtr6lBhaVCauI2iJ3jJjGqa0O73dDy05QX7mx3FHKyOQDFwPGwfWvbBxMKrF+sX+bVBgx4DXjnfqEic0EuHZkL2CUjw/nPP9YgtVFhJsiTGgCFPy0psgDdarUie3snq7rdQJf3XFAa6cooRsE+p33uZAXxKqRNL0gS6K2WR6vARj+Qf5hiFLgxdKrq5OuNRsML5UM+bdux3zMANRsYjw0Y8BrwTn3xn+bg3dtteBkZEqGB85lOW7Ed9PfCT9OPkZHhLLIITKvfUHW9VGNZLYAwiqqLK0O9Ti7inJRKec3AME01knMh3zM+tYP28zi3w22iPWIgHrZGgGAqlTriB83FBO0LDFOBbZrtOi1btN8ZD2hYO1o7BsEGDHgNeOcWeIENUjRpUNCMuzKg7N66dlG21lfmGnZJh4VfbT6fU1AFqDpVxV5Krv99br+7VGPk1a1UplsOGNujFHB5Cu4LJwEyKi/uPKPAKN+lX5LJmBbkQDF3D/oGf2jSlFGgIwiLmh2DwZXZgNlANxsw4DXgnctFap5y7TrYDW2ujqzWdZsEgvIergbkwcX1AFj1g5UDrH7PABiQTA5eXCFQdckkQDGFaZwndlevFqSYS2hRkJNgdFqfFTKxke0G6C0Ws5JIxI+pvKQpy2QyWoEN0J9GO9tvGNCYDZgNDGsDBrwGvHO3QAEdKGtjT/fUpbLVpKElGdmQ5aVrsrn+cG79JOv1kuTzaVV1yaqAOjuKqoufLjliCXabHoC1ZKdVUdDN4j5zBrbS6zdReeu1wkgqLwsLPtVkZUB977wYIYsDn3HRMoqaPOwCZtsb9JgNmA0MagMGvAa8cwe8B24MAYKOXjBy0vukH3t496ZcPv+55LKJuesnAIpiD6QHIyCqX6qxXuoucMx3S6WSpNNJdYmYHuiy2LSk2SgFRtHtZlOUoKZk8aALQ6/t8K0OhUKaLcPfHwBwPp9Xt4ezKN7R63jtfYMhswGzAWcDBrwGvCMvgs6YgvBM5gJu4XZb9GftvbWHd+TCuY8lGt6YolI5ncmx2awonAJJBKWdRtEFuLxUY029pU5g1XRBd0fa7drMBEPm01EhW8Qo45QAtmQyLuTg7ewz3FAIYMP1wVTe6YyjUfrSvmt9tGg2YMBrwDvSAhikAUNGhjIlWpPBuqV8GtAOrT+QG1fPy/bWI+G8gtTOoxwLbgaoulRKQ9U9bVAaiiKFJShCQeU1fHWnBbv8Du4Ls+gygxI9Sv/x3Xa7LqHQlvpJ+1VeXpfLZYnHo3PrfjNq29n3DTLNBs7OBgx4DXhHXgCDMIBRdj2/3dmHXdKPLd24rIUl5iX9GOfRbFY1fVWxWBgpKI0gKTID4EsKPE/vFnpLFd1JVkg7zcXRMN/JpaNjUV8LhYy6NtAX/gcXMMlkQvh8WhcgQZh/7BjODmKs7a3tB7UBA14D3pkH3v+fvfdgbmQ5srb1478NxW7Eu7Fa7UpamZB0ja43c2fuzNB7EvQehvDee9CNyy+exDQHBEESBNBNACxEkPANoDqr6tSpkycvL+pNr90xYHZJUtt0LcmJ93Bs7MdwSSCJDHswgCogqX07vBU0dbrN62F1kT/A6uL76qQNFjHWqBWlkB19uUyjXuy7z7OAoeAE7gzt55JzHImE1Uu524nIvM6AFhMDJgbsjgEDeA3g7XvysztI7zr+NbAbd66K1UNYtW5fC9g92FmXjdVFOT+rjvR54ZwhX6jVygp0AakklrVn93cCt+2P8R7e26yUlpVyueDYljnArlbJq/tCt+dx2F+XS0UGwr5SgS0UCgrOGq0XzheSlaaF2fjIce4ah8xzBqyZGBj+GDCA1wDekQVWbJlWSummZnfEwW4qFpD9rTVZnJ2UZDw0sueEQR+QiNUYcgPkC5bVWCso6uY2zCFsMO8vFPLKEjca/TsNdDMxkdyF20cpnxyLBMh2EE6/6TexjP4H0x6Px1WL3XpOWaBEIhFNYOumvc1rhh8smHNkztGox4ABvAbwjiy4InEItiqTCI48KFFHhtkJSSXCA2HfHmtgIqGJLH3kC9VqRYFQL6wuYJektHK5JPjqwibCGNv9uwCBeNZSOKIdJI7TffXmrRb6bk/OdzQaUUu4VsDLbWziSG7jNXafN3N8A8ZMDJgYuC8GDOA1gHckJyMYuGGqZtUPGDpx78nq4qykkhF5O6KVqgCKlUrhKikNrS2WYb1cYHXr9boCXVhikt36ZSPvGwh5/mrHYMgKR/QTW3e9F/u+fm3KOC+UgsaZAVuy1gvnPxaLSTqdGBs9ejdxZF5jgJeJgeGMAQN4DeAdOcDLJE2m/DjYj/k9+7K2NCvp5GB0lY810LK1nc1mVH7QS1IaQAlWF9BUKBTUagxW14lMfyrz1So5tRmD+bwLJI7TcxSj4Hf3GzMwuKlUXLLZ7A2NNgsfv/9EGfp+P8e8fzhBhDkv5ryMSgwYwGsAb98TnpPBrmA3ExsLsBvwHsjq0qwk42EBdDnZjoP6LErJUoigWCyqBKE9Y7+V8bvrNnZWaHVTqaSDus8zwbEg/YRAbjtgZ+E4CJYXdj8Wi+o5bD/PAGFcG7AOHFTcmeMYkGViwMTAQ2PAAF4DeEdmEmLCLObGg9lNhH2yt7kqQb975ICA6lzrZZUvkI1/egpY702+gL4XFpCKa5lMwiErqzO5OK8KlcfaAeBTuw+jTXJev0w6789m05JOkwx33ZuX+yaBzYCTh4IT83oTM4OOAQN4DeAdCcCL/RgZ8+MgYwDs4sjgWp6XXDYxEu3PwAPQvbhoqFYXcENVLbLxe2F1eQ/vpdoaUggS3QY9uLUfT7//ee0jqzvaFnaDBObZREgatf4T2PBFprQw57Q1JrhNrMAAo8duPy/mvgE2JgZMDDgRAwbwGsA79BMQQKVazko2FR55Ri4Z9cvxwZasLc2plKFfZs2JQYLP4Bw0PXUpIJHvmdUF/MD4WVZjJKWh1eX4dv0Wjn1+XlX3hWwqMvIxNEiwax2LKoX9lrB+8wamPqOV1ljMtF4456lUSjKZpElgM3OObX3drjHEHHc8ALkBvGbwGfLB50ywHytm40KSjTVBj+q173hPK6klYsG+t5GdGoTPzqpSqRQ/Wo1Ve2Z1kS9YVmPFYl7lC3j22vk7Li5qmpiVz4x+hTQ7Y57dk34BL+cRBhfHBjTdrXZ0LHSowNZkgIu2LnDsjCdz7PEAPuY8Ps3zaACvAby2Ao5+BxYqjpXyCWHb1c4J34lj+9x7srG2KIl4aGTAbrVKGd+M+uGenfWm1QXskJQG4MGft1jMyfl5zfa4g9UlKcuJczuqn4GGF3s/FpX99lXeD5tOImM0GlVtdivLi847l8tJKpVwxFN5EL/HHONpAiNz3sfzvBvAawDvQCY6OwYIEouYjMcB7CbCJ7K6OCOjwuxS0Qxgms/nFKiyJQ1wfegFkIPVGMdhu/v0tGL7ljbJjTCWhtW9W6ecTYZVu4s+fpD9F513Mon/bvpGzJDgSGU2QLGdMpZB/h5zrPEEP+a8Pr3zagCvAbwDnewGNYiwFa2ODGPA7JKktr4yL6tLc7aDvX7bH+YVoIv7QqVSUQlC69Z0t4DXYnVJVspkUnpMuytuYa/FAsm4L9wNdGGjYb5hde0AnW/fnkujUZFQKKSLpdaYIS6QOyQSMX1Nv/Fq3v/0QIs55+ac9xoDBvAawDt0gJdJeHyY3SbYXZyblGolP3Rt3TpwoL/MZlNSKOQ1qawXoAu44X0weblcVq2qALp2ACvruwN0S4WUFo4YVWmBY987HpCz07LtkhpAL8VIAL3tcURCGxXYSFi0My6s+DDXBiCZGDAxQAwYwGsA79CBMLSX2cToOzKkYn7ZWF2UxdkJqVX7t32ya9AmcQzwkU4nldVFb9uLfOETq1vSY2E1ZqcLBWAJOy225nsFjJl4SIq5pFTLBWnUynJar0i9WpJKMSeFDPrf8am8BvPNzoldcdR+XBY6oVBAXT1aWV5uY11GMYp6fTDa4fbPNvcNwDExYGKgPQYM4DWA17EJsD34Ot2/vKhJPh2RTGK0gUYK+7H9TVlbnpNSIT1UbWy1OzZS5+f1K1YXrW07G9cOVDrdB+ii1cVqDK0uzB7ODtbnDPoaoIvuFKu63oFuUAqZhOSzKfG4j2V5aUkmJibk1auXMj09Jesul4QCfikVspJPx0a6GlsuFVHv4cdgU7GcCwT8quNujR3iLJlMSjodNyyvmYNsGysGPfaY4402iDaA1ww2QzLYNL1SYaFGHewmIyfiPdqRrfVlyWUSQzmhw77B6mYyGWXbemV1AS4AZbS6yCFwdbBrUgCw4dpRr+b7Yl6xtyvmUhLw+2Rubk5evXolv/76a8e/leVliUfCkk/HBUeDXgH2Y7yPXZJiNiGnjfKjxeDl5amkUnH14G1fTFFhLxwOSbVqrw+zXfFojjva4Mecv6d3/gzgNYDXNoDS/YDS9NotZGIjD3YBNn7PvmxvrEg6FZW3b7DyGp6BhQx6tLpYjaHVxRe3l7LAlnwBqzG0uiS64cBgz2+lFHCtCXT7BJ1NCUNajo8O5eXLlzI7Oyvr6+sdwa4FgmdnZiQUOFHQm+7z8x0BvvGglHJJadSKtkpKuj3XsP3IF0iCbL9QxCQSCRmbsiEaI7o9r+Z1wzOum3PR3bkwgNcMNC0g5UxOT8tSrzvJuJxpEs24FJaIBNyy7VoWv/doqBwZ0NKSOV8oNK3G6vWaVjxrByD33W+VL5RKePSmtVKaXQOu6nTrxYFZjKHXDfp9CnYBvDs7O+oNu7y8LNbf4uKiPm8BXq6XFhclEQ1LLhUdapYXPXOllBkKoGvFBOeQBVYiEdeiJa0xxs5CJBJRy7rHkFxY39FcdwcYTDuZdhrlGDCA1wBeBbwkLrFVHI/6xX20I6WSMxnUbFHjyDAOVdTiIa9sri3K9vrKUOl2ObelUl6LPiA9IEu+fXu5FYTcdhuwCyNcqZSV1aX6ml1aXcAPW/HlYrqvpLRWRpUt/lwmKQsL88roImXY39/X9sAqy/rLZrMyOTl5jfXV1+7tSm6IpQ201amji9XuJ3/iJJmMawJbe+zV683kNhbaozyZmu/efTyYtjJt9RgxYACvAbyCrVO5kJJcKiyxkFd2Nldkd2tNioW0rUwRoKZWyTUBzShsFcdu9zclSW1/xyXrq4tSzKceTTPZPoggYUCri3wBq7BO8gVYNipgkXR224XCE1ZSGtXS6nX7dKH4w1I4gmSrVsDa722S1E58Hnn9+vUV4D08PLzxkwH2fr9f3G63/u3t7WlC29LSosSjIckmB/u9+v1dsLrVCo4Y9pZpbo+th9ynr5dKOS0tTBy2XmjvdDql3rxofh9yXPNaA5xMDJgY6DYGDOB94oD37dtTBRfZ5KfSvdGAW7Zci1oG93B/0yYWDwavJPlMdOSSgToBlKP9TXGtzCuzOyxbs8gYqG5WKpWUxQRYcCHJzLoNqwmwo/oVwLf9wut4vSVfICkNxtiO3whgwwps0EDXOl/lfFo2Nzeu5AqwtkdHR+0/We/TFjDh/NF+8/PzMjU5qXKIYSpsUSokNZGPftztoP9YryNRMpNJCgw6C6jWC+2MtAFQ/Fjfz3yuAU4mBsY7BgzgfcKAF0CkBR5awK4FDmIhj2y5lmRpblI2XUtCBa5BDgaY3yvYHXH7MdoLsLs8Py3VISqXCiDNZtMKVFuBLNvHm5ubyvYGAgHZ3d2VQgGP4Het+ENvA0pg46i6Znnq2gF0iSvKAWdTvfvpWnF713WlmJWV5aUrqQKAF7B/34XEPEvXe+L1NG3K7mD77/oOg3oOCRC2bMPM6nYaL7Api8ejN3YTWFix+IrF8AoeXqa6028yj403SDLnd3zOrwG8TxTwwghZYLeV3W2dkBMRn2ysLmjhhPXVhYGBXgpLwOKNuv0YbQXYXZiZUL3pMA2MWEHBTLaCXW4D8H788Ud59uyZBIPBjljPYnXJoEd3aafVGGyxU4wpgHd5afEK8CJt8Hq9Hdug9cF2wFtIU5DidnmL3c/RXiwQhineuv0uLLKz2aSkUslrsUl7E5+JRELt7Xhdt8c0rxsfQGLOpTmXdsaAAbxPFPBWihnVzt4Gdq1JG9C7vb4kK4vTsr2xLI1Gua+J6GKMwG404JGVhRkpFTN9tckgOzhAgYppJKe1gl0ABdIE2F0A7/fff69by63ADqDLe3BwyGRSks/bUzADlpiKX8V80lHgWC5kZGN9/UrSAOD1+XyCHywlcI+Pj7XdYLZpB7bZeY4CCTMzM5rIhnevFqJ4BMCbTYSkXEjLKMgX7oppbPGi0bC2NTHHhWv+qMAWi0X6Hmfu+nzznAFVJgaeZgwYwPsEAS+gs5CNCxOoBWzvuqZEbiRwLK7lOdnbXpNqNd+ThnOcmN2I/1hcS3OyvbEqaBOHYQBlKxj7J8Buu0bSArypVEoTspAzxGKxK7CBpAH5AsltWI3B6g5avsDxiIFKMd1V3N0Vk708V8gmxOt2XyWtAXhJToPJxo8Xm7KtrS11bnC5XKrbRfZg2ZMtLi5IPBKUnMNJaxS8YDdmVFnd9r7BogxteTwe00WFFZv49CK5SafTqvWF/W9/r7n/NIGKOe/mvA8iBgzgfWKAFwN/MuDvY3Y7AQpALxKHvW2XpJJNFqZbUMTrFGR30At3+qxhfgwni03Xouxsrkq1kn/0SZkSwWdnNfXYBTR0AruKbD/+s1g17mIRdXnZtBrDo7dcztviHwwrie0djgKPdW757GwqIXNzswpiAbzIOtAwU3HNAradrgG+uzvbkktRca27hWK/vxOgi3xBfXXHDPwBZhOJqNrbEYcksqGTJomQhVg4HLRl0TWISdMcw4AvEwOjGQMG8D4hwAvYLReSXTO7nSbssPmAzxgAACAASURBVP9Iwd7KwrR4jnelXru/lCxgt1ErKNgZtfKs7W0QD3vlYGdd9nfWpeyQV/FdgytsGYlAMGbV6v1gtxX4Aoxh1GB1sS6zw1NXgW6toKCtvS0f434pn5ITr1vLCU9MTEg4HNZkKVwYOgFd67GF+XmJhQGgMUcAO/2EhSkWbd0uKu+Kk2F8jl0E2r9ZYjgs3333nWrLkZbA/iLNGXSy7DC2g/lOowmezHkbvfNmAO8TAbxoJrEw6lbGcBsYwW8W0Iuud3l+So4Pt+/U2ynYpVJWevTtxxJhnxzubsjB7oaUCplHByIwu5/AbvVeZrcd7GI1hqdurVYeuCzDArr4Ow/TIof4L+XSsr+3q966VFojkW9qaupWwDszPa3+vfkM7G7QVsDL8SmxXatQ9nmwzijDNkGzWMOmLBqNysnJiZ6DlZUVQXaD3hzQy0JsXAH/sJ0P831GD8CZc/awc2YA7xMAvFZhCbZ0BzFhN0HvsexsLMvywpTc5tXbZHYpCzv6YDcVDUjAc6AFOQpDUFiCtgXsotmt1R4OdrGAymZTKoUY7KBJqeiKFjKhstltC6fHfJx+kM8kxeM+kvn5OU1GQ79rsbmt15QUDgX8kqfCWpea915/G8ev1wrCTsxTAXkksAWDTT05MYlLAzITkgZxGcGmjNcMNkYfNkmazzbtZWJgPGLAAN4nAHgBIHicDtIGLBULCF69fs+erC7OaDIbDg7WRK1gF2Z3DMAuACbsP5bVxVnxuvdtrT7X7cBaqwFY0+qocJ9mt5XZBUgUiwV976CT7axzroUjbGZCewWV1vsA4/l0QpLxqBwe7AsJaROvX8urly+VaVxdXRGf1yPZdEJlDHbrdtkBwZva6j/dxsGov47fi7QBkAurS+IkiYSWN3QymVBpw9u34zHhjvr5Mt/fxOEox4ABvGMOeMnsZovULnYKtpdkNuQNrpU5cR/t6PZ4s7BEbCCMsgVSHus6FvTI0tyU7G6uDoXfLgCBUqzobzsVjGgFuK23AbsACVwYBp0Bf3bGogpvZWcSugYSC/GgKPDNJKSQS0sxn5VSISvFfEYK2VQLq2ujjCEekEa9OBSLqMeayAC9MLmZTEatyUhgswAwMQ4DbIe+/LF+r/lcAxpNDDxODBjAO8aAFykDzFG/ut1uwAXJXDC9VGY73NvQLe1ByCe6+Ww7X4Ml29zUK9lcW1RLrcceqAC7sF6NBpZNN6ujtQLc1tufmN3UQMEuOtP0kLO5dsZHP8fOpSOalPbYMTUMn99oVNQLGYCL/7FlF0cMA4QjkdDAdebD8LvNd3gc4GPa/Wm2uwG8Ywp4YXadArvWpI/EYXNtQXY3V5TZHXXAm4ycyNb6krhW5h89WxwWrFIpSDrdBLvYiXVzwYKsqYcsKrN7fj4Yz2DiK5eODlyjS8zghECCWC6F9jukVfm4X0jbt1NhxbAT17Dg1QrJWKaamAU8iO9cLqUaXiQ6xLdln0f8AoBLpZzR8o7pfGXFgbl+mkDUqfNuAO8YDiAkvTyW5y2MKH9OAAc7PyMe9qkuedO1LOdnj5s0QzZ7pVKUTCatzG4vYBfbskFYPCGFaMpVBg92OZ+A3VIhr9W2CvmMUB0NiQHVt4r5nJTzGUnHgj0sqIL2MNHKbncneQDo0i+RMADwnBrkR+VzTk8rEo9HNVnNArvWog5/6VAoILxmVH6P+Z4GvJkYGK4YMIB3zAAvYJeqTBSWGGSSmp3gctiOjS4Zr93drbVH1+xaYBc3hofIGAAMbA03rccyfbsxAHQBasSWneeLamgnJz4tfRwM+KVSLsj21pY8f/5cotGIVEt5KWSTn/4+MsHKCqdjqsklaY77MMTZZPN2IZOQfCYhxVxSCpm4Po/URx0bYJTv+WuyzRawbVZb0+NYx80mro5rHYvnrc/id9Ur+Rat7oVgK3d5eSpv317Iu3f8Ddfk4PT3YRFA4ZNEIq4JbBbYta7j8bjucJjFwtOOE6fj0nze+MSbAbxjNMkwEVCVSe3HEtbkHLAVoNgJfh7j2IDdE/eerC3NCvZj7x6RiWuC3YJ65fYCdnFjgNmlCluvgzbfoVbNaxEEJ86Hlv/1uOWLL76QE59XnRJ+/ukn2dvblWq5KJVSQR9fWVmWtbU1CfpPpFzMSzQcFP+JT0r5tFRKefF53ZJNJ6WUz0jgxCvrrjVZW13R13DceCzaZI9zKYlGwpJKxiWXTcuJ1yPHR4f6Fwr6pVYpiddzLPEorg7NohNc495wsL8nK0tLsrG+LuFgQPwnXnF/fK/7+FAi4ZB+D/fRgXi9bslkUnJxcSpv3pyr88D29pbgBgHAPztDk21AL7sQqVRCyz23a9RxcNBFjw1lr3vtH+Z94wOGzLkc3nMJtmn96/VcGcA7NoAX/9OyFLLoHA3Y7RWc+T37CnY9x3uPKmVoB7sPkTHA7FI9rR8ZA4NLo1aUUiHl6ILJAryff/65rK+vy4sXL4QqZ7lMWuqVkvj9J/Lll19qpTRY32fPnkkoGJSFhQXBSxeXhVKpoK8JBAChPvnpp5/0uZmZGaGwAUUmeG2tWlKgOzs7Kz6fV8LhkL72l19+UYaZ0sMw5FQAU8Bdyksxl5JyIaff6YcffpDpqSmZm53V41Ke+McffxS+O8fg+3/11VfKTvPZ+PvyGUhT+Hxew2fwe/b39+Xduzc9L0x6nQCG7X26aK8UtOgEi7zWC7sW+XxeZQ+D0qIP2+8332d4QZc5N49zbiiM5PcH5eTEr44tkUi4Z29uA3jHAvA2wW4xa785fq9AchTeFwm4ZWNtQdyHO9Kolx4NfDDpl8tNZvf0tKEJPK0T/223AQQXFxeSz+cU7Pbqs6tgu5TWnQKnz5sFeP/0pz/JZ599pkyvx30s5WJO6rWyADJ/+P57yWbSEg4FFaAuLy8rcATY8hgD4h/+8AetoDY/NyfPfv5ZErGI5DJJyWVS4nG75Y9//KMkk3HxejwKSNOppISCAQW6+PJOTk4oIKUYwt/+9jf9nNWVZQn4TyQWjcjf//532dnZlnw2pWxvOpWQRDymhSz+8Y9/yP7+nuRyOeE2AHtvb0/BL1XdYHa///57dR6o1Spa+OKf//ynnJ+TxGZY3ouLhjLguDO0e0zj1YvkgQpsxKkBIY8DQky7m3a3Owaai9+ibG7uytTUokxPL8ri4pqsrW1JLNbcLXvodzCAdwwA7/lZRZNhRsoDNTZcUotYyCs7mytyfLgj9UcEu3RgdIzZbEZN+B/C7Fpgt1DI9Gw9hga8Ukw92i6BBXgBivPz8/Ltt9/K3NyseuQ26lUFkDMz09KolhVowpTCnnINMP3m66/lm2++kf/6r/+Sw8NDBcITE6+bPrvZhNTKeSmXCnqc1dVVWVxcFEBxU7rgVjY3Fg0rYwwDC+AF3HL8yclJ+fHHH1RK8Ze//EXBNYwv37layiko31h3KcNLkt3l5YUAZAHpr169kq+//lqOj48EOQbHhj3+8OGtUN74d7/7ndTrJEcawEsfwKYMb16S1VoT2LjNYzzHax464ZnXG6BmYmD4Y4AdnJ2dA1leXpeJiXmZnFyQlZVtOTryi9cbkVAoKZlMXh5akMYA3hEHvBfn1Y+FJYyMoVc2MhH2Kdg93Nt89CQ1rJfY8kav+FCwC6PYD9hlImiyu00deK/t2c/7LMBraXgBiNze292V87NTQX7wz3/8Q1JJStAGFEyi5Z2YmFDWNBaJqCb3f//3f8Xr9QrsL2wq2f/FQk6fOztt6OMcF1mE1+uRWrUsa2urCpAz6aQsLMxfMbwwzRsb68oYA1o3NjYUBCNZKKGTzmVUE3x+Wlf2FkkDgMwCvAD3XC6r8gzA+8HBgYJyj8et0pNffnmmwP7iAucGA3iJQ9idfD4tJKq1s7zYlKVSKa0WaFje4QcvBmCac9RtDNDvWci6XNsKdF+/npP5eZccHgbE641KIJCQUCilf+Fw6mPuQ/ftawDvCANegqNcSBlHhj7YYpLUdjZWZGdzbSC2Xd127E6vKxazkkol5ezs7BqrdZuEgcdbZQxs85L13+nYD33MqtDXD3jt5b0AXkr6on1FPlCtlAQmFtBJclk2k1EG9X/+53+EP2QMVJ2bnp7W20UqpRUK8n//938SCgUlmUgomPz973+vMgY0wbC5AFJAMQxyPpfVBDPALOxruZS/Bnj//Oc/CxILZBJodFmQAFq5jzQCthdg/fbtG5U5tAJevjfMM4w1bC8gvFptyhg4Jt/hr3/9q8ow3r9/O5Bz99BzPayvR9oQjYa1OmB7H6BARZMBNhZvw3r+zPfqHoiZtqKseFX29o5UvgDQhdldWFgXjyciJyfxq79gMHkFehMJ/My7b2cDeEcY8NJJYHjzGeyXQmNRxrcXkNTPe0K+Q3Etzz+6ZhdmF+CGRrF1C7d9om+93wS758oSAnYBCIMcOKnUh29sP+370PdSYAImFkkArglIBSj5C3BNJuJy1qhJqZhXvSwsL64NjXpFNb08j0MDgDYZj0s+m25KGIp5yaRTqgut16pSLOQlnUp91P8u6evx+uU1+v4yzyebn3dal2Q8pn/odPnsUiEttUpBb3POSBCEzX3//o3KEgDE5+dor98KdnK8hsfQ6/Ia/tDrwvqywOFxpA2G3b05cSHvocwwrG7rBQeHdDotmUyyZ/nOIPuKOdbNc2faxLRJNzGAfIGEtOnpJZmYmFPAu7DgkuPj0BXIbQW83LZALyzv6Wn3xZQM4B1xwEtANTW8sU+gNz5c+tiHgh6nXh/wHMjCzGvxHO09WiEAtmRLpaZm96Fgl9cXi3lN4Ok1Qe2+AQnQW/ro6+zEeaGyGixvCW1sJq6+uoV0XP1zi9mkVl3DE5fbxUyi6bWbCEs+FRNehyUfz3M7r5Xagh+9dqNqK1avFpXFxd0BPS4gmWPh18t7csmIoIXHekzvp3hf8099fRNhXVjyGG3+/v2lvH+PDMGSIgB8Lz/e53bzfvPaeg0TofU47+f1ZnLs1AbsWCQSMUkmkzckPuyExGIx7T/sdnV6v3nMxJWJgeGMAQiaQiEnHo9XNbowunNzq7K/fyI+X+xWsAvgDQQ+sbzxeFbOzroDvQbwjsVE89GlIdec8A3bez/gD/uPZWF2Qo4PtuXyorvOMuiBk2IOMFj5PB22exkD2l7AbqFQsBXsWr8XeQP+zoVMbGh2EShBDDDVv3j3uxvlfFoSsajalaVTcfXifUiyJ0UtKsW0XF707m1stau57m4ibjSqEgj4pVartZK8uhOCTRmA2NiUddeWJuZMOz12DEDysOP1idWdl5mZZU1KOzz0y8nJ3WDXYntbQW86TVGf+xe9BvCOBeClE58p01stZ43E4R5Nb8R/LBtri+I+2h0CsJvrEezmBM2vXcxu+6AIg8ZOApXWHtvnGTaWAhPFnPWXUkYYOQRA+C4mmupqMMfFbEJZXBjlu15vPcdx8bg+bZQebTeg/Zw8lftMZCSwRaPRG9IGPKexKcNz2iSwGTD3VPrEqP5O5qtwOHwlX2iyumuys+PRpDQLzHZ7bSWwxWIZqdWq947NBvCODeBtDnYAEyZlo+vtzPLC7G6vL4vPc/BohSXYpkXGwHbOQ5ldXg8j7CTY/TS4nsn5eVWrriEdsMCg09eUCY6EwzI1Nal/2JRtbLgklYipHGLQ3wf5Qq2SU708C8tP7WEAhlNtwW4IVdZwImm/VKtVLehB0otT38d8jol9EwPdxwCL0UQiIUdHbpmZaWp1YXXX1/e7kjDcBoBbXRtIYGs07t55M4B3zAAvnRDQS9W1fDrySdd7D+s5aJAwjMfDkWF/2yXe4/1Hsx9ranYpDJGT8/OHyRiwKstmm2AXAPA4A+6ZsuKNelHymWapXafPdSGTlN3dXXVHwEd3aWlJbb7w462Ui1IuZK/0t9yulvL6VylmBUlDNhFWhpfnKsWc1MoF4Tm0vDC+6HfLhYwep14pyLnqwyzNbTPpzEo+47qpx21/vKntbWp8ec7odPuN10qlIJFIRC37WkEvCWzYlCFtGJRLSb/f1by/ezBk2mq82wqtLv2WohGWp+7m5qECXazGbgOz3T5usbwksOXzxTulDQbwjiHgbQ4gzS1oNIeq6X3i5YYBu+79LVlZmJFcBm9P55k6PhM3BViqhySoodkF7OZy+PNWh2Lrlt8C2wv7+RiAl2INWH4BcnB1mJ2ZUdC7uLAgrrU1qVWKUsg2q6rh5Xt0eKglgGGGS7m0VMtFWVxc0PK/lCvGgzcebSa/4QxxeHggW1ubgqvD0tKiWpxdXJzL0dGR+vGyYOHxcrkkb96cC566lAemOhiV1NCovX178fE4W+rMYCb2/ib2pvYvpQls7d68FF1B58vOiWnn/trZtJ9pv0HEAItPXGg2NnZkbm5FwS5ODLu7nnuT0roFu7zO7//kzYu0oV6/neU1gHdsAW+z0yooyeDgEH7SbK/veFeW5iYlFPA8mm4XHWKvYJfKa2dnw7dle3FRU+eEhyR+9QuQYXgBvPjakqWfTCa0SASevNvb2+p7m8tiM5bUQhV45q6srCgjPDc3J+ViXkLBoHrrUpWN9+DaEAmHpFYtyVmjqhXYfv31VwW0FKigVDCFIai2BqvMQE4FNs4nGlJ8diliAZPB+wBfFE3AY5eqasZjdzAgolYrqZaXamvtF5I48V52Stc+CFBgjjGYuDDtOFztWKnghrP5Ub4wr5pdWF2sxu5zYHgI2LVea4FeWN5CARKiM6FlAO+YA14GAtg4tqCv2N57Env6BSTD9n6S1NaW58TvO3o0z85slspQFIa4bJ+nb70Ps9toND6WGR4+sGtNMm8u6x+r/XWXANZvfFiA97e//a2WEP7v//5vBb8+n0+KxYJQKAK2lcIVFJpAO7a6sqKgloIWsLyAUADqd999J1tbW1qoggISFKLgOFR04zUwuABrqqW53c3Sw4BmbLIAswBejsPnAHRJyOD27u6OHntqakr9fg3gHcyEzFiGfj0ejwmsbvuFBUc2mzQs7xOY16zxx1wPpm8Noh3pn4Bd9LlW8Yi1tZ0bxSMsoDqoawvwIm+IRNKCrr9TQQoDeJ/IwEAgnqK7fGK63mjALVvrS6rbfQz7Mdq9yez2BnYpTkCpxUEMRvYe40xOVTduv8TBArwA0Wg4rAUjSoW8VIp5qdfKClYpJ+xyuWR6ekqqlbJ671KNDYALeAWsAnQBuFz/8MMPyhrD9ML6UqrYArwAYRjcr7/+Squ7cRxYZesYMMscA+AL4OWa4wF2YYOpzmYA7+Am5bOzmkpZSqXSjSItVGCD5TUJbINrb3vHDfM9x6F9sQUsFnOyvLyh0gW0ulZS2iB0ut0A41bQi7ShU0EKA3ifCOClUwG+GjVA79OozBYNemRrfVkLSzwG2EXDxCCAV+hDmV0mbtwY6vXyCIBda9KykiWj99qD9cPyWoCXEr6pZLxpSaZFJkJSymeu5AqvXr1SDW29VpGV5WWBmd3Y2FApwtramuzt7V0BXgv48h5AbyvgRSsMY3t62hCeBzAjaaCs8JdffqmSBhhli+EFbMMkI3VYX183DO+Ax1jGMSoTot9G2956YVcEHTXPGWmD1S/N9TiAymH8DfRFGN2trT0tHgGrOzk5L8vLW+J2h/tOSOsG6FqvaQW8SBtKpfKNXB0DeAc8GA9jULZ+pyboLYy9bRlJapt47R4+jtcuLgqAXbbYO229tk7SrbeZsD+B3dIIgV1rUj2Ts0ZJSxLbpestZJMqO4BpzaaT6qoAgEanXsylpFQsKJAFdFIOuFouyMH+viaTUY746PBAy/qSrLawsCA+n1eeP/9Ffvnlmbx48Vz8fr8ytrg/kACBbpfXXl6ey+bmpgJlktZgckmI4/FAICDr6y4tIwwgJrnt8vJMk9k4jmF4rfgYzDVgNpWKq6QEl4bWC9Z9ePZS1IXxrnX8M7cH0/6mHZ92OyIXYOeRPIXNzd0r9wVKArtcuz156lrAtZ9rQK9VdjgabZZ4b41VA3ifGODl5F8Hvc1SqfcZ9vfDyDn93mTEL0d7m+rIcHbqvBwAGxZK/haLRQW7Hz58aJ2Pb73dBLs1yeXINB0lZvf64E980e7VUlZ144M+/1paOJ+RXCalTgyWJzDliKPRsOxsb6scYWVlWa3FirmkFHJpyWdSWrDitF6Wi/OGbnnV61U5P29ItVrWP3wccVfg8VqNc/BGarWKnJ1hA3ehJSx5DQlsGJ1z3Xy8eTzu817ALlZkvJb7xpbseoy0TkK93CbGqtWianlZILb2MfpRqVSUZDI2lImevfxe857Bxo9pz/7a8/S0JkdHHpmaWlSt7tzcmnrqkpTWD2AdxHtbK7CRwNa66DWA9wkCXjq7gpJGWajMlkuNl4PD4e6GLM5OSDTsd5zdaTK7eZ1wYXZbJ+Jbka6IwFJROpXkttHQ7N4/YL59e6q6cZIlB72gAuTmkhEtLWwBaqqv4Y6AdAGWNZNOCEUq+Gy8d/HXpUTyJw/jCwWrANbrf/y29se43/q4dbtTO1jv7fSceWxQYIMxjP6CvKSd5UVCRGIhNoCtE96gPtscx8TxU44Byn3v7R0p2H35ckbBrlNa3ftAcSvLGw6npVj8tFNqAO8TBbxWZwWUNGqFsQG9J+49WZqfkljE77hfLT6hyBhgly4vHwZ2q9WKereePgIjbcWCHdeADa38l45eA6cWSB3kNcxvPpuSdDIuuUxSq64Bdvkr5ZP6PThHdvxOc8zHAUD0Fyqwlcvla+tJFppYl6HlrdevszzmXD3OuTLtPj7tzriOUwqa3efPJ2V2dlUtx+4Do0493wp6kTZcXDTHfQN4nzjgZRAieMfBtizgPRDX8lwT7DpciYw2RIpA5jjs0kOYXSbmTCYlZJ+P56RwJhfnNanXCqqzHSTIvX4smNyQsrkwumnAbiL0kdWtj2nbjs8k2kvs0+9YZIZCIXnz5s010EtxCiqwpdPJFlb/abdXL21s3mNiplMM4ISyv38kv/46rX87O4MtKNEvOLa0vFiVZbMF9eY1gNcAXgUCn0DvaMobgr5Dca3MK9j9tGXt3EAFYG1W3bo+6V6bgdvusA0L2M1m02MMdj+dA2IMazxLc3sdrAYGXLEtKMVcQqvBsYvRacA2j306N6PcFiSwod3GnaH9gr43Fouq3pf4G+Xfab77eMSrE+cRhyAn4p1ck83NHWV5JyYW5Ogo8Oga3lag/KnscFrLDhvAawDv1SSgoLdF3kBJYntByWBATujkSMFuJOSTNw4zuwxe6XRCmd32cqftk2/r/U9gF2Z3eItKDHpwtkAvuvFB63pbYxUJw5s3JJqZSfIptMH5eU1OTnxaqKW1n3EbW0CkDY+xEH4KbW9+43CNMSRMs8hzwoua8dzj8Qk6XqQNk5MLQwl4Ab6JRFYM4DUT4jVQYIHeAuWIPyaztQKJYbudjJzI4e66eN37um3u1OCr7dQoqxQB/WBvYDct46bZ7ab9te3qxYFXZ0O+AKtLueNuvod5zeAnas4t4JO45raTbZxKJbTUdLuciORRKrBVKgXHv5OTv9981uDjebTa9ELev3+j0h4SOdl1dGKRB7B2uSi8MykvXkzJ/v7JUIJevHkN4DWAt+OkRHJP08EhIsPK9AJ2j3Y3ZHVxVpKJcMffYceAxUTOVg5SBCQJ7drBdoap9T7MLglq6H3HxY2h1za2YqxfiQNMMU4QZ6eja+XWaxsOy/voE6eNsuSyCdnbdqklYLWcc6xP0g5IG8LhkNoBtoNeFqWRSNgR1mtYzon5Hk8JAF8vWY8XNSwvBVqcSNT1+U6uEthgeX2+2FCCXgN4DeC9dVJC+9hqW0YS0LAwvKloQHzHuzqxRsMnjnRqJhAL7AJYAbu9MLu5XPrJg11rMqY9a5WcJpv1InEALJcLabk4fzqyEKvthuX6/Kwq6WRUjg+2xbUyJ/s7LvEd72nyoBOTbWs7MMFT3vn8/Lx1nam2ZbFYTDKZpBhN91MCguP9W3X8rJUEgNt+YZGHtr1WK946x7f2nX5uwyQfHh7Ly5fTyvJubR0NFei1EtgM4DWA987OYAGSYfPqxZFhfXVBIg6DXYoRUPK3Wq0+COwCjBmADNi9OQFdxVj6AX698aBWC8RdhPf3M1ib9948J922Cayuz3Mga4uzcrCzLmH/8bVFcaWccfT8wPKiqSeBrd2blzLEwWBAE9i6/X3mdb3Hhmk7+9uO5DQWcVQ8ay9fT/yn02mJx6OOSBtwGZqdXVZpA3ZlOzvuoWN5DeA1gPdesACgqFfzkks35Q2ZRFAtnx6L7fV79jVJjcISTiWpKSirlSSfz1yB3fZt0/YVtnUfsItdGRIIJxIJRnGioX1P6yW1EMNa7K7YIv7YeTg/c14nOopta8d3JtEyeHIsR/vbsr46r7stlPPudN6wo7PjO9x2zEajrNu5FHJpv2SzWWW9nNA23vb9zOP2A8Gn1MbEMqC20yIPEMzOBgVanNhtCYXCVwlsePN6PJGhAb1UYDOA1wDeriYjAAkaSSpVKdsLKIkPxmWh0yR522PodteWZsVJGQODZ61WUnaWSRQA2y3YRd9LIYqnYj3W70SDs4IlcegUA7l0VD2jicd+P8u8/+HAg8kVN5T9nQ1ZX2kC3XZWt/28oa920jGDiZ2dFDx42/X13KdQBQtXJwCAibGHx5hps4e3GWW2iWtkdu0X5A7BYFCKxaztMU+fCgQCKmt4+XJWK7D5fNGhAb0G8BrA+yDgAKNaq3wsR+ww6AXsbrmWZHl+Wi4vnCskwGBCxitgt32blAzwRqPRPsbofSbXYrGoCWrn585931GfMBg0a+wotJQkRqtbr+U/OjAYsPsY5xit7on3UJbmp8VzuC2RgLsjo9sOeNFmVyvOJrCREEolKHZW2henyJFCoeCTdEh5jLgxn/lwAPvQNmPMBNAS8530vPQDYt6JXr1/CgAAIABJREFURGlkRRMT8x+9eedla+u4J8Dr98eFimnX/+J6LJ4LBBL6x/Ot3rt33TaA1wDeBwFeOiKd61oyW8x+pjcV88v2+rIszU1KsZB+8Hd+6ABivR6wi8ULBvbtYJeBZX9/X9gmbb98ArtpMWD34QM+DC72Yuwo5DMxLQtsWN2Ht6MVx/1cM4HB6q4tzSmrG/Duy23yhXawa93Pp6OOs7ywuIlEvGMCG+xvKoXu0Xg19xMb5r2P0yc7tTuxnM0mO+5svH//3lE9bzqdUmkDNmVLS5sPljaQZBaPA+Db/3L6WCyWkVAoJsFgVCgdHImkBRB8F9jlOQN4DeDtCTyqg0Mpo1WznLAtg1Famp+SQj4l7xzazq5WC5JMxpXB7QR2d3Z2VB/FYNJ6QfIAs4uMwYDd4ZkQOk0S5rHbzw8L23QyIouzE7KyMC0n7j1h4WmB2IdeUwzEyfa+uGho/83lYJfftXZRaXrzhtWb18nvZD7r9ngzbdN/2+B/HYtFOlrzMS9Fo2h9Kcpjb/XJN2/OVGIB4H31avbBLC8AdmdnX3788edrf7Oz8+LxnMjExJR89dXX8vnnX8gPP/wkbveJgl4DeA2gtW2SAfRWiummptemqmwwSUy06AUzqZgjGd8wiU0ZQ1LBrgVokTT4/X6t3HR4eKiDR+tEytYpzC7bR2gIMeA3g3j/g7hpQ2fbUOO/klfLv5WFGXEfbvUFdC1gTDEbJ6VIxA3FJvAjbd/mpd8ChFnQwmCbGHM2xkx729PeAM1iMfex0trptUUe8xM7lfhRVyr2W5WVSnmZnl5SacPy8pZ4POF7GVgLsAJ4j499srrq0r/l5VX58cef5PXrSTk4OJa1tXXxePxychKSZ89+kV9+eSHhcFLlD9YxOl0bhtcA4r4Ge8urt5CNN9neezLsrcmvm2sL7G65lrWwhN2rUgZhBgzALuwsg4MFdhkskC5MTk7K8+fPxev1XkuIscBuuQzYzTypcsFm8rJn8nK6XelftWpBPXXZTdlYXZBE2Nczo9upj2vJZwdlBNg2YVOGPVPr4hQkAMuL5MEksI1H/DrdX4b18+jHuDIkk8mOVmWU2mahh42Ynb+B70GyHCzvr79Oi8u1J15vdwls6HIjkYz+IV84PPTIL788l83NHQmHEypjoHJaLJaVxcVlZXlDoaautxPQtR4zgNcA3oEEPfqhcjE1UNAbOjmSrfVliUeDtm/B0PHpoIDdZhW0T2CXyZHJEkP7n3/+WZ49eyYej+cK8FpgFzcGA3bN5GnnJGLHsZs7GgVJxIKaFLq5tihH+5sDYXXbQS/ln+tVbMqcSzykKiKsFgvY1guLWXZjAL3GLtD0Wzv61mMdk3hmZyOfz12RNlbsY1WGxha9r927G4VCTpaWXAp6kTY8tOwwwDcUSsjCAkzxr+L1BgWgS8JaOIx2N6ns7tTUjEQiKcPwPlbAPcXPxXrIkjgwsfVjWxYLemR3Y0Xch7u2d0rOlQV2KSrRKUGNyZEV89bWlhwfH6vRNwwRYJcBpFgsqIzB7lXzU4wr85vtAyPEPbp4ygFvrC7K8f6WJCInA2V120FvMZdwVNrArg0LUfxIkRy1Xui7JLAhQTIJbPbFmenDzrYti1jkPCz0OvlR4yyEowPyB8YAu84P34Ok7/n5FXn+vJnA5nZ3L20IhZJydOSVn3/+RZaX14T7FtgNBCKytLQqP/30TOUPAGCLyb3t2jC8huEdaLBjW1b96NXbK+hNRk/UkYEJOJ+1P9HFGhxyuaw0GjfdGJggLWALyGXS5L71WKEA2M0Yza7pSwPtS3ZNQhxXY76cU5ux3a012dlY0SpplOxuB6iDvs+40Kg5WyGP5FEmf7Zz2y/YlGHcDxNsZ5ubYzsL+p56ewNksSrDn7e91DYEDonVxL3dVmUsJCk7jKyBv5WV7XuBKYAV1wXY3Lm5BdXvut1+ZXV5DKZ3cnJaWd/9/WNNWMPZ4Tagaz1uAK+ZpAc+yF9e1q+BXq3M9gDrsqO9DVldmpVcNiFvbVx9Nif+ZmJLU8bQuLH90z45Wvc/gd28agDt3hp66oO3+f2DAQsAXSqRHR/uyM4mQHdZ/O59iYW8tgPdVuCMTdn5eXXgY89tcWItatEUdkpgQ5+P1tf048HE2W3nwTzubPsCepPJmO5utGvYcW2gOhv2fHbHPUzy8vL6x4IUM3J8HLoXnIZCTWD7zTffKehFuwuLu7d3rEB3enpWXK5NZYABw7C/93nyGsBrAK8tkw6rumqZqmzNcsT3lYu1JkP34bZmh+dzSUccGcrlvGSzGTk9fRjYhektFPJSKGRtHyzMJOHsJDGu7c2k5jnak821Jdl0LUrId+g40LX6OddIG+zcTm0/j4BeknXi8bjuzliLV64BwZFIRLAibH+fuW/63yjHAFZl4XCw4+4G8xhWZSRp2/kb6XuQSrOzTdeGubn7yw7jwbu2tqka3ePjEwEAA3jX17fl++9/UJkDiWzPnj0XNLzBoElas/Uk2hkg43BsgvzivCpkZuPVe59fL2B3aW5KyqWsI2C3VMqpeP/09PRBzO51sGuM68chVsf7N5zJaaMs+zvrsjAzISHf0cDdF1qBbNe347CtFUfHaJJ5gsHAjRKs7NggTYpGw8Y725BAjsakE2MPch0qrXXS8/IY5YDtljawuAWs4trA38LC+p0sbzSaUasx3BcoLoF2FxYXSQPgNhiMSSAQ1T/u4+pgGF7TeR+986qWKJe4E/Rif4TnZ5HCEg6cM8AuySrt25utrE/7bSZFwC46QKyMMLZ34ruazzAMU68xcHZWFe/xngLd9dV5iYU8jkoX7gO/VNHr9bf1+j76figUumHZhK4RJxaYqF6Pbd5n+uqwxkChAIAM6xzWPrcxpwF67ZY2kNQ9O7us3ryvX891JW2w9LeDuDaSBgfA1bB2ACe/1zXQ2+bViyODa5mypQu2dzhYZwyxM5l0D2D3XIpFZAyAXWNW72T8mM/qHkgQ4416SUIBj5biBuhi8Xcf+Hys589OnU0WoyBM07Ipf0PaYBWXMTZl3ceb6Zuj0VZ4UicSMdXtsrhrv+BikkhEbZ/bqtWSJq99YnljdzK9gwC61jEM4DWA1zE2A9BbyickmwqLOjjEAhINetTgHpP7SpkSoPYNHnw+ml0YnIcyu2S5NjW7BuzaeY7MsfuLf1xSKAfMbgl9yu/ZG1qgewWw4wFHE9iIsVqtpNnr2DO1X9j5IXvd2JT1F4umLw9X+7EQrtdLGtvlcvnGYo/dS3Y+cHbgtXadP469urqpLO/k5MJHb15nQK8BvDYCLLsCZpSPq169pYwUc3EtSew+2JbtjRUpFdK2drIm2C2oETdgF3lCNxdex+sBuzDD2BuNcvub7z5ck9CgzgfgjETPSPhElhemZX9rTZI2++leAdYHOLDc9h7KDts5yba3M+2VTieV7WrPXmfiD4dD6mPq5Hdq/47m/nj21cc8r8QzpA8evCz22udBLPqwMWNBaGfsoyl++XJGtbyzs6tyeBhwhOU1gNcA3kcAcCSz1aRezUs2HZNy2d4V5XWwe3qjk98GfNn2OTs7FYpRUIHtMQcq89lm8usUA9j2AXSDfresr8zL3taq+I53JTUAEHobOLXj8Uw8KKeNkmN9jMkctost3kqlcmNMoAIbvr1ooDu1u3nM9MdRjQHkeM1y26kbhViY89DzAojtlPXQ//b3j668eVdXd8Tns5/lNYDXAN5HHtDt2zphQLJkDJQ4fAizS8fHvYFiFKx2R3VwM997fCdmWMpUIiwba4talfBEga5/+CUMt4DxQjbuqE0ZYwMV1qigSMW11gsepdiXZbOAAvsqUZn+Ob79c1jPLWATRwZKalN8ol3PS1+gT2BVhu7Xrt8BoN7Z2Vdpw9TUouzuem0HvQbwGsBrW0Db1VG6PS4dm4xs6ok/FOyy3QPYNdWXzITUbbw59ToFatmEHO5tyaZrSQ531x/VT3dQjC+6/lrFXh1/+zmCwcWbt9PEzxhAcptZ8JoxoD1uRv0+c2OlUvwY37VrOxzIHOr1urK85XLBNmkD3wFQ/erVrEobZmZW5PDQb6u0wQBeA3jHFvAWixkFuySctWuVWtmc1tusdptgN2O7L+GoD5rm+zsLBJgg8Kje2VxVVvdgxyVh/9FIaXXvA8dOs7zWopgtXLS7rRe0vRSlSaWcLZBh+pWz/eqptvebNxSDSOtiL5tJy+SrFzI3MyWlj6wv/eHNm0v58OH9LX/v5N27y77wAzkxHo/3yrVhY+PQVpbXAF4DePsK2GEdLPL5tORyOa0h/lCwyyTHls/bt2bgHdbz+9S+F1ZaJHeuLs7K7taq+umOUlLafUDXeh4tb6WUsY1V6hQ3aBopv0p5YWt710roQdYEGGanCHDc6f3mMTNOjmoMADgvLy/k+bMfJRwKitdzLLNTE+I/8cn0xCspFgpyuL8r3339heztbitxNPX6V/n6y3/KpmtV3r9/23efQNqwv3+o0oaJiXnZ2/PZxvIawGsAb98BO2ydHZ9cJq92XV4re9N+22J22WIxMgYzgQ1LTAOy6rWirC7PydzUK4mHvCOr0bVA7X3X2WRYfYSdPAe1WrMSFUCXi9/vl/X1dS27mslk1MoJ03wnv5P5LDMOOREDMLif//2vkk4lJRTwy7Mfv5PAiU/++n//Kwd7O1IuFeXbrz6Xv//1T3JxcS6RcEj+739/J9MTL+XDh/4BL7+RghhIG54/n5TJyXnxeMK2gF4DeA3gHZtBXLd8y3nVBbVvT7YD3Nb7Ftg1CWpmgnFigunmM0hIw5eacsBLc5OyvbEsqdjoJqTdB3Lbny8X044mi6GLxqYskUC+8Ea2t7flq6++kmfPnsnx8bE+zkLaJLCZMaKb/jtKr7EALyCWPwAvbO9nf/+LwOaWSyXZ2dqUf332d9nZ2pCL83OZmXwtrtXlgQFedrB2d/evyg7v7LgN4B2lIDLf1dmBEbCLdRgMLduQ3V4Auwj0KUZhklOcPWemj9xsb+L4tFGWE++hFo/Y2VjR4iztgHDc78Py0g5OxgjSBvx3C4WCbGxsyPPnz2VlZUWovoZ1GcUoTk8rjn4nJ3+/+ayb/fEptEknwNs+fzJPkgvz7t3bFj1v/xre1vYNhcIyNbVwJW3w+aIDB72G4TUM78gP4IAEwCqgFfBK5+zmch3sGp/d1sHH3HZ+8js/q0o6FRXP8Z6sLc+J72hXUtGnw+q2g/hSISWXl84WeqHKFNWm3G63WjOdnJxoLgCsLxXYSPKBfTf9w/n+YdrcnjbvBvAiD4xEIh9t+uzRsmOB5vOdyOvXc8r02pHAZgCvAbwjP3hjLZTPZ4QqMe1Vk24DvoBdmBsYYcPs2jOQmgmqu3ZlOy8eDYjPfSCulTk52FmX0MnR2Gt12wFup/vVsrMJbEgWYHIBt4wlJL6i50Uihb6XSb9SKYz8mGn6Znd98ym0UyfAS6J3e7I3O6csBqk4CslkR9swFq6srCvLSyW2ra2jgbK8BvAawGtL4NrRGTodE7aFDkhtcFiY9k7aCfAykQGOTYKaGfQ7xZRTj725bEgiFhLPEYzurBzvb0rQd2iAbkthimwiJOfnzlY7owJbMBjU3SKYLRJq0PZSjIJk2EQiKhcXhuV1qp+Yz7F3nO4EeIl7vOvbL8yzyH7oI3adl1gspolrJLBRkMLjiQwM9BrAawCvbYFrV4ewjgsbg11QsVhQR4aHgl2sx6xjmWt7B1XTvtfbFyYjFPDIyuKsHO1uGKDbAnLbmd5yAbb1evvZeR/2qlDIChMvi2gmeZhdAAD3o9GokMBm53cwx3bufD/ltn7//o2UigX559/+rAlrJK19/82X6l9frVY03ltBLzuj6XRaS3LbJe1hXmeR+eLFlPrzUnbY6x2MntcAXgcH0qfcsQb925mUYHbz+WzXXrtNzW5NdXgm+cRMKIOOyW6OR2JUPBZUT92NtQXxHu2MVeGIdrA6iPt489Ju3bTvoF4DgxuLRa4qsCFpsORSAOBgEJmDs99pUL/NHMeMfVYMfPjwTmamXstf/vj7K8D7tz//QVwrS1IqlTSBk3mz9QL7S1niXM6+stv0v8nJZgIbdmUbGwcDYXkN4DWA19GJxOpo/V6Xy3nJZNIKdtlqpPb30dFRxw5KZ4X9RYNEYpthds2A32/8PfT9ukArpGVjbUlcy3PiOdxWT92nnJT2EDCcTYUdtQTjfFFWNRptMrutEz4AgAk/kYiZBDYzf47k/GmNXwDel8+fyZ//8N9XgBfwuzg/K7VaVUsPd3I94jH6BqQTFdus4w3ymmNb3rxzc2sD8eY1gNd0WFuCdZCB334s7MeSyYQCWCYffDI/++wz+cc//iF//OMfNeGkdYIC7LIqLRTygsF8+/HMfQOA7YwBwFM+l5SFmQnZXF2URNhndLp3SBhuA8LFfNLRvsuWbSoVFwpPtLNcML44OJiEVzN22Dl22H1sJA3E9s2/d/LmzblkMkmda5HytF54fT6f110QKqXZ9T3T6dRApQ0G8BrAa1uw2tEJ0Pek0wnNmKbT4Q24sLAg09PT8urVK5mZmZHDw0NlfK0OSmctlYrq5GC2Ic0EZUdcth8TkIvNWCGf0sIRy/PTcrS38aSKR9wGXHt9PJMIycWFc9XOOIcsrnFtwO6w/cKEH42GhfKs7eff3DfjzDjEANICSmvjVsJ823qBREqlkmpVZpeeFzA9O7t85dqwudmfa4MBvAbwjsxgTafCBxMxPXo6tlUQ0AN4/+d//kd+/PFHFbv//PPPCnrpnLwOzR1SBlMa1ExCdk9CgCQKJmQzcdlyLcnq0qzs77gM0O2B0e0EjEv5pG2WSJ1igwU2Yw42Ze0sF2MLCWxYInLeO73fPGbGnGGPAWLX+uv0XVn04cyAjWf7hTkYQFws5myRHPG9kA/9+uu0gt7FxQ1xu3svO2wArwG8IzFQA3aZWGBq0ezCuExOTsp3330nv/zyi/ztb3+TH374QZleSoJanryAY8CundsunQYJ89jTm+jevjnVcsCHe5uq08VPNxEx8oVOwLXXx3LJsJyfOeuuguYfvS7V1lqdYLjNYyS38Zq3b59ezJtxbnTPOYs5ypfnsgldoLMbVS5lbyzeeB1zL04lsLqtF1jfYrG5C2JXbky1WpKVlQ2VNuDNu73tFp8v1lMSmwG8BvAOPeAF7LKCLBbzVx1ueXlZAS7s7n/913/J999/L7/++quWAqU0KOwLK1LYGbs6ohnsR3ewH+S5g4Wo1YoSCflkf3dDNtcWJeQ7fNJV0noFtPe+Lx4UbMpo80Gew7uOxWdhUwbThHa39cLim12mdDppEtjMXOpYTN4Vr/c9RzwDdCPhE9leX9ES5ktzU7K+uig7m6tSrxbk4vy6dIgqaMlkXOLxuBJOnftAwhbnEr4vpNXS0pqyvAsLLjk+DhrAe9+JNs+PHkAB7JKtCdjd2tpUJwZWlWh1A4GA1rt//fq1yhk2NjZU08vzbLVQWMKA3dE756PUT9GEB06OBVZ307Wo7gvRoMckpQ1IwtAJAGeTYWnUC46CXuRQsLwsplu1jLC8VGBjW7dSYffJOSA+Sv3EfNfhGIdha4uFtOxtr8vi7ITMT7/Wv8XZSa3w6DveFRxRKqWbMh28w8PhoOp5W3c6AL8sBJta37Qt0ga+98mJX6UNyBuWljYf5M0bCCQlGEyKYXjNqnRoV6W65VIpqAk2pu/o5WByp6amVJdLmcO///3vcnBwoFIGtlzQ2ZHIls0iY3B269MM6sMxqDtxHgA2aHUBuvjpMlFEAm4DdG0Euq3gN5+OOiptUFasUlQrJhbTrRd2k3CAgQEDFDgRf+Yzns5YM6hz3aiXxXu8J1vry+oYY4HdpflpcR9sSSJ8ItlkSP/ymZicnd50NKKs9m16XnZUQ6GgbaW3WVCur29fSRsODvxdsbwA3VAopX8G8BrAO7QDNKxKU397qqwKq0hA7rNnz+Tzzz9X7dC3336roHd3d1fBLhojMkqRQAxqoDDHMZNLawycnVbEc7wnm65l2VpfEsPoBpwH+vGgVMs39Yat52nQt9ltAtSSmd7OcLEgZ7uXccewvGa8GHTs9XM84pFSwDtba7LQwuouzU8pq0s582TkRPswRV6aoDf8sX+dXptHORYxDvkEsdR6YecD5xJArx1uSNZnLy25VNowM7NyZ9lhi9W1wG44nDIMbz+BZN5r38DG5ALYZdUIg0KZT9jcf/u3f9NENSQNv//97z+C26Jqe2F3YVoQ2MMOm/Nj3/l5im2LzZjfdyRrS3OyvrogoZMj46nrEKPbyu5at3MOs7zEPMmvTOgkxbZeAMBUpkL2YGRUZtwZhvERgNholOVgd0PWludkfqYpX8APfGdjRcL+4yuga/Upri3Qm09HpFG/KdOxFn4Ue2Jubr0Aeln4JRJRWzTt/Ka9vUOVNlB6eG5utSPLC9i1gC7XgN10Om8A7zAEpvkO1wdIgjqbTekEQlIIEwnOC2h0sQfiNgyvx+ORL7/8UvsbryNblCQ1OqRp0+ttatqj9/bAfSGViAheutiMBX0HJiHtEYFu6+RcqzjPqObzaQkGg9e0vAxCLLiZ7AuFm/pH0/9673+m7R7edpcXDfEc7akHuCVd4HpxblL2ttfuXqjHA5+kDbqovF5YgvmZgitUWsPys/3CXMxOLISVHecO2ZDl2gDoPTr6lMAWCCRuAN1EIitnZw11UfnNmdEc2XJS7DjRT+GYTbCbVqaWCYQVIxWNYHRJGOFCJ/vtb397dZ9VJvZAgF2joXv44PgU4qqX30gsotONRfy6Fbi/7erIiLQCMHPbeXkDLNQ7B5PF2K69LXmHHalIJGwqOhqp4KPgijeXp+oYc3y4c02nC6u7sbqg8qtUzH+vBMlieUkQrVXz8vbt9R1TxkaSyWOxqCZttoNedkDQ+sIw9zL23veeer0sU1MLKm2YnV0Rvz9+DejC6sbjGWk06tfsAn9DlZh6vSJU1LjvQ8zzBkzYGQPIEGBHstmsShRIDvH7/VpEAo9dl8ulYBcA/Kc//emq2hqevPl81njtmklmIGNYM1kyL6lEWJbnp2R9ZV68xzuSGhJW04Dq66A6l4rI5YWz1c7QRAYCfnWDaZ3skTZgU4bW18iqzHxp53zZfuyzs6qEA14dsyxWF6C7ujijEoYHlTS/0vKGJJfCFaWTtOFUMpmU7rp28ucllwaJjx0FnwDc29v7gi/v69ezcnh4oi4MAN1oNKPyhbOzm2PCbwC6oWhY/KGg1Or2oPH2E2Pum4GgPQbw+SuVcroNQnIa7C6JaN98841uH+7v78sXX3whExMTV4/B/p6dYYqdMzXtDdjtG+wyiOJPGY8GtHAEfrruw21TJW0EgD4sVPuYYud9ZFOUOO+kYySBDZa3XHbWOs3O32uOPbxzNjsOFI8gvwB7McAuQJdcg92tVXWP6YbVbV9IK8ub+OjakEaTexNAolfHjqzdro9FIHM4/SOTSdpCqPK7j4/d4nJtyPz8ihwf+wX5Auzymzed7QHVpQGg6/b5xH3ik0KJEnGdX2yCfniDftTPDZqgQiGn3rqwJLC2gFuv16sECrog7McAwXQiwO7FxblKHwDKRrdrYrOfPkD85CgHvL4iW2tL4j4wQLd9Ahzm+2y9vnnj7C4l8qnbdIzkE7Clyw5qP3Fp3mvGtdtigB2EdCoqAb9b8wuuWN3ZCS1+E/QeSjJ6v3zhrn6dSViuDSFBL9/+XSAJWNiRVM6c3epeYs3jyB7sWvzx+WAHdn0DgaA0GrU7XVKubMkY8BOphBx7vRJLxExHNYzZjeBuD/ZB3WfLo1otC8wI1dJgeDFzf/XqlczNzan9CRPIixcvNDENBMwWCo4MVEAychwzKfQai0waGLH7PAeyvbGijIixGbsuGbhrQhym56jA1msc9PI+JlskWDBcjFmtFxboWDeRfGukDWZ86iW+7noP7GY0fCKri7NXxSNwYYDVPdrbUAeGVJ9gV/s20oaPLG8ujc/9zUUl8Y0zEqC3vR+QX8PcjcQHPS995q7f1etzHLebY18BXj6IN+QKWTkJBiSdtadiRq8/yLxvPAcNdEeAXaqm7ezsKKOLbhew6/P51JEBJwb+KCOM9x+TCVsodDI6vomN8YwNu88rAzCZzJTTZOvP79m/O3t5BLb2hwmAPsZ36TQh2xlHsLxM5ugV2XVqvbBoDwYDRm5lyKOBzVHK6iYjcnywrSWBLVZ3fmZC1lcWJOA9kGS06ak7sP6Ha8NH0Fsppm8ksNG/6AfxeFT16619gNvM15lMRlKpxKMnlV8DvHxxQG/jtKpegkgdTs+qXSFnOwcVc+zxBDR0EhhaMptJVPvxxx/ll19+UWuf1dVV+fnnnxUIo9/FgozX0XlKpaIyJ0bGMJ5xYXd/Z4yr14pacQiGhEkiHvbdm7k8sAnEAGfb2rqQjXeckO2KKWKpXM4ry9tegY0tXSZ6gIAZq8xY1W8MEkPxWFBcK/OfHBhmXivL6/1Y6XEgrG6H8SnzEfAiHaLgS/tvUdzYKKuMBxvR9otVKZX5nte2v9+p+zcAb+sHF0t5OXC7JZlOGl2vWaUONEiRIaDrQffDtgfsCKwtVdT+8pe/6PYIjC+V1Jg0eJ7XIUgnWYQkt9ZYNbfNhHJfDOigTMWhjRVZWZyV7Y1liYU8toEvA5AfQRpBBbbSzQn5vtjo53mACNIF3BlYkLdeuE/J82LR2e/Uz+8x7x2usRRWl6Q0SgLjBW6xuktzU1rSnDHMLqDbOoa1lh3utIBjfK1Wi+L3n9ywKmPxh3Vo06qs8mhz952Al8DPF3OyurGlLg6mIwxXRxjV80EHpiY3ZQgRm8PeYtjOhMFjeO7+53/+p4Je9D88BuCFQUmnjSZuVM/7Y35v/HSpOET2Mu4LbPs5MUm0ThjmtjMAWG0qAbUlAAAgAElEQVTKHC4+gy9oLBbRBXwr4GWih/GKRsNGfmVIowcDvdNGRR1jFltKAqPVXVmckaDX+QI4FuhFL9/uzWuN75TeDofDNxZ/9At2ch+zL9wLePkRSBz2j91ycOwWClW8NYH74MC1guGpX7MKhNktFvMKdP/whz/If/zHf8j/+3//T/793/9dfve738lnn32myWs8hyMDkwZbItlsWoHyY26JPPXzN2q//+K8JkG/W2BDNtYwXncbRrfDluU4gXHslCole6o83Rb/ysLlUjpetXuSwvImkwm1Z+J1tx3DPG4IJSsGkPsVixlZamF0YXYZx473tyQReRwJlgV48ebtJG3g+5NXE4uFdWeWubv1Ql8ADGcyiUeRNnQFeK2TEIyExHNyIucXlGl7PB2G9X3M9egNEHTkTCatbC0ZnXt7e5qQNj8/r367ML4kq62vr+tzvIY/CktQ2cVMGKN3zh+jnzLo4r5w4j2U5YVp8WAzNois5TEHi+MCfPOURD2/XhLV7jg8Pa0qywuj2zrRc5v8A+yZajXjdW/3eRjl44OrKuW87GysysLM6yv5AiWBtQDO0c6jj2MW6C3mErfuWuDP2/SiLl/rC4Bfdmop2lKp3CxmYee5wyLwQYCXL1NvVOTisiHlSlFOz2pmtWrY7q5jAPsxKrO0mlSz4gPk/utf/5KpqalrtbmZKGBLikUYYeO1a+dgMC7HVqYtm1BWd3VpVvW6Qd+BYXWfIFBnQnayAhtghXEKmzLcZFovjHNs56bTmPAbZ5lxGW8G9TuInVqtqNUdtzZWBNcFGF1LgnW8vzk0ibWWNy8sb61C2eGb5CePkaDGIo/d2fZLudxMcEMK1On9g2pX6zjMC5F49OGAlwOcX9TVszcQDinwNYUqDOtmBdZt1xbYhf3Y2tpSFhdAyx8MLp6VX3/9tfz0009XOjgqteDIwCRiJgkTY7fFlvW4bqVF/Lrtt7vZtBkbF8bS/I6H63/JLKcCmxMTqhWDTKzJZEyy2UxHZotSq+QvOPmdrO9mrodzDCW/IBYNyP7uxlWlNEu+sL/tknjIO8Cy5sGWxT+3W+9338cs0Mui8radFHZzSTAn6Zy5vP1Czg4OJnaUHrZiHQlupVpSr/5sPtMb4OVgfMlILCqHHo+6OJis+eHsTNaJf8xrAj+XS2vyBoFPxbQffvhBfXdJSkulUh8LSRTUf9eyHyOrk1Ui73/M728+e7hjG6CbjIfEc7wnrpWm8XoyMmAvyifIkI4DyMam7OLC2fGDyk/NbPTGtTnecqLBjxT/cTOuDPe4Yvf5YdEDq+s+3BEkC5b7AqwuTjKew21pH8fwwyUpM5eKtv1FhAUeABbrMOv55mMA2aA+lklEBLkPz2eTEckmmsf69LouQS/evEnKDoeFBLZOOyn8PqQN+FSzS4vLUusFootkdbCBHVLFUqWg1YMpqMbxyT17sKShNQiwlsKyDNAbikaMVZSRN9wYxNHNUCACYPv27Rt1W0gkEqrXff78uczOzqoLg9UZ2P7gdqNR/wh2zfZfa58ztz9NkljjpJIROdzblE3XorDtF/QdtjAYXQ7eBsyObZuRwFavOcuoMtHncim1I7PGNWuityZ5xkQ7JnkzPnwaH4a5LVikn3gOZG/b9clTd/q1LM5NycGOS2JBj6Ri18sCE8vpeEjcR/uytbF27c9ztC/5dEyyibDEIwE53N+RgM8jmURY+zbg1u9zy/raimRTcTnY25bZmSmZmZqUnc0NSScikokDmLsfMy2WF2lDo95Zj0tfYEcDJve20sM8h5c1rx3EOQOXAnKPvF4JRcNqumAdty/Ay0HotFVWtNGIFIr5gXxh68uZ69HovHedJwKZ1R0DPRe0bcgWKBmMjIFSwiSsWabtSBy4jSMDnn53Hds8N/rx0cs5ZGAsl7Kyt70uG2uLV6U0B15h6AGD/0MmCvPa7ifVQbQVE/L5mbPenzC44XDwqhS6BXgZ39AvRqMRZb96iX/zntEd9xi7Tk8rcri/dU2+AMMLq+v33l7tEcCbjIVkY31NpiZe69/kxGv515dfyurSohQyCUknwrK1uS7ffP21bLhWJRNvAl6e47VbGy7xn3hkanJCXKsrsrq8JN9/963sbW9KPh1/EOClb1qgV3dSbkkSbfpUJ9WppF3awK4HZBigFza439imWNqx16skLJa67X7BfQNe6wty4Ms3p4JOAirZetxcj27n7PfcsbVXKOTk/PzsSqvLYH98fCzffPONVlXDY5eqauh8LECM1+4gV3z9/g7z/uGJYSaMQj6lhSM2VhckEnDf2PYbBEgyx3AWlNrd3kzITpcdxpGBkuntCWxM8si40DcOitUyY9TwjFF3nQukVxSQQLZgSRgoCczOVCLsk1T07n4HU5tJRjW5LRUPy8Hejnz2z39K4MQjhWxCr2dnpuXbb76WtdVlZXiVuU1E1A0pEg5IKhGVSPBEkDek4xH59cVzmZ6alGIu+XDAG0dCgbQhJOh5b9u1QJYIqM3lsrrLay0AuSYxHe9eEtrbAepdbdn6HHlkgN14Mq7JaZgrdOpbAwO81ofD9q5sbqm+13rMXI9GZxzkeWK1RuIG9eQZ4Bn0//SnP6n37u7uroLer776Sr777jutwGIlryFkN1WJnl683Bd7DF7VSl6W5iZlYXZCt/2Mzdjdk6PdIHLUjn926rwlGJM84Lb9wrgYDAaV7bsv9s3z4zMeNuolWV2elbnppuWYa3lOk9Ie2pfQziJDePH8F/3LZ5IKhNfXVmVhfk5ev3qpDC4Mbz4Vlc11l/z804/KAqMBRvqQS0b0GD///KMsLcxLMZt4MODle1ssL9/p7I6dlEajrDFPtdT2C7u6ODqUSrmOQPWuPgDRehIKytrWjhKub9/eHi8DB7x8scZpRQtVeLTEXGekfdcPMM/dfsJGoW3YzkOSQPIZABbNrsvl0mCnghqM7tHRkQB8MaFG7sAqL5fLqYB9FH6j+Y7OxChAl4FyZ3NNtwB3N1duaNseOlmY1z9NoEyyTifWx86+zFgYCoV0LGyf5BnvIpGQcaB5QrkvxN/B3oZMT7yQmalfey6Eg173YH9Xvvjic/G4j5Sd9bmPZXpyQg73d2Vi4pW41lYU0BazSfnh++9kF9lCKqqgFm1vJhGVve0t+f6771Tvm09FegO8LSxvPhO7c3cf7Tr9oV3aQN+wpD7sDHfTT3kNf6lMUtw+nzK89/VlWwAvH3p2XhdfICD7x8dSLA1OkHzfDzLPOwNEbmtny5GB4CUB7eeff5bf/va3sri4qKUGqZz217/+Vb799luZmJhQBpjgx36MztBNoN/22ebxxz33g2x/4uD0tKw15Hc2V2V1cUaiAVMlzYD1/sA6yTWDjNP7jkUck4VONnr7JM99WF52tMy4Nz5j130xwQIezS6g98Sz9+BCEjgqJKIhef7LM/3LpeOSS8VkeXFBZqanZG9nSx+fn52RSOhEErGIAuMk1c8SIf1DC7yztSnPnz1TXS/6XU2K6zFvoZXlZdx+965zAhqSBaz56A/tCZ14VbMbgqvDfdIGXMKyubRajt3X3p+ev+jPpeHTgToHK9lyqqmIRYUqNKZTd26n+9pxVJ4n8xTQCnhlMOcPJpckNTx2/X6/Mrlut1v4AxQT5GxxNAtLmLKbo3Ku7fqeCnQbZXVfONrfUpuxfbKWQ96e2AcDEPsDiGPXfvGg4/MQLC+TPMk5yLtaL4x9oVBgIAk7dvVJc9zBztuMcZ7jXZmZ/FUW5iYk4N1/0NiGpdjB7rZ8/fVXsr+7LYVMXOUMq8uLyvBOTb6Wr776l/z04w/K/q67VuXlry+ar0uEJB4OqFsDsofNDZfEoyFBD4w+uJ/+DphGy4tk4q4kUXACCZ3scLT3B6SPsRh9JSud6jtgf1sqF8QX8AsKgu6Kn13Iu3eX+veb25D4oIKck4s1FSLiNNvcded1VIP6LeY4d3f8QgH7sYKCWuQM29vbyuKyhUGxiS+++EKWl5fVmQGgS7BjVQJINl67d7ftU4g9VvXxWFDcR7uyvjovh7vrEgkc9zUI9zOAm/eOJ1iuVR6uE+yn/zEHNq2ZYjeqTpG7wK5XKgUDbBb8/bTzKL0X0Hd0sK0s7/rKnCQivq7GOUAl7OzkxCsB2CZioaYeNxVV0ApwjYUDCnzR86YSMZUsHB3sqWYXKQNgGYnDxOuXsjA/K4sLc7K9uSFIH3oa8+IBZYet5DWuS7nEnTsp9IdQKNhR6gMmwMe6vUAL4DYaj8mRxyvReFQr/t5/zi/k7dsLaTRqcnlRld+8u8jeSj/ff7DuJ2mqs4VjEbWLyBX4zO7fa147/G2F7gZmFz0uYBYnBizHXrx4Id9//71mK1NCeGFhQXW7DPQkbuTzWbUf67SaM+d9+M/7oM4RLJjPcyDL89NNm7GTo94G3x635Hoa6M1njeQ5YuvWaWkDAIeywrBa7Vu5SL+wKTPONE9nvGPcpMLa3MwrmZ95Je6DLUlGr/vudhqTSDYD8O7tbKqvbi4d+9gHg+qjy/Mks7kP9yXo90o8GhZcGzLJWBOUJsIS8nvFtbqsf2urS7K2siQH+zvq8tDpM+98jAIUH5ndVsCLY8NdcwOLO4guynBblqXWzgfYAPcmWGDmBY7TOK0qfoTZzeVhf7tZHDbBLp+xtLQo6YRffvMh/1reN4Ly7q39Bv+UeUPigK43loiZQhVjAvoBu7VaVb11Nzc3ZW9vTz7//HO9ZjAnOQ1JA/IGBnsCmscBu6ziugvepzUY3jVYjNNz52dVCZ4cy/7OhsoXTtwP17TdOSAbUDqSoNTuc1rIxBwdd2B58RVn8u1kwF8oFCQWi5idrjGZE7sZo4mJUNArs1MvZWl+Unzu3Xv7Kos1LSahSWedi0VgQ9ZMSsN2LKwSBmQQ9CneDyhuPh9Wn97m62GKeyg8cQPshiWfiUo3jihIXlkEktjerm+HNCPZHSlQvV5RwJvL4/rUvQnC+/eX8vayIXt7O/If//EfMvHqhfxGSt+LZL6R9+UNeffG/hKMgBtqG2MO7D7xyakpsXjnSqibjvOYr6nXy1KvV+Xw8FC9dWFxcV7AcoxKalaZYPwoeY4LK7p8PielUt7RSecx28l89vUFCxKWcNAr2+srsrG2IH7Pnnrq2g10zPHHU6bw0PPK1nC96myhJCQ7eI12muBxqUkk4sp6GQLg+lgxzmMn4+CJ70ilDTuby11LG7qOdwAyFdpi/A2u799kdcNaspiqhhfn4MjOSWvt55IiHFj3oW+HCGu9AILDkagWNWOH5M1DKrG9qcv707B8qFGB7kQJuH/7t/9PfiNnr0SqP4ukv5QP+Vl5d9l/tYv2H9XpPkA3loxLrpAZacDX6bc9lcfINi2Xi5qABoOLRheQ++WXX2pZTZLVkDVUKhXV67JqI4jR+RYK3W5LPJ3B7ynEzdu3p5JJxWRjdVFcK/MCoxsPeSU1wMF4kAO7OdbgJslha8viIxSjYIKHySVht3WC5zbkAM8xrj6FscD8xubcRiGd+ZnXMj/7WnzH97O8j9mPbgJdktTCUqvm5fKy/uCEUKSMJKwDeq1qq62gt1avSyAYkErlAe4qb2ryvrQpHzLfilSn5f1lQLzeffnd734nv5Hz19L8eyWS+0o+pH+S942QvHvbsL3TQemD3LU6W9nZeuems/UHJNHWYLdDkH722Weyvr6uDO/Gxob8/ve/lz//+c+abYkt2czMjBaeAPACfrPZlO2xZc5vf+fXjvaj0lUyHtYqQ7ubq1pZ6DEHb/PZ4wtmuz235WLqwZN0P30D9pZxk0x0xsPWC2QAtkywwIblHb7xq5/zftd7Yf6DAY+yvHvbq5KInAyUje22L9z1OsuBoVWny+1cOiqNWn/YjVgHEySTCU14b+0TJLajewcQ32dV9u7tqbxrROVD9qVI9l8i9edNbHu5KeeNsCbotQDe16Jsb/Fb+ZD+Wt5X9uTdG2fYXmwm9o6OJBAOdWkz8XQ6w10d5bGeY5ECswtLgY2I1+uVf//3f1dml625UqmkIBi/Xfz2GNjR7qJdIxvZMBhPKX5xaalJPpfUKmkrCzPiOdw2xSMMoz0UkzrVoRq1B7BHA9CYMnHHYmFNzGlleZnoSeRlci8bAuhJkSLZTFy9eSlGcXywKcno8IDeTx67TdsxBbqpsFRKmYGV68a2lt2NfL5ww6qMhSBOJplM8hbQeybv3lTlfc0tH9LfihS+Fjn99SOR+1rkYlE+XB5KNnPSyvB+ZHpV4vCTSPYbeV9yybuLnCNsLyWJSWajYga3HwvMmc+9G4zByp+e1tQ2BPZ2bW1NMpmM/PDDD/KHP/xBZmdnFdjiL8lz0WhUA5iBnHrZJLiZNr67jcelfVi5l4oZcS3Py+rirLovpGL3ZyLfxTSY5wwrO+gYKBdS8ubS/h3N1n4NoMWusT1DHWIgm81qMg/EQut7zO3xHTcZK6MRv5ZNx7khdHL46AvC24BuIRuXprVfN04Jd58zxRNnNSlXih93PpD0NFpJXr3NY5QeRv5wbfcDVvcsJh8K8/Ih+41I9dknoHulXgD0Lsvbc28HwGu9CDo4/7Woi0P9xJGENk1kiTatyyrVoqNbTWYwuTswaR+Cs9GoKnAF7L58+VLF5gQj2w4UlvjHP/4hr169ErKOYS/YkuD5TCatWcqmne9v51FvIwakSjmnnroba4uysbpg5AuG0X30Cfw2oEzW+mnd2YU4LC+7XWSit5vv42DDzhiTO2PuqI8H5vt3N+azwDk+3JGZyRei0oZwd968t8V1r483nSCCWkTik4QhLFiNVcvk3gxmcUhs54s58fr9EoqGpXFa+ViV8KZVGX0ETIFrA04NKl+4LMn7ulc+5J7Lh+ILeXe6Ke8v1kXOpzuA3kmRy607AC/At/FCBIlD9qePEoemJ5rdAZyhFGMqrsbCWFfY/Xnm+N11yHq9JMViXh0ZYHTRocFG4LX77NkzvQb0Tk1Nic/n04GcwTuXa9qPmcG7u3Ye1Xi0gG445JPdrTXZci199Jccnu25XicB877xZpaZzC8u7Hcpau3bbOMGNSGnco3Rgiggax0LM0qotr7H3B7vMTSdisrq0qwgbaDwjpPJvAp0sS1LfpIuXMkXimlNShtU/BH7WNQe+7wSoRLvR7cuFoLJZEydTNoXgkgb2E3OpBNyWQ3Kh+KifMj9JB9qS1LOH8qJb0fKRY98UNA72QZ6J0QuFu4BvIDes5ci1Z9Ect/Jh+KyvDtLOiJxoFAFnT2WiGspuUE1tDlObwMG9mPZbFrlCtR/x3bsu+++U90urgz7+/vK7rpcLhWeo+1lu65QyH/02jVMxTjHHtnnQb9b9nfWZXt9WXW6uC8YoDjeQHGczm+lmJa3XRna9zaGtvd/FoiUUMXGkdyH1guTO+wvCW7XtnAHoCFu/x7m/mDO5yDakXNNtcmFuUmZm34psZDHkTFU/XnbgC769lI+KViNDVLyg2T10O3R0sCFUv7GLgZYIxIJaS5Qa5/g9tlZQ0pZr7zJToqUXsq7xv7/z957Pkey3VeC/J/2+37Zrzv7YTZiPm3ErBxJkeIjFasRJYa0szOzMiRXXhpKQXIe3+vX3TCN9t0w3fDe20J5b7O8RxVQlWfj/BKJLhQKQHkU0NkR6PJVmTdv3nvy3PM7Bx7XHsbGhvH3f/93mJ0Zx0nOJLpdnExeAb2Xi9Z0OUOjW0oc4sNQlTeoZM19Ab1E+4wjNlmtCIWDTUbJDU7n7cYJMAjfQTDDymHqcqkxI5BlktrU1JTodLnUQLcGOjPs7OyIlIEDNpPXqFUzBuyH2yfJ2pP5Z3AEdbrWo134nP0ZpB8S2DL25e4vDFiJziCUfo65AnD8Hlkpq5/caVPGiFWOv/3cJuO37na8Ju7ZWl/Cx8k32N5Y6mmBb2P5gmY1lkqEW/LUva3flE8LAm6ZlMbgMaanNfoM5xSmDpJYu6TnVc+gVuKoFvahFtaQT5uxtjqHf/mXf8ajR1/j669/I/ePTeuonOxp0obSB6C0CPD2ZKIJhrcW/LLyLTkGVRlDNbXdF10vBwQmbBwcH8PmchouDn2+wqf9GKsjaSdGsKv/4/1PLG5c2F568dKJga4MmUxaTNSpy27UqY3n7nZQ7bT9OSgxGvNwfxOba0vYXFuA23aEUBPxmAa4u3twZxyDxseAjFalz7rZbDYhLO+lyR0QSRhDKpqyZOrzvNDp+GF8/ubxX1ECmJ2ewMyHd/D2iEC4jtVNxAKSlNZNVpdFaXThSqXj4Oo9/Xdv6gOcX7i64fF4UC6XAPUEqISAMztwagHOPDg42MSPf/xjjIwMw+85hM+xid/85kuMjg4hHj0WaUMqfoj52bc4LZpAxrd5hlcHvnRxyL0GosNQY7OoFEOagLiHJxx3nkVsJotVBM4FQ9d0Y2e5qSO1+losFpalBTK2jf4R4D579kwCJ2hHRt0NmQnKH2g/xmPX6m8a7795MLzr9imXcrCZD7G6NCspaV7nsVGUZhSl9WXptedA3e/su5aXpA59SHULx9pxllIHplQmk1FjHO0hxrjrMbX+99kn1pZn8WHiDVaXZ7s6vgrQvRIJ7JKktGIx3dUV2XK5gGA4KLazZHVbcR45Ockh6LcjlzADZw7gzISTvANe9zGKeR/SSQ/+7d/+Df/9v/8LohEbTgs2bG8t4uc//zmmpydQytvhcprwk5/8BH4vZQ4f2wC8OvBlQVvsCdTIS1Ty7p6DXnYINl4srqB4ku3qQanvbMZjDXBRX8YIYA66LKSo15npAzPBMIEu36M5MoQM+7EHOjgT7JpNe5j7OAH78b7B6BpA92EA3drj6Hf1HVxSt+j1agls+riq37KAzem0twQWjDlssEmDZo4PCSMmsH2cfIut9YWuSBvqC9K0x27EIz6clrtrg0ecRjnqxu4eEg20uje2wWlO6sWqoTEgyQCJWVRL+zg8WMPIyAj8PhPUUxd8Pit+9rOfYX5+BvmsG4WsE29eP8ff/d3fwWbZQaUcRCTkgEpWWCQNkkYxXifu1dPXbrllQVtyFGpkGFXqek+bz1C+cWdvAQvUuLh9Hqnyoy6kk+8yPnt1YCArS+2tokRAlwUCWbK3//qv/3oR/0dJA6ULfE3/x/eyijKdjhvH5JY+fD/7XRGhoAe7Wytw248eHtCpBT3G/c/6+J6cNNYX9uq85ZhLFpfODPXevBxf6UEaDgeNcfUBjas85sQyN62CptMxsSlbmpuCx2Hq6JxsBHZjYa/IF7rdr7kKf2SxSGHadVrdxr9ZRKWUQDWxAoQfA9np8wK0aaC8DZdzF19++SUODzdRKZuhnjoxPf0Bf/mXfwG/71geh4Mm/PrXv8Tk5LgwwijNXeDbb6mRUSA1BhTeXzz5KW74FsCrs710cYg8FpuIygklDr1fxmal39b+AawOu4ifb+o0jRv2KtAz3qd57TIcglZiZGsJaDkAMz6YHU23CuHyG50Zat/DzxhLbw+7X7Fil3nqPV9aNgCn0cZ32AdYwNZvmzLWOwQC9N/VPMx1IoG3HGdZwCYepJXez6/GXNjbcZyShXgsjIPddcTj4WsLE/m+zfVFAb3rK3OgfKzVsfc6oEu9+kmRtTnd608EutlcSlbgSZo134+YlpZFpeCDGp0A0u9RKe4jnbQhl7GiWtoFyjtIxMx49mwEqyuLOC1agfIeAj4z/vEf/xGTk29QKlhQKZkQ9JuQiNpQLR0CJ58syr4lcWyRl+LAgPx59rAOZFu5FV3vN1CVt6jmnaicdZceb9RwvDqyu5wwWSxQYorh4tDh1S8vGri0Fo1GRIdLUEtrnOPjY3Fl+OUvfynhEmR2NX/dqIBhSh3o1GCA3d4Oko3OgX4/xwEyrvhAHVirA6/x/saFUka7DGa7JKLBG9m3bp97HH9ZnU6WlwC39h+JB3qeBwJeQ9rQ4TzX7ePWyvfxGDN9ktZjKwvTkqy2vroA6/E+ytf4QGczcWysEfS+w/7OatMyskZa3WjYAyYLFvJJnDGlrEttybyE+HmIBHMUWiMgyepGUU1tAcoYkBgFSltIxNyYmJjAxMQ7+DwHKBetOMk7MTX5Fu/fv0Mu4wBOdwXY/vrXv8boyBMUcxagvCHgWG7rQii+VTnLo1oMoBpfEK9dZF5q3rutgF39veLiMAo1+hzVzB4qpVhXrx4aHRxW+wVCARyZLWBD84qo0fuM524HYxSJx2IRsR8jiGVno4xhdnZWmF7GBDNg4ujo6ELPS/1uKkVGOGS0e5cGj0HuqxzImLZDj0YDqA0mUDOOS3eOC/t4sZDq67jGop5wOCByMhILtf/oiqPHq7YGKG4f+wd5zHko20aCLhL2gemT89MTUgexOPsBOxvLsJn3BIiyRqJ+f3ms+bmZD++xujgNl+1mORmBbqNY4FjEi1ym+zahuXwabibkHh+LzLSlvnmaQTXvhpqYA2IjWuZDcUJAaypuw+LijKwsP336GPt7K0jFndjcWMaTJ08Q9NOtwYKYYsXTp0+wvDSN0+IRUJo9Z3XrfXgn8K2Lxj3NoprekVQ1pquh8LYziUN0BGp8VihqiYHrIRggyE2m4nKFwQQP2l601Og93LaL9h3w32Abkl0geCWI5eBqNpvx4sUL6VxkeyltODg4kKQ13qeON50mIxwG7cvuy74a29nZBEiv0kTUDy77GuCqO+DKaMdBbEenGO93kwm7bezhvEVfa7K82WxGiAbKyLiippELKYlX5Tx323cZr3c2znWr/XhME/Ew7NYjrC/PC9Bl0e/S3EccH2xrDgx+B6Iht4Q8NMIu+VwSezvrwvIe7q0jeI39YyOgy+8lSaGxut2TL5BsjCdisDocsDkdrRemlVPC6qrRVxqrSyMEIU8JVD8K6C3mzLDbdjE2Nopf/epXmJp8j62tNfzrL36Bw4NtsSk7O7EgFDhGLoyHhBMAACAASURBVH0MlNcuSRjq5bmfAC8BGUEvs4lj40BsGB1LHOKjUGPvUc3b+xJUwY5CbS9lDkosgtM+aIm7dVLc5few3ShHYGwwPe9oKzYzMwOmprFYbWVlRVLUyPROTk4K0CXYZRAF5Q+GMfpgDKz960NFYb5Y8GAAtUEEasY2datfUq+ey1xNg+rlucbxmCRCMBiQwmCOtQz6YVw7fXnJ8nIlrhEw6uV2Gd/d+jhPIimqBLC9sYz56UkBuwszU6LdtZsvu9wQrJJIaBR+wmMd8LuE5V2a/wCH5epnG4LdsBf5bLyr8gW9HzAO2Bf0i+1YSxHYVBUUvKjGp4HY6Dmr26iGbEpCI06LBwgFDvHxw4SA3uHhIfzDP/w9pqYmUS27BOSqpU2gvAycaAET9UBXHhfe1TC8OgN5lkflJIJqclW8diVWmN67umyhlVtKHFLPNYlDaguVcqLnEgdal4UiIWzvH8Dj9xpXwfpxveGWYJcFZ2R1ObguLS1hfHxc9LqLi4vY29uTwZbA1+fzSeEa/XcJdllEYQy8rQ+E+qBxX295zJPxkFHAdoeFVd0Cdcb33HyBQN1jv6UNXDHz+TxCOJDdJQHB1bbp6WlZeQsEfMhkEsbYe8O8dtdjay6bwNH+FtZXKGGYEoux5YVpWE17CPkciPi5Qna5FoIXWMlYQNwb6refxJLpcEdY3pXF6YsCNq601Remsc9m0lEBz92en0kq0ls3l0ujeMIQiRZkpCRVU9tQwyM1rO5N+HISKM2gWtpENnWMne0VfPXVV/jzP/9zuS3mPOdAl4VpVyUMIGtMU4bYUyDyTQPAq3cg0s3pXajhISA5ArQLevk56oKVJ6jGPp7rensLELTl+QT2TCYcW63i31vfeYzH2jGgjCEcDl3Yj3HZ7M2bN5Kc9k//9E+i2f3bv/1bifmjrpeAmDHCBMh0c+j2yWQcl96eG91sX1o3RUMeA/QaoPfBM/3pJBnVFiZ2fR7t4JZjs8vlkvRKxriPjo5KdDuJCTK91PpSF9rNc9r4rs7G32q1hNPTEwGD1uND7O9sYn97A3vbG7AeHyDgdSLocyPgdSES8iEW9l8qANZY2uu147lcArvba+LaYDveu6LVpXwhzUjgUrYnc7M/4MfS+qbUTbU0958VUC0GoUY/AMpTINtqrdgHqKUlSUzze4/w5vUrCZ1gYZtWnKY7ip0HoyVHAeUREKKRwmtUkxuoFAI3AF6eqGc5cVxQw8+B6JP2WF6dEaYmmEEV4WeoFCN9OUl5QMw2GzZ394xI4gYDLxmCUMh/4a2rF0jQ6JzyBep1KW/4m7/5G2F2dYuyeDyGdJpsfWeDg/H5+99+iVhQ2AWDJbyZJTTa5363Dy/sigVaOPXvnCWY9fvdCIVCwurS45yrbayfIOnAImJ6nrcEPPq4/f1sq0H5rdJJHpMT43g2OiKRt4y9HR0dwcrSIoJ+D3Z3NvHyxRhGhofw9vUr+NzOKwXABL2UizVybeCx9nrtWJj/gJmP7+Fxmi/YXfZRanV7cWFGu7GD42Ns7u5L6m1LfY44MnMENTQMxIbaN0VgMdrpPk4KLoyPv8GjR4+QTnqB0poGoONDQOg3UAOPUI28RzV9qBGs5U/Wa9+iZ9rZ2S0ncTkDNfoRCH8DZF+1z/YS/BJ5B79GNbWLSrk/FbCJVBzMcqYLwW0ZzoNy4vR6O2g/RiNz2t/o3ro64NVvKV9gdB+X0/iP7G8ymZDitl5vn/H9t5yTAzJxlcs5GbANb977DegMQH778SOYaGn5tgvnKL157XabsLx0bfB4PBfkA60gtaCKq5X9xvjZ3/GTFycMibCaDzE7/RHTH6Yw8/EDpj9OYWzsGRYX5nG4v4vnz59hbXUFLocVpsN9+D1XAS/PRY6nsYiv4QUWwSZT2A73t7C9tYKt9SWkEiFwLO7FcU8ko1jb3pHaqJa+X+SxYaiJJSDyBEg/7wA7TgLldSTjViwvLeAXv/iF3FbzZoBFbyHWi82gmnOcB6A1Pv7fcrjdKJxkcWtiGbUXyQ0g9ARIPeswqOIlEH6EKl0cTiJ9iSUulfNCwzPPmRWuLV2hdGHgaqmj9Pj3JKI5RkkCK30rOr69ckswHAwGBRDzfXRkUBTDkWGQjuUgbItoeYOGY4MBGm8Hjfe9jfpdwMbzW1GCEjvMMZi1EyxeS6fTwvSygI01GJ/zfHaXYyDbna4ax4e7WJidwvL8DLbWlnGwuwmb5Qj7u1t4/eolLMcmzM5M4+OHSRwe7MJ0tA+P045YpLHbzWVpQ2NnBf42Vx0YBtRtVpffTYKQQD4aV8QBq/k+xhCJDKo5G1TljaYOkERfXXbQxi2lscU5FNNH2FhbwPb2BjJxD9ScFdW8TwO5BNi3YKdvUXRMsEsPW7KgN17BkprO2aFG3wPxZ5qLQ7vaXoZcxIbFEUKCKk4/0c63bXS7r9Mvjsls1PXSJPnGfb2l4drdhrv+HDtwIhFFKsVjfXoF5DZ6ggxwJpOGooQMR4YH2i866Zc8j5jaY9iUPXzAd98Ba6fbT2/efiewccz2eFwS7kOWlyQEA4E4LhP48jUtga0xq9XJuW189vo2pWeyEvEL01rrwLC1toSAxwa/14mPZHqnP8LrduL9uzcCfil5ePXyBV6/fiWgl1KERv1SkzZ4ztPQrt+Obh8jEmJ0uXJ5PYIJmwe6lMEWUGGuQ2oTqjIKJEmOvmtfDlt8r6kKUi+hJiagZvZQyodxWs6h2oYLl9iSccIKKyEcmc3w+jUG9PpGLKJyoqCamAdiz4AMaepGlhJNoHh+LvkMavSF+LH1I6iCWhSnx41Ds1ncHD4n0MuBM5mMSXQldWDU5N72j4MqdbyRSEiWUa7vF/07IY1tGLy2Lp0XsIWNBLaGk1ejCc147n5eIFDa0O8xiAVsbrdbiotZtEZLSDK+/CP4pTztc5rL+t3+jX4vmYxIWho9dQl411fmxW7M77YiFvZhZ2sDz8fGcHy0j5DfI4VWZHvtFhNsZhMeP/4G25sbiIf9144ZdF9IRGlP15+CSTov0N2KpGAgHAQT1Brte8PnTnOoZi0aIRplYdqr9oEu5a8kRRMjUKOvUU1pRWeVU022weLAhttwCyF1yYc3GlNgslrFSDh5oxieUXAxVNNbUKMvNRTfCehNv4AafSYgulJkYldjCr+dHWz0GQI/XsHQMJlMb6P3PLTnOBgy2zoej4r9WLNgl7KGSCRsgN1bTqSH1l9a3R8OyKxkFy2vAXqvncAMkHs/QW7tcSPL2yu95HXnHeesSCQo7gwEubX/aFvmcjllfL/u88bz3ScJdB3t7MdxbKzMSwJayGvXVroCnnM2972A3ZDfjffv3mJhfg6RoAdKyIfRkRGsLC8iHrke8DI1jQywJlvoLS4iJiLpyRAJrvY3zewKqxtCNbUOVXmuSV7znbC646L3VaNDUOMzqORdXctxuAR4uYNc9qfOle4GEt5wrcfauU4j74IamwTiHQRVUBZBjQeDKqLvUc1ZxSGi1ydpNpcW+5BsNgUW7/X69+7q+1mox2reWEyR6t5mwC7fQyZB99q9q203frf7A3Wv2vSkmAb9HzlI1wIE4/79B3nGMbx8DMm69eo8uu576cNKzS7Z3fp/sRgZYJdhU9ZHYoJ4KZ2KYmdrFfvbqwh6bDLukd1lgdrjb77B7vYmoiEfIgEPlhbnBfSaDnaxv7uNJ48f4+hgT9jgm84vjqeMBWZS2nV9o5PnaVqQziaFAAyEAmg5RIIyVwkrG+0OqxsfksTfavYQlXK8qzVelwCv3mjUcCSSMUktE2eDm7QSfO0krEkc6OKQedE+jS1BFWNAeATV5NqN1Xb6tnbjloB3//hYzJS78X2D9B08KWk/pgHX6x0ZagdQgl167pINTiRoc9LbK8tBai9jW9oH2GenBWTTUXFtMEDvZYB004RmvHY/26rfLC9X6ZiwxgQ2js+1/8j6er0eqbMwpA3tj2Gtjv+cG11OCxbnPoC+uGG/Q9jbD1OTUqBGHa8ScMufx2nFwtwsxt+/E+uy9bUVRII+ee2mMYC1EXo8cLePbTqTlHhgglySnU3P9YL7oqgm1yVYjAFjoPWsbkPb8i3zGl5AVZ5CjU+jWnB3Fejqx7Uh4OWL3HH+kdqmzIFyB/1DV2+LqJSTqGYOoIYea0EVJzelZ9yg7yXbS+1H5AnU6FRfgiq4n+lMAvsmk1hv0Arm6j727yTq5m+T3aX+ljrc+qWw2gGz9j6L2RIJyh8irWl4+nh13c02Mr6re3379DQv0gYD8N5PEHfTxGu8dvmYcjWjX9pKfYyiwxCtyOiVXr9SRwcHShuMqPfujWd6u990y/amRdj8zAQ8DhPiSgABn0ukDGR3tfOG9mMehAMesSJj8EQ05L0R7EqCWk2KWlzx4aRLXtAsuPP4vNg7MrXowMC2LUphmhp9B+ha3XbNCwiMSXQmhoHIKKoZsrpksntDsl0LeGsPcCQawcLaRhM+bGR741DDL4DoN5BYt5aRvg6GxyUOjkEVdIaoNGE5UbvN7dznYMJitp2DQ2G32/mOQfsMdV/JJBPRzmox7bX3+T6+n1nuPCkGbX+M7envYN5Oe+dzCUPaYKSvfQayFidSiXBfx0gSGPG4IqCX2t3afywwZmpmMOgz0kX7TL5Qz7u5vgSLaUdigzu9OKyPC+5mqAQL0/aOjrBz2AbOod0YE3hpT5sY6cyeltiQhWnKY6iRt13V6l43bzUFePlhSdowHUsj3VzQdoJKKY5qbPo8qOIl0Anby6CK8FNU09uo9MG6jBIOh9uFY5vtXlu9kLWmjRi1Xc3aj5EBpv0YwS6z3K/rNMbzgw867/IYcdmN8ZasMO504Dc+f5lVNNpjsNqDQKTfxAAr54NBP6JRFlxfLmCj+47H4zbCgfoMeDnfmo/3JP3MYdlve9zT/HddF+lpHENp+dgN+Qy3MRZXsHt4JBiHlrRNzxMsTCtFoUYnJM2sI+kqgS4Z4RTlq0/P5av9wRtNA169YWhbtrW3r1Xx3dSpKHHglYBU7VHf0WbVHhsm8xJQhlBNLIpeuNdsLztGvpBGoZiRYjaCYH3/78MtAQdZgGhUuaL1qmUEau+THeCSGD9jeDoagLbTfk6Wl/GYhrRhsACaAZi7ezzYv9OJSM+WYBudh5yf6LjDArZCIV87jIs3LxPYAgEfBkmax23JpGMDtU2N2raT53jhc7C3iekP7xD0agVsrZxv9WA3HvHJCkKnshn2F14knZRycHs9EiTR/H7SkSsuUgOutiP+tH0spwPd/FstgyHySmzMdKux5rep/fm5ZcArYDCfRianORuwuu/alLazAhgqoQVVjAC51+2LmiWoYuiTi8Np73W2BLouj1tsOjLZ3lRIdvsgE+zSa5fAlVf7zfyjFozLYyxSY+Rwt7fJ+L72T9D72nYcJ5hKdZ2peisTgfHe7oI0oz27257s48Uig5P6d55znNdsykJX5GosaKM3Lwvc+L5+blf9bwleyKVgsxxieX4aNvPhg9YYU8+7MPcBpv1N0KKsmXONF01kcvU/FqiR1e1GwAkxDN22/KEATkr5FqQudOHKoVL0a4YEejRw2xLVc61uagyqMoJqfEGAdH1/6fXjlgGvvkE8kdiQFrtdInuvZUHFo80PNT4LNTqqsbXtNpqIm0cA5Tmq6R1Uyr0HZ2Q76Ut3ZLZI4d5dDyB6+ze65bbRfoxglwC2vqihEfjlewiM4/GYsQzWxwmr0fF7aM+xP9K+yWB5uwuwmplEjff0t83jir8rAKWVMYC6UToz0Kasdqzn/VQqJSwvCQzaTrXyvd16b7mUQ8DvwvHRLuZnJiWcYXlhGuGgGyxu7dbvDNb3FGG3HWHmw3uYDjZvBLwcFy+DXbeMl3S66YaEgSQd5Zn7xyZE41yFaLYf6KzuPqQwLT7aGVnJVXqSnbrtLAvTzgMkmt+mZrf9+vfRfaxtwMsNLZ3nLDOul6AwmU40blRaWJAWT++Lvxqoy+1U4hAdgRqfQ6Xg73lBGxsqFAnhyGKRuL3igLo4cHDTJAnN2Y8RAGv2YzGRQPRbi9bPzm781vUDQS/bRgrYQoY3rwFA+wtA+93eBC4EKmQ0e3k+1X43l7opXfN6vVeka6zbCIfD4tDD0Iraz/XjPiUMdusRFmc/QJLIZiaxtbYIy+GO+NUyra6fbdWPfdZ/g+1tMR9gfnYSfrelIei9DHRdUMjqxoMSI9xpu1C+EFHCMNttcLhc4kClb9utt2dkdYOoJhYkDEx0toU2k3RJbBLnpZimO4ZqchlVBov1wYCgfj95TOgx3BHg1b+U/m0ur1ssLsLKDVWrZ3lUcw5N4qA87sykWIIqhqEq1IGY+hJUkUzFYXc6hdnW931QbjnAcPDTIycbsbn1z9GRgcyu4chwN2BwUPpOL7dDJmXFbxSwGa4NDSf+fgPTXv4eNZelPpMhHPfJ8rKArf4fazJoYZbJ0KWnP0CcwMLjsp7bdE0K2F1dnMXx4TY8juOLZX7lDor9ejnO1X83pQ0EvHtbKxeBFOx7wuoGLksYuDqQzyZARrz+e1p9THlpWAnJyjtJutaigbOatSztxuLPNFa2E7sxYXUZDfzu3G6MhGh/+mFtu7ENNMAb7A7g5ZfzS2OJqKS08fG1S/96DF18CWr4KZDuNKjiOVTlmZa13AeJg27QzOUC/vVrIKk9gPX3ycwS7KZSyaYdGTT7sYQ4ORjMrgF46/tUNx9LAhtZ3oCRwNZLwGV8992yyAQz1K33c07gb2WzSTidDknRrAW9LEQmEKajA4FxN8/pRt+ls7rU6pLVnZuewPryHFzWwwuge9FH/U7RqXZakNVoOwbhOR4Xv88p3rz7O2tysXeF1Q1SwsBjk+m4z/D3SDzScoy3TI69FoM1kjbQZCA2C0RGJNa37RV4Xa5KB4bIE81ooBjsCyHZ6LgHwgHxG+aFABUJXWF49R+iVohImh1fqwa8qhuRA5NNwHywDvv+FM5Cz8793DpwceCVRHQYavSjGCJXCKobHdQuPXdW0QI56Nnr8XulIXv5ezd9N+UWBLuszG3FfiydTt/ZctdN+2O89jDBd7GQMlheg+V98Cwv/VPZ1/s5jnFODYf98Pl8l7S8BL+Mh/d4PFLb0attIrBiotjm6sKFhIFSBrt5Hz6XBSHvNRcifidS8VBf26pXbdDoe8nYMoVtfWVeXBv0ojTeSqFjgaC0c7nJWeVEiuvpnkUTgUbbcu1zpzlUs2aokedAbEiTIHTC6lLCEHsKNTyKavaopyES1+7TuY0u68sYJpZlgtw59usq4NU3gCdgPBHF9v6BiKb1gjZGj1LAvr4yh+X5j1hZ+Ajr/gzOQq/EfLijoAqxumBDPxdniF6DXu4rU+g29/ZxbLW2tnTQLeB9VpToX+p266Mma6/0a+/zqj+fzwvYNZjdhwku9fNwoG7pARlhprzB8l6wXAYAfpAAmHZ8p33WzZJkIsvL0KD6f0xl83hcPWF5OYd43LYLoEtWd3lhBh77cVPHlsCvGwVaAzXW1czvqVQUa6vzWFuZkxQ2JeiWcbAbDgzcZ7K52weHEiRBVreldjjNoppYBcKPgfRY+3kJOqtL+9jQl1CVCVTKdyNf4P5Terq2vSO4jFZstW3SE8Cr/wAPxuGxGfumY6Qzcbma291eFXuSlYVpbK4tYndrFV7HHk6ji2JXgexrzZRYb8RWbovvNYF0ZAjV9AEqpzQz7q1mhAVsxzarXEkwqU3f937c0n5MUcJyFV9bpVs/4OmPCXbp3hCNRkBpRj+20fgNA1TrfYDWTRzwDdB7DeNlAOCmQNJ9uGAo5Ftk2mpAkn6+tHqbSsXgcrmukB8Mp2Bhm6IEuzbmk9SKRYNYoXxhekIkDEtzH2E52m3Zgzah+LvCdLbaXv16Py9GHDYTnDYT2C/Ydp3+Nr8jEA5iYXUdbp+nte8jq5tzQlXeAtEnWtpZKzir/r3injUKNUTctXeOu/o/77FNmArMpFx/0N/Qgq2ngJfMLvVDpuNjHB0dwmYxIRL0Ym9rFRurizjc28bG2go2N9bg89hRjm9DjTwDks/ad3HgweCVRuQx1NgsKlIV2HkHu62DegM+EYrT6+60Cx36tt/jlTVjJAlgCWRv+6fbj8ViUSSTtD3prezjtu03Xu//gHDXbX5hUxYwEtjuA2gztrH9C5No2AuuaPbznOOcEAgQ2CpXpA0sYHM4HKCVWSfbRFCRzcQRCnouWF3KF7hsbz/ev6rVbeIijtpWJjP2mpzqZL87/SzbjX/d+B6Jl07GJA02kYw1/52UepYZIrEHKCOdSUmJsyh9yL48l5NOiLvDXRxDyhXI5ObzGbGOvYnp7ingpTH2mzevMTY2ilcvX8if22lF0OvA8eEuNtdWMPT0CUZHhrGytICA14GTxBFU5bUkcYBODPVXE80+5mdjT+S7qnkHKn0IqsgXMiIUp5yD7Hannfu6z/OKkW2bzWYvgV0C3+uYXkoeEok4EononcgvrtsX4/nPC/gWCinQWN1gedsHUwYQvR9tl820AEa6wPByLKU1JV0bCHDr/9GmzOfztFbMVLNd1JtGlQBWl2YxT1aX8oX5aQlZCLitHbHzlDuxuNWYD66fDwjqGA2cSMXB1eSWADQdshgCFv8IRIc0UrATrS4lpKnnUKMvUU1tonLCmOvOAX2rx58kCvGWx+dtSr/cU8AbCvnxYWoSB3s78HmcCHhdwvCGfA6EAm4sLcxj7NkzAcIT4++xv7MJr8uCci4g1X2QoIoXAKUKzQLd2vfpEge6OKS3JQu60oWrrJsOCpnTQMgPi8MuB6LbTCqlCLQRS6d5pf4pR51gNxaLgcVo9aCXxWzJZEKK23Q99U37YLx2/aBjtE1nbcOiVhaqsHDDAG73A7gZx6nd4+RsG1y2O85wvolEQuLBSyee2n8kPdxulyRxtgKW+N5kIiJ2YwS7dGBYmJnCzsayJmHwNJcodlM/IsvLkJp+27q12879/BzbP51JaqmvDgcSqRacQMjqlmLC6qrKCyA+1LmEgaxubARqbFJsZu/CV5ftT4LR5fVIKFgwHGzqXOsZ4KVo3+tx4P27N5j+OIXlxXmYDvegBL2i4/N7XZicGMf83CxmZz7i5Yvn2N5Yxf7OOoqFtCRxVNO7UJWXGvXOK4paMNvKfUocJKhiGtWCF70saCsUs7C7nLA6HKJf9vq96BbIJLPLuEjaj9UOZgS4TNaxWCxggUIt4CUoJgjm5/j5fp6oxm91Bg4favuVTjJiScRJ7qZJ0HitXaBlfG5Q+k46GW6NiathVNs9/5kOGgj4ZE6onQsIfjlPEPTSJ7aZ7+cFqhLxY3tjWZLSyOouMjp3bxOdsrr1x4gOF/0O72imDe76PRJ6ZTaLAcBNy/VXtpMBD8w9iH0Q2QEyJA/H28dRBbK6o1CjL85Z3XBPsdSV/ak5NyjlMFmtEgbGIrWb3lv7Wk8AL8FuOhmB123HwvwsVpcXBdg+HxuD1XyEZDQEi/kIr1+9xPHRAfZ3twXwLs7PIeB3f6pwZRVhzgY1NnUucXjd/sHKvwESo1Bj71DNWXomcWARGw8EhdO0xNg7OoLFbkMyHe9o4KM+i/ZjlCXU248VCgXY7XZEIrSBu8z6cmmLRWoG2DXAZ+2Jf5f3yVjksnG58K2f9IzHBlh9SH2AF3W5TPMTcjfOSy7zkuAIBgMSG1/L8nJ+CAaDIonj+677PWEVU1FYTHvYWF3A3PSksLr722uwmfcQ6gKr2+g4M7xDs3Xr//L4dW1xV8+TrfcFfDBZLQhHQs0TZ1zFZrJtakeCuZAY6Q6rqzyBGh1HNWfvGX5qpq3JdjPdl21TKLZmFNATwMslS+r0yOYGvE6E/W743A6Mjo5gZ3sTqbiCtZUlfPPoEcbfvcXbN6/x6OuvMDs7LSbal3aaVyknCqrJNU1onX7e/lUKI/LSL85j7talU3Rfd1IUqp0U+87+Ida2diR2OZZQkM2lJZzjtmhiFr1xwNHbgVfZ1N4mEjEZwPSrdjK69Fh0Op3w+/1XWF8CYUVp4USpuYLSf9u4NYByL/oAPSqTsSAUo4DNYLmbKGxqBI7uy3PUp3bDb7WV85AEByWF9GevL2pmoTN1vpkMraOujm+ce5JJ5ROr+/ETq+t3dabVvfWY+Z1g8li3bLsa7d99eI4rxbwgUaJhCZGoxQM3bj8lDAXvOas7eq7VbVMSylV0OjAkR8VBS01tnctCr79QunHbGvS1Vt5PDTNro/TQr5su2K773q4DXnrqadZDLoSDHlC6EFeCAniHh4awt7OFSDiAt69fYW52Gpvrq1heWsC7t2/x/v17WYphgMWVDS6nUE3vQw2zunC4fdArlYX0/X0KNTqpHcAODwS3lR2SSw96x+TB4PIDI5eXN7ZwbLVdekzZQzZ7tWKWyTNb+/vyXr0NWIhAdwWaiOtgl4PYzMwMXr16hZ2dnUvMLt/D99LFgVY1+vcYtw36VReOvdGu7bVrNh2TC+Ow32A1bwUCDxwUPuT915fq+z1OcOz3+SipO6kleWWuYAIbATHJlNrtOilmsbu5gtXFGSlKm5+elMdu+9GliNxeHi+2Vz6XuJhLa7fvod8vnuRgd7sENzC9lo4Mze1zERVipMyRFiLRDVZXAr0eS+F/pU+F/9ftKzMPmHcQjAQ7cpjqKuDlVSyvZvUkEevxIV69fInx9+/EieHF8zEEfB7YLMcYGRmG22mD12nFwe4WDg/2BLzNLy7BH7zGL/Ash2reAzXySvOPa7eYTb9yiQ8JgK4UfE12qusndup0N3f3sbKxJdYYOvDlbTqdwN6RCaub22KfwQpLm8Mhj4/MFhGk80DzvUxv2zs8ujjZi8WMeO1SmlB7pU72loB3aGgI7969E4ZXH9VYnBCJhEUCcV0HMp6//lgabdOftqFtUyoRNqQNBph9/mqnBQAAIABJREFU8Cw3l+r7zfISzBLU1kvdOE8QBPv9PsTjEWESOffkckmsLc9pscAsTJudAiUM3dbqNgOWGUjByN3PaSwmqNvY3ZPaHzK8Le37SQzV2DQQfqSxuicdaHVJCqaeA2FGAy/JCnsv655u2k8Cfn8ogM3dPYTCwQtcdNNnbnqtq4BXliiDrgvAq4R8MB3uY211Gdtb6/B7GCUYEdeGrY01uGxmrC7OwWk7RjqVgNl8DIvFDKvTqUXC5VKNd7CcEY9dhL7u3F4j9QwI/gbV5OZ5DF77kz0HDepKltY3YbJoQFan3fkaJQ21EgpKG2gaTT1KKpOA0+3C1u7+RbUhmV2X2yVFZ7XaXA5YBLXb29swm81SkUsAzH/U95INpoaLv3nTwTdea/9YG23XnbbjpMwlzGYmQeM9BhN+n/tAMt5cJXk3xxbOISxSq7cpI3nCAme/34t0KobDvU0szEwK2CWru7GyAK/TjJCvcweGdo8ZE+v67WXczbZv9rvI5PpDfqn7IX6oZ91v/B5KPilhCI8Bsceda3UlGphE4Cgq2WPclQMD97l8WhBstLa9i5b8hm9Yte0q4GWhGuUMemZ0NOwRxjce8SMW9kEJeBANeRGL+OFxWLC9tgKH9ej8AJdQqXz68/g8WN/ZFZlAQ1qfBW2pbSA01HlQRfYVEPkGamwalZPWKg8JKqkpoUWG3jFpHXZssYp+1+v3IZdL3xhGwQ7P4Ape3aXPdVUUY+8fHmJjZ1/CJQTN1v1Hp4ZaIKzbjxHs6kBb3ybjtjsAzWjH7rdjJqVACbkN0GswvQ+6D3BuZLFmP8cQzgOs42CNR+1cwamEEfMOuxVrK1pRGoHu8sI0djaX74TVrQfGlDZoiXUPk7ihdJOFaaz3YYF7K24DYq96EhEGFqFHkjDbtosVV7y5Wk4XB2VYmOJqMXBnYJeYiv3W6XFLwX83U2G7CnipP+USpVawpjG9OvjVjeZDXjsshztYmJ6CzXxw49UMUT2veChUpmTgCogTiYMbamwciI8C1Jy0a7vBK5v4MNToW1RzVlROL7Ox1w1SBKtHZrMwutFYBNTg8L3cVppEsyOT7WUKSKPv4MFVohGh7MVL7qwIOjLQ2WF1axfJlOarWyqXcXJSutDw1mFfKVjLZNKIxxkscTk/utHvGs91H7gZbdpem9ZKoeonPeOxwere9z5Apwb+cS4kKdRvaYMQKl63MLqcN6TGo1iEy2HD8sIMZj9OiOXY5uoCPI7jO2V16491NOg+d21ob2wZ1DGZq7uxeFTIMBJizVuXnmt1GSJB3BN9quGeVmxaL713XGOF6WAVGRNnh8rp3eEHyj3jyZjgQhKJ3T5+XQW83DiCXhajaPKGT2wvT3YGThzvb2H+4wTsFp3Zvb0js3NQx0FAeLVj0IIjeh5U8QwQF4c2qxJ5lcNYY+U5qqmN84K2268uCWZZnLZ7eASzzSZODFrgRBESFBFXcJ0zA3U7B6ZjuL2eC6Dq8riwsrENJRaTwYnyBafHh2BYuXKVzgGMy1NcsorFFElg6XYnMb7v9j5qtFFnbZTLaAVshjevAXDrQc99fVwLdMnuUrrDft5vwMuxKZmMweWi/24ekXBI7EGX5mewMPtRdLvU6vqc5oFk2FkXRFzxUMZYzvn06T+22UDP5Kb3ixLFYhjV5CqgjGlYpaM6JrpWPQcDvqrxOVRZy0SJxA2SgF69RoKQ1q12p1NS067ivM7mF327uw549S+mrQjzsXmFRrBLPdDR3iZWFmZFs9uKToWNEY0pAiYd1LRmGLxQC0TPfecYVBF93ZnEgQwxgypio1ATc6gW/deaK5N5rqXbUzxgLqcAWIvdjkzm9isUxuJR9kCROveJfnuLaxsIhiMCdk/PzuD1B3FotiFzHhd5dla5YHoJdqnfJdhlcdwVFvwOOq/eB4zb7pykn0M7su/TdJ5jxX0FOMZ2G2CdfeAy0HUhFvFK32Z07uV5q3/jA+cFj8eJw/1drCzNYWH2A5bmKV9YgctuQsBjGyhmt/ZcorSBFwp31XbdGn8J4kja0W2ABBnxQ9PffZrWMgniHwSbgGln7a5mk+HVcwmirzVWt9zCtnQZU3BF2h/0y0q4x+8VLNR0u7S4LT0DvNxgWpRlkhFQy2sx7cJuPUIk5PsULNHCxsqESAG+1yMuBuw4lxuliMppBtWCG6p0imEg96rzoArlLaoUb9fR/NyeQCggFZXBcODCKoMeukosIuCcUgfKGi5v5+VBjsC/VM7Lycz3Lq9vwuHyCGtLMBuORLF9cIRoLIGqqsqf3ekRqQPZXXoqEuymUgykeDhXwTe1mfHa5T70UNpDLmzDXgEMtROecd8AkvehDwjQDWjSBV64kdUlO1nM1xM0/T1/Oce4nRbsbK5q8oWZKayvLMBq2oPPZQUBZdjvRNBrH1jQS+KMVmX3daxjjQ/ZS4Jd4oOW5upyAmpyBaryHEiOAUw8uyRLmGj+sRB6L7Tk2cSCljx72qIjRAu47bbjxYsAanWPLBaElZBgods+08nrPQW83DAu35wUMyJzoMVWp1dpNB+OKGEcWsyIRMMNToCiFJ7RTgPhxxpl327noK43NQZEhqEmli+li1BwTr0Jr0x2Dw6F1SXo5P7xj8xvLBG95Kd704HiCUC979Gx5SIdJ5vNY+fABH+Q+6klqHkDQewdmVE8KYlTAx0ZGErR0gnUxQ570z4Zr/V3YnsI7a0lsLkM0GsUsN0fpt/vAGtUNJB7DnTDXgFoJYlzr12N7O+YwAAKEk1L8x8v7MbWlubgth8L0NWKzLkK60bI6wBrbAby4sLvFJnkfZvniAW4zfTcJ26hN3/TGEhqlFySbobYCDRWt025JjEQ5Q+JEajKGKrpnR4FbzXfv0kOcmWbxCHbpaE5QRNYpVotQ/s7RbV6hmqVt9pz9XNizwFv/Q9247EOKClq5rLA1QAHCruTqGZNUENPOw+qYDEcgyqUcVRPNLsvXaPLzsyrN16lzC2viTaHVy3cRv2vmX3mfrCSNpPNilyBDgz7R2a4vFp1LQsNIkpMAHAmywK+U9A83Gq3gbKIZn7DeE/zJ6PRVnfTVmSjuASsF7kO5ORrgNHBBEV3cFyYFPgJ6LpAKy1etHF1s2lg08Sk3up4xHnJ73Vgc20Bi7MfBOzy1m7eh4daXSmi04CuDnp5zg0yy8u2puzpLtu1lePAlVuX1yOkGAsHWwJ0XK1OrAHBb84lmh0AXYJdrnYrj6HGJlERB4a7K0xjG4bCIXBlnKCX9mOttKv+3mqVRfynEla2urqC9+/f4eXLF3j37i1WVpYlTfDsrCTgV//MvQS8+sbzNpNLSagDAacGQmsnak3bq0YIWB915lHHpYD4ECrBYXhsqxIwUQs0OcCQwd4/MmF2cVVMkmu387b7ZGnT6dRFuMSR2QaTxX7xmG4NW3uHiMaZQHOGVCqFY7MZs0urF8EVt/2G8Xpt3zDuD2J/4GTGpUtOwkYBmyFlGNQLnlqQy/sMSiAYu4uCtPrzmJpIj9t2AXTnpiewsjAjDgxsT3rrBr1kpTU2Wge8wvL6HAJ6B7fd3chnB1/aQHvR7f0DkTC0FCJxlke14IcaeSdWqci+bl6ucN1KdmIUCH6JamIdlTvS6hYKWQTCARwcHwsxyJCulgr26i4KyeCm00lMTIzjq6++wm9+8xt8+eWXF398zOcJflOphLC+PE/uPeDlTrBDMaGMkgAWjl25AiwlpAqRXrtSkNau2JufSz3DaeAJfNYZrG6sw2SxCsPMKxVuC4FvLKHI8sWV7ag7aPpAlc0mEY0qosfVo4PJ5lLDy8e5vCZtoFMDmV06MjhdDgG7tDTj7/B3eRXZ7G/qv23cGsB30PoAC16ZTGWwvAbgHTTgpYFEndV1C6N7F1Zjjc5Zjv0xJYjl+WmJBZ77OIGluY+wHu0i6LVdYuUpXaBrUi3YlYvMgGugWV5eBLMYfhAuLBodA7KVHp9X5mY6SzV6T+PnWIOURjW9D5XZAvGhzorSmLQmK9NPoIZfaqzuNfij8fY0nheFkS0XtMTYYlZIRpoIsKaK2mQCfcpO+UfJJ/9Yd8VMhQMT5Zl+MGOgld+8+t4SwuEQRkdHLgCuDnYJdOvB7zfffINAgCvl5YcBeNkglBGwYQl6qe29wvZKzvShJvymLpf63OuuiK55Xi1OoJydgJp9BVUZQs4/heOjdWzt7konpyyhVcBJjVU0GkEmk7lgc2s9dsvlU1gdLhxbHeLDy0hI5qMvrW1KWAV/j2CXOhjanGSyqQ47U+OOfrXTGe8z2qRXfaAo3psibfA7L03UgwaAjO35PED5JY1uyC0XZOlE5EYf+X6ND5wDspk4QkHPBatL+cL6yrxIGBrpcsnyEvA2YnkHvYCN2yzShjaXwnt1XIg56CJ1cGyWMKqmf4cF8QUfqol5kU5KAES7pByxS+G9Fg0cGRa71kq5fUb8TMwH8iIdpT8ucxGIM3YODmVfSTaKnZiL6bjHkiewsrmFrb19uDxusWNlu1zBY22Cb8oYmDXw6tWrC7D76NEjDA8P4+3bt5ibm8P4+DhGR0fx+PHji/eMjIxAUcIPB/Cyc/HEZ6EYI3qp76WG5lKnOyugmj8XgcdHzl0cms+cLmcmYLNMIRqaRDn1FogNQY2+QdS3ga2dbSlcY/jEpd+84cByezOZBOJxGi2XL6zGagFvPs8rxgBy+YJIGcKRCDa2d8X+TAe7ZHn3jkwIK1oRH3WQvLJqdjuM9/UKuBnf227fkkk8HdMqyO9Am2kA2c8DyN50nOvtxZgGSC9dMrrU6Lbbt7v5OZIdUSWA1cVZzE9PCLNLhte0v3VrWprO8jYCvfLaoBawnTPTxcLdWWnVHkOGTbHoivMuPXY5dtW+fuN9IeKOoCqvBE8g36EDA1Nj46NQo+9QzVrOA7Tam4eoOSaGIqaiu8Tu4SFsDoek395kqcb9LxZ7c34QOFOv++jR1yBzS3C7vr4On88n9qwkBPkXiUSwv7+PqakpAb5fffUbzMxMPyzAq3csapg0aUFUQCDpdf21Cg2siwGoiQWo0WdanF6TV1NnuQl4XJPY25+CwzaJZPg9zujXq4yhnNiEz2sVIHrxWzeAXb6H7C5jgClRoHyh0T9KGvjH15OpFLb3NF0Q949OEUyj49UWr6bYGdjZuGxAtrulE++WbW12n4z3tTe4GO12td3o7kKAYUgbDPB5EzDt9muNgG4i6gcjsDXXhat9td/nL8f2ZDwCj8uK1aVZKUpbmJnCzsYyLJQweG53WyDDyyK1RgVsA8/y6tKGelKrj/MY5+BEKiYF61xhvYQzbtsOBjwUA6gmVyT4Aen2Vp0vVqnJ6qafQ42OoRqfPy9Ma68YjH2LAJ4r5QS2LMpvyV3itn1v+3VKGYIX7O7z58+hKIrAJuKjWCyGXa62ezwi/eQLfO7FixfC9JL1fRAa3kaDDcEg9STU2PLqhKEMF+/jFRhdHDKHUKOvgOTIrd52p7kJUNJQLUwgE5uA0z6Jw4MpuOyTyEdeoaqMQI1N4zTnaiqthFdP3KZkUitCawR2a58jA+zyeHB4fHxhWM3lBC4jcP/0JDfqaJj4RgsUDfC2cLXZdke8+wng4tga+/Cpn9/ztmD/Jcggsxb2G6Cv28DO+L7LfeoK0D1PR2Ny6MlJ55aa3RqjyCQqET+2N5YlEphFaYtzH2Da27yV1a0/5hqT21jacAGIB3SFhcw0xwdtnuvvHERyicTSkdki5BJBYdPH9zSHavpAVocRZ15Ah4Vp/LysNr/XMgPKDLxqb94nLuFKMX1xqUUepJViFqqZzSY8ffpUACylDEdHRwKTGL61tbWFhYUFmM1mqYfiC1arVZhganzJCD9YwKt3PlqWMf3MZLEIFc/BQn+NMXpVZlJHJ4HoE4DLAQ30u6XMBHZ2PyDsn0S1OC7Al2xvIjIJu3UK2ztT8DneQY3T4+6lAOnKWQ2r3AB4sMCsvlCtFuDW3ufVCzW+oXBQpBo8wfl3bLVJsZ52shWRTMVFVsETkeL5uxgILtq2wT4br/V3UH4I7U1GLRkNgJZE9ZO18fgyYDPao732EKBb76Mb8Ym92CABXY7n6VQUFtMeNlYXMDc9CbK6jAW2He8hdM7q6sC9mf6gOTY0ZnkJKAl6+Z5mvusu3qOEPGCRaz/HOroLWB12mO02SYDlXN7U71+sLi8CXF1mrG8btUQXGIW+uqkxqLRMlRAJRgO3x+py+y9CIMxm+IL+SymyTe1fj+d8At6dnS1xX9CL1Ahy+Y/4aHZ2VuQNtGvVcwsODg4udLx0bXjwgJcHSsBlXJGrFup7eWAvDiA7yEkYanIdamQIsrRQJ3Go5CcQ8k1if38K+wdTSEU/JZsQDEcCk/C6J1HNny8rKM8k7/o6sbgMXOk4GBpBi7Gb/lHOQE0K35urMa32BfwiZdC1NCxWY7IbpQ3aCVhEIhH7tJ897owX7Wn8jtHmXe4DjGRlYtVdTKjGb7YHIu9Fu90SGDFIhAG3JZlUsL+zgc21JWysLWF7YwV28yHCATeiIa84LkRDPsQifkTDfsTCPkSDHoR9TigBFtrxudrntWOrg95GWl5d2jCIx5PAnpZwyVgQZx0AvVbnLsoXvH6v2Go13UdIrmXNUJXXorFF7k1Dcu0CzDYg3i69xs/HnmgEW86OSpnF6u2xutx/4ghKI21Oh5BqlGu02i69fj8B7+bm5iUXBh3wEkcxx2BlZUVAbzqdFlhVC3jp3vBZAF4eCHZMHlQpZiudx/leTMy0BMlqWdWRMS2oou7Ki3KGQmoCbscUNrY+wG6bwklaA7587Syvg2DagbwBosNQoxOoFLxXrrq4bBCNhpHNZq/V7uogmFcqqVQS6Tq7tXwhfbHcQGkDZQ0EvPoSBPf1Ept9sa8Gy9jrE9P4/m73sSJS8ZBMboM48RrbdP9A8aAGRjQaO06KWexurWJteQ4bq0tYXlrA/OyM3K6vLmNzbQVHB3tIxSNw2I4xO/MRExPvwdf8Hsc52A3Aaj7C5voKDvd2EA35L62aaIETjW3KhOUdsAI2Hezqfsi5dG/DlzjfkvXU8UPzYQlMfo2Aya9qZKRzVpd2Y5nnQOQx1PgcKsUgKq0UydXhANqMkQAkwI3GFbD+qVEfHITnCHj39nZAKUM9w0vJZyAQgMlkEqcGXdtbC3i//vrrzwfw1h4wgkFaa3j83st2GbxKLHihKu8kleQs/QYO+xQycU2/yyssgttcYkLY3tX1D1CCk6LrvXT1JdYg70B9jhp5hiqvwGquQNm5wuHwRYSwDm7rb8nu5vN5KErkWpNmnnhMc9nY2RPNMq/yCO4pa2A2de1+G/e7DcSM7+tXn+JAHA2TxTKkDQbAbh9g6wBJvx2kwIhG5xLH8u31pYuiNDK7szPTePXyBV6/eil//+PXv8LayhICPg/Gno1iYvw9drY2sLG2ApfDIuwvmd+piXGMDA/h2egI/B7nOft7meW9uYCt/XbvVp+tB7o8jky366UvbyyuYHVzW9jP5oEu54aihiciLwVPdMzqkoSLD0ENj6CateI22WSj/lT7HP1zmV8QCAcl8az2tcG8X4LDYbvkv6szvCz8pyXZy5cvcXh4KK5XxFO1gJfa38+G4a0/gCxoo80GWVFWV14sTfBq6SSqXZGFh+C3v8HHuQ8wm6dwmh1Htagxubwl2N3d/YBMfLLx8oQEVYxBDT9BNbV9bhFSRDweQSIRv9CZ1ANd/bHO7qZS10sTuO288uRJqYNd7ms2l8ba9q5ojbrlgVffhsZjA/D2sw8kDZbXkHW0WUClLdfXB0YoPQVK3Tg3SI4sL0wL4N1cXZSEtLgSRDwaBG8P9nYExHrdLmxurOPF8zF4nHaEAh5Egl6RNVDK4HHa8OTxN9jb3cbIyJCwvJQ3EODqYFS3IrsaRuEeCC1vPdjlxUoiGuiZRVyxmBUyiUv9JI+aX+ZnUXwc1dSWzP1IjmreuLfJFK57nTiCq8bU6l6zatxKXyMe4P5s7R/I/jWtQa5jh1v5ze68t3SerjZx4boQDFLOciZ/BL2UNVDOoD9HYpHuDGSE6dbw2QJeHgB2YJfXDcbcBULBS769Z6dZVFJ7UMNjKIbHYD4ax9r6B/jckyimNbcG3bWBt1cY3trOy2K4yDdQYx9RKfgRDgdEl6sD2+tui0VKHyIoNOk3yI5ce1LysdlmE1BPf8Da17rTAQ3AZ7Rj//oAdXqc4AyW9+6ZNh0kDfrtIAdGNDN2kIg52tvE+vJcjQMDtatuBH0ujL9/hw+TE0hEI3jz+hXevX0jDO/b16+wurIk74krAezubOI5wbDLjrdvXovsIRLwXJI16FreRixvxO+C5tt7BwVsfkot9IsVLQ6ZSYyFQuoTUdVlMEaZoNlmlShcyhiaOVbC6LJYvehHNToOhL/Skl1rsUCr98nqJp9BZV1QaqsjX132JdqLseCOAV20NL0g+rrcfs21V+tzB2UNx8dHGBp6CoZJLC0t3fpHwEsZxPb25ucNePWDQmPl3aMjMMCBz3HZgoypogRRSlkk11qNDiMeeIPDg0kcHk5JEVspewvQre3cNJSODaESeYdkzIezs9PrcK48TzkDKw/jwtw21zEo1eBVqb5fvKVe2O3zSgenZZkBeptry9o2NO4PTpvR8J/MjmFTZoDea8G234lLbOAABka0MqawFiOufCra1PbNIyzt87ExHB8dIBENi1RhdHQY+7vbot999fIlTId7iAR9mBh/h8X5OXhddiwvLpwzwbZLsga2pw56GxWwhXxOAb3Xtnub7Pu130crwvPCNB3wUr6QiofBQlYBmF0GarT3pOsRAS/xAEMlmjpWsjKsoJreERkjEsOdOzDQbiw6AjU6fi6LbNINokGb6JHAbp8HVqfjwtq0qX1r8H1397kSTk7yWF5evqTl1TW9jW5ZrMbQiUIhawBe/cBRGkALM4JGGi473W6x+LLarYhHnKgklgBlFGfxMfjd4zg2TSGpXCNlqAW6F/cnUc4uwLT1HEvzk1hcXMHS8jo2t3YRDitXitdOT0/FmSGTofShM8BBkKtEw6LrbfoE7vA3O91m4/OdHfOH3H5MuhKbsprl2GsnzW5Pwsb3XSyBD1qbEwjWA91BC4xo97ykhl1vb/Z9n9uOyYn3wuYGvS6RN1DOQP0uHRrcDivev3uL7c11OGwWDA8/xYepCczNTl9oefd2tkTfyzbTv5u3txWwSVhFr8+DOqBLRpugP5+jb333HQTIdJLxJBgk0KWPf3PH6rzgPe+GGp8GlCEtzOpi3m+BFNM/Q3IsoQVaVZNrqJRqMgTamJcp36QvP1PTiG/uP+lVQjabxurqKoaHhy4K2BqBXTLBCwvzyGToYlEyAG9tp2an5/IFfXsdLqcARLPVJuEODqcN2dC6RACqsRGJFmYYxY1SBr0D87Y0j431d/jz//xf8b0/+CN893t/hN///n/CH/5ff4avvh6CosQuMb40UlaUUNeqJrlvZAp49UpAz/28b8sZtcfKuN/sgPzw3kffTbK8RgKbwfISoF0BugMaGNHJmMWxOpUIy8qGEvRgf2dLCtR2tzfAxwklgOkPU3j18jncTpswu5Q3ULO7sb4q0ge6NvD+2soi3r99g9npjwj53YgE3JcAL1leyhfCfk0+UKvpJeOqAeIeSRtoFUewG/gkYeC5zoCJYo8kDGT+vAGfePV7/L6LEKfbj1cRlVJU6nPU6GuRHnQeDfwSiDHEakqLBr7Fz/+mbSSJF4oEYbJaEAhS69z9C4Wbfr+3r5HpzUkR2/w8i9Ve4PHjb8SjlwETTGGbnZ2B1coQCrL0JbmA+aw1vI0OCAcWMr2M5mWqGU8EAkSGPGzv7cHr2EAp/AGIDZ8HVYw3B3rLm/jnf/57/N53/hDf/86P8I8/+AH+4vtf4Nvf/hH+6I//Mw4OTBeAl0ETiUQCiQQL0boLWChQ9wV8msRBrmTb9+7r9rYZ39fdY/1Q21PO0XRUdIz17FQtU2Xcf9iAWIDuPQiM6NZ5eFrOI52IIOBxCFidmpwQiQLlB1zqt1uPRcM7OTGOiffvMD83C4fVIozu5voa6NSgBL3i27u1sSYg2GW3yHlUf65oet3bEti6DHqp1a0BugTa3K9Cj1hdHpdkOi6Wnqx1iSeiOGt2vqWEoeCXdFVER4H0C4BBELUkVyv3RavL4KoxVFMbqJwoTSW2Xte3SGgd26wC4illfFhg99M8Wa1qbG8oFIDb7YTDYYfL5USQFnIZaq81oKu3kwF4r+ng2tVRCHtHJonaE01PLAKT2Qy360g6JZQRSTppqqOXt/HXP/1r/O63f4Rff/EDBP/097H9n76H//K9L/CDH/4Y29vbAFQBvaVSCZFIqGc+utw3mmdv7x/C6/d1HVTrncu4/XRiGm3R3bagDVEmGTFY3l4vLQ/i99+jwIhun/cnxQzCAY946rrsVgGwOsMdDXpFykBPXvPRAQJeF8IBL46P9uF1ORALeTX2NOQRWzI+H/BqBXBXAC/1vF47qNutZXh5n8yvsLxd9OaV4sIasBsNuZHNxFDqYaQzVzupafUHA9fafjY8fqcZVNO7EvqAxDMIq1sXVtUS8NWjgWPU6lpQOeXye3vjJckA1iQxGtjhdoHWY3yu3e/r3udKIDjV/7r3vWwngtpP383f0J+r/x0D8N7QsSj05tUROw47Df8KRQraM6iU0xIhTJ9dycO+7equvI2/+uu/EsD7+Id/gPKffRfOP/l9YXn/4Is/xtbmAlBNQFUroL1GJBLsaSeljiedTgigt9htD0DX094AUX9CGI/vTztyiTMa9sgkXj9hG48fJrt7mQHUmM1cNi7WVIMxsff2/KF+NZuOigyB6Wm1Kxy8L+BU3Bfccl8S2ELec62u5mHN9+nPM5qXDgyNzpebCtiY3tYtaYNekKbf0m/zkkHXAAAgAElEQVS7V1pdju8kfAgKqWfl/ZY0reUk1OgUEHmiaXVvm/dvY3lTz4DwY1STK6iUYpf8+ludi9j/WXBPkEs9MjW7rX5H999P8FnGyUkBmUxatLQnJ0Wo6ukV9rX7v335XKxWTw0N722NTPE6O1LDk+Ish2oxcBFUcWMudg3g/d53foR//sEX+Mvvf4Hf+/aPIIB34x1wegD11IWk4kQ6Ge5LZ6WLA1leDgC3tYXx+uUTyGiPu20PnpPU9nGirJ34G03exnP3GwDrYEi/pa6TwK+XgQODen6z34uetw/s+3UsL4E1E9g6KWDTj6V+S1aX53Mvjynnue1z/9mWQiSYxJoxAcGn4rbU1KruTWCXEoboE6ihEVRzVkl67aS/0W7M5nQiPlBWYyWUy0W43S5MTExgaGhI/t6+fSvglxZj2j7rjGz9fKI/z1u+pt/Wvq/Rc9rrBLhnZ2VUq/TpLSMajRqAt5lOxgHG6XEjk71mqeE0AzU+D4S+Pr/qa6DrrQG83/nuD/HFF1/g+3/wBX7vOzrgfQuUZoGTeajKKKqJFVTKzfr/1XaA9u5rEo7gvfTma+YYGu9pr18MersV8knR+RmA934D2usuSBoGRvQYFA16n+f2ZdOxS6ER17Vfp8/roLaRTdmFtMHXupb3MlOvaXV5AdMrlp4aVq7ULqyui2NB88eYhWkJVOOLQOgRkB5rX6dLAEzpQ/o5EPoKavRDR7663AeCdhJWSxtbUmTf/H71fj44OyvB5XJJ4AP9ckOhICKRsCSh0XK1UjlFuXyCXC6LQiEPvp/PlUokGEvyXD6fk/fwfbzP1zTJQlnu87N8jiwyP0+AfXpKO1ZqezPy21ryWhEMqTAkDTdIGmo7TygcxN7h0fXLBLwCTO8D4RGIrodXcLVXeDWA9x9+9nvIHv9vOJj+D/jTH3//nOHVAe8EQE2PwqCKKVROQh2J12v34ab7HGiYpb1vOhZ9LwFw0wL+Jtvwpt83Xuv9APQQ25gXo2JTJtrChwn6OgUt9/Hz9z0wotfnGsdr9vt+XOhdV8BGEExAzNfDTYLeS8c16AJZXbLVvWR1WcB1cHyMI7OlRa1uWjS1qvIGiD7VtLq1c3or9wl0dbuxyAtU04cdsbqyunVemMbEWAZL9brPtfr9hUJO/HInJyclIY2MK1ldVT0T6SbTZhcWFiQO+N27dzg6OkQ2m8Xs7Cw2NzcxMzMjgJWPd3a28ebNG8zPz0tKbSDgl/v8HF/3+30IBgPyGcYN7+zsYHFxUSzL3r9/L7/j8XgMwNvKQeRJ4/F7r+9YZ3lUWbkZnQRio5qLgy5mrwG8I//jP+LU+e/gWfvf8dP/9p2rgFeuBN8DCZpOv0I1a0KlzA7de/E5TxxWd9KazbAuM0BoK+fHXb2XLC+Tl/ox+d9H8HhvtrmBj25c8QuwY+DIXfWvQf1dgh7GBvf++No16cK5RphAV6QM58EQAohvK2Djsa1z1GBqIiUMvfHVPQEdidhG/qBfSJymj+NZHpVS5LwwfRSdRwO/11wcoqPi6lA5YcBVZ3M5vXUPWUDv8/SMFW+6va4hvMi+Eozyr9YaTCswO5WENMb9Eoju7u7g1atX4rBA+QPBbSAQwPr6On75y19ibW1NADHfv7u7C8oiCIi9Xi82NjZAUO1wOOQ7aEd2TIctrwdPnz4VQwB+l8/nMwBvKwc1mYoLy0sgeOPnSjFUGVQRfaYtgVDYXgN4f/Lj72N86P/Ao3/9LfzgB180Brw66KWoPfoMmgE1bco6O1Fu3O7zjqvHDx5bLSKAb+YzxnsMcHxXfYBsVz4blwK23k/+Bovc7TbmhQr/dC2nEnLjoQRG9PqcoJMBAWi3j0n999UWsNGL1+s0w+eynBeufQqrqP8cH18Guhqrm06EpdCwF+1Dv3kmpfpDAeQL6dYsuViXkzVDjZG0Orce1UmrVhhd/b35N0ByDGr0DarpPVRKDJJqbw7XWV0W27EwLT3gXvqUIJDBZcpZPp89lyJQtlBGuVzCs2fPhLkl85tMxjE+Pi5glowsgS4L+G02G+irGwqFEA6HBNCSuR0eHsbc3BxWVlbklkwvQS6BsMfjFia5WMzL+/g8pRKUVBiShmuuThqdiOxwHp8XZrvtemmDfF9RGNlq5kA6upp+C5R38Vd/rdmS/e53fojf+cPv4He/+H1xbdCK1mokDfrJIqB3HMjSjPoZ1MQMqgUPKqe9ZzsYsegL+hGN8QqcJ2h7J2mjdjSeM8Bxt/sAWaJkLGjYlPWhkKkRqGnnuStA9wEGRnS7n9d/H8dmal/pmtDOMWjlMxqr6xSrMgJe/gU8NtESf5I2fLoglONbx+ryHKWrRq8kDJy3uApLWy5ab5LlrW+zho+Z3naioJpahxp9DiRHgMLby7LE2nm5mfvU6jIaOH4+b5M5bgFv1L5X88/3w2q3I55ksebgz8fU1u7t7QkI9fm8oq+lFpepZ9TsksVlRDDfR20vge7Bwb7caoD3rCHgJcgl4CVzTLZ3b29XdMF2u/0C8JJF1gGvyWSSojVKHgzA22IH5NWVy+sGWdDaDnn1vhY5eJKyo5TchVp24q9++jMBuL/zk/+I3/rV/4Lf/of/Fb/zo+9ez/DWnlSi/3mmSRwy+x3pf65ua2MARls2nmjZbFKAfqFAoXnj9xrPG+1y132gkE8ZCWz3APA2AkKxiE+A0EkPfVfvun/26vd5sddPlpcML4FuwKNJHTRv3ss2ZY1YXWp1SyfZnpEntOIiGWVzOsStoOmwBaaZZS1QlfeScobsK624rHb+beW+zNWUI75ANUNWN4pKB164ZHMZeUz7UNqkDobdWDPzXQnRqCIMLNlbFq4R4H78+AEsWiO4HR0dldcpYyDgpTaX93XASxD7+PHjSwzv/v6+6HNfv34t37m0tIjNzQ04nc5LgJdWaExc4/dS00vQbQDeFgEcr6gZaccryWZsTTLpuOiUqmdZ/NVP/0YA72//9N/j/3zxP+G3vv6f8Tt/8lvNAV6ecAVqgcYAZRhqfAGV0/4AUOa4U9NLO5dUmksyzXR24z1GO/W3D/DcpC6QS+OtMFfGez+xcr1ui0vShfMkLXquEghpK0n97TMP5Ryljj1MTW2PL3io1yXTS4D9SctLfe55AVsDCQPPyUIhBSbF9aq96Sl/eGyWFFHxyW9mjiKrS/lhcl0SzpB8hhutRZsBvZmXQOQRqiw4L3hR6SAamG3FaODN3T3R6ubz6Xt2jpRAW9dEIgaLxQwC1YODA9hs1nMXhhysVouAUYJfpqPRo9disYBAl8VtZGXJ4sZiUaRSCWFyw+EwkskkyNzyNX4vwWwqlYTZbJbf04MnqOPl60xgow+wAXibOTHq3kNpA+OG+UcW9KaTOJWKI51OoVqt4Kc//wexISOr+9t//+/w23/xH/C73/sBfvDDP8b25jWShvqTTKo9tapRVXkrRXKVDpZKbtr22tcI8inn2Dk4lKvM2teM+8YkPSh9oFTKIsYwikDvl3h7DS4e2vfXWlExMvZzCozox/lRyCd6DnjpxqB572ohF2R7dQBMmzJKGwh+NT22G4lYEOVS71hdglsyoCSfcrlUUySUHAuC3bwLavQ9EB3WnJE60erSlSkxDDUyjCpXYBki0YEMUL/4c3nc4pFPXXI/+lD3f4Oa3ZJYhdEyjH8EwTogpYUYJQ2UOmi2ZNT3au+j/Zj+Ol/jH9+rvY+vcQW6cPGd/F4+5vP6fvDzbDt+J7XDBuCtA7N6Q912y9ztY6sVLGS77r0EibGYIslpqqri8ZNn+PZ3/1BY3t/97g9BLS+jhv/v/+e/wXo8AZxMN68Z4smZGBEjbM3ipPe6XnYkFgPsHh6Jvre2Y13XBsbzBhjudx/gsrgss/aY7XpogLRX+3NRjEYbqvDnGxjR6/Pg7LTQJ2/eqyyvHkEsfcjvkIvOXsYCsy1DkRCWN7YQjdH1oIVxloVprK8JD2tzaL2FaD3JdNtj2ohGHkGNvEGl4O8oLY37wXAMt9cDrqzqwLel/WulLT6z9xqAt80Dzo5II2u70ykSh0YdkprXeDyKYpFReipyuTy+/M0T/OTP/l/8+E//K/7kJ/8Ff/2z/w/rq+M4zS8CJ5PNA145Cc9NrMNPNBeHMnXFn65uGm1TN55jAIc34JMgDuOEbGGgbbOvdeOYfW7fQTsrMk29AnHG996+fP4J6GrBAr1O0frc+nij/T0ppvuyukFWl2wuLyzlPPOT1WWcsQcBrwPZTG98YTnfcGnf5nDIaiMLuJqfg4qoFEMS+ECAKsXgt4HZm16n+1JqDGpkCNXEWkesLvehUMxKwBWlgwS9ze+XMQc1OhcaPWcA3g5ACO3Jjszmazsnl1hot3F2dobG/06Bahwo7wHFqRbBLhnh8z9eYUaHoMY+oprvj4sDT0ZKO+jiwAI+I6TCGHQaDTB39dxJUWN5DWnD7cC02+D9omAp5BZ/5HQiIsuKd9UXPqff5bhMi75uH9P67yPYFWnDuTcvwW5cCaB0UpAIV4/HhRMpUOveuMh9Y2Ha3tGRrK42X0TNAvI0qnkn1MgYEOswROKEIRJvpMBNVV5p0cAdyAo5jzISmD7/JosFLIz/nPpsP/fVALwdAF4eKFqfMKihWKRO6fLJnc0S8PJKt9IY7/JZtYxqyQs1NakFVfBk0oFsK7esDI2PgKkwzPzuR0GbxBoGfBeg//7qjC4ft/rjaDy+f+3D5d1UPGQUsPVL1lEbLECgawRGXJkP+jWOsAAwGvb2BvSeh01IYajfISxvLOxDOhlFuVQEVBWnp6dwu92IxyNdYynpuECAyzqSQDjYvFMBtboFH9T4PBB5rMX6dqrVFbuxZ6gmFs+TUAttH2uCeMoETVaryAQpg+xXP/kcf8cAvHUgtdVOwA7qcDnF4Lr2s7xqS6f1grXqtYBXVaso5BIoRpZRVRhU8aJNS5SPwMkykJkBYm9RTW2d26G0fzLW7s9N9yNKGAcmE5xuF/KGdZkxYHV4Tt3U11p5jQVsyVigL0u89QzY5/L4kpeuERgxIOd+EcVCqvtBLLXhIEHNpSHkdyKqhFCpXF7FZESs0+lALndLSNMtYwWLwgkIw5GQMMYnzfrqUtpXTmghElGSQUNaYVorJNKl945rnyepFH2NauawIwcGrohSGsj5kvVALLxrZWwz3tseCWMA3ltOuGY6FtldVovWXp3xfjz+qWDtOsRL9pd2GplkGJXMkZxMrPaU3O1LJ1yNhOHK85NAaQ1x5QDRyBEquS0g/gpqdAqVnAP9cHFg8R6jDi12e2t55V1o/2aOkfGe9gaI+91uRRRySa2ArQ+WTZ8LyOV+XgK6QRfiig/ZdAyGj+5gnGdkDtPJSHdYXr92vGtdNqIhj9htxmMh+P0+FAqFS1Mca1aYjhUM+kT61s44wqV9p9cty/yUzpFEaup7yOoW/VATC1CZdpp6DlBve2XevGlOrXmNRW0XiaerqBQDHc2pBLlun1esPpu2UDPmyeaO/S3tZADeWxqoqROscgJmW9sc9ouDQhDMgrVSqXRpIKh/QH1vIhFHLpeW6s5q3g019gFQnrQgqv+IyskedneW8O7dayhhE9TislSgqsoLVNMMquj9UglPZEo8kmnqlmkf0vsCumaPj/G+wZiI+30cyuWcSBuMArbuaHkbhUYwBpiMonG+D9Y5xouPeMTXGej1O1ALdKnVpaUcVyUJQEnsRCJBRCKUL1xmeTn3eb1uJNtIBmPRlhAoDvuNTkiXxxOyuilUsyaosfdA4hmQ6zBEIket7jDU6FuN1e3Q+55aXdb9MCDjJoeny/s1WP3qPm+bAXi7BHipX6VdF61S2CE0h4aY6JnqQW7t43K5LEbJrDyVjkSQWIqjmt6GqgxrV5a3XZ2WZlHMmjA1+VZSScJBE9TSqiaNyL4FYi9QTSxJdGKFV79d2udG38NBkKEcSlyRtjgp9R5oN9oO4zljkNT7QD6b0BLY/IY3b7ssdCOgG4t4IaERco4bF7d6fxukW7o2kI1t57hL8eGFp64L0ZAb2UwM9XZjTOIky0sZQ+0/sryJRAI0/2+2gI11IZxDqWkNhoPiXNB0e5ZimlZXGdW0up3YjZ07MDDkqZpcQaUY7EjCwAsDr98nIJ6kUPMFd8Y43vTxbwLXGIC3iUZqtsFZQbq4tiFVlgycIHN7U8EaBwQuBTFF5ErRG70C8w6okRdA/OkNud6UMywjGjFhZGQY4+PvkEubgdIKUF4DTq3AyS6QeAtVeSdm270GvdQnUZO0bzLJlSztVpptQ+N9xgDX7T5wepqX5V2yU+1M/J/7ZxoxfAS6vMg3WN1BP1+19MFW+/AnSzktRIJFcDzmjDGuPz9ZUKYoIYRCwSsEDwvYmJbF12+TJLA/kSCh+xGdf5r2eT/NoZqjA8NLYWNB16JOCtMIdmND4uggWt0u2H2SsXa4XMLq3tYO9e1rPO7eOWYA3i4CXnZMq8MulinU76bTaRkAfMEQ8nUaJ14JV6tVyZRmOAVNpq90bKkw9UONTgLKY4DLK1d0SFOonmzDYdvBV199hbXVeZQLJuDUhJO8B1bLIdyuY1RPjoHUW6jhZ6hmrR2bY1/Z1gbtmM9n5EqdditXAH2D9zfzncZ7unfyf05tyck0GQv2xZi/VXAxqO9vBHqYjmZM2PfrHOQFX7Ms75VjHnKLVpffcdN4wfHd5/MglUqJ57zO9JLUIfNLlpc2nY2+g/2JEbq05GJ0fUsXUacZcUtA4EvxxO0I6HJuzb4Cwo+0+pcTBlq0v3LB/aBsgWC3VMo3nwJnzI0N+0mjvtPqcwbg7XLnYseW7GuvG/l8Hr5ACEcWGwrFoowBHAD0fwS8HCAyt5l0U5eUXAMiQ0Cm3sVhGqX8IZaWZvDo0SO4HPsoF90I+K149fIlfv7zn2NhYRa5jAdq2QI1Owc1MiL54Z3GHzbT2XjSu7webO3vI501KlGbaTPjPb0BFNl0VJZlBxVgDsp2XQY9mmaTbWcA3d70y36c76flvPjmhrz2a1c5GjH5PO7NAFCysbQho7SBMr3af9T2RiJhhMPBS37M/F7Olxa7Datb2+JW0HRbnGZRLXjEhhPKN9eQQTWFZ1eIorrXLpJLv0Y1tYnKafurklrEbR4Whx2rWzsC4pvery7jEeN3L5+zBuDtcgfjSRxWwnC6XAiFFewfWRBPpOT8PzurwB8IC7PLJyh3oE8vNVC3dsyzvIjmxTg7OQYU50TKgPIy0gkTXr16gdGRYdhth9jYWBa2d2joCczmPRRy3v+/vSvtauPKtj87n/L6Q5JOVl46w3NWXp7dHsKzjSdiuzuOwRgwk5glNM/zUKrSPEsgaffatygBQoDGGHBpLS0hqSjVcO+5+567z96oliII+G1IJqjisA0oL9RZ7BisEC899mYNkpxAMBJSfa37rbYd873p5zj1bU4HiJt0PZilyigxXZv3HG3ejmFEPAD5SEtXd0e7Gf2B49Lu1hr8busZwHvqvtP+ORFELiPhsqxud2zgKkosFoGiyKeyvBzrSN0jGM7lUgJAc/Ikp5Iw2WxiVbRv2htXPVnjktsFkkfWwCPRF96qxeE0bpLfoCUUGHqstvY5FtUbZWHGRHMMAnmdq3t1+g955Drg7bMhd3fui96zkUeiUZhtTngDIRDoMrPLbK9h24iDw0PxnlWs6XTq3KWeM79B0EsVh8wKDoo2FPMetOp2BP0m3L59G0+mH+P161e4d+8ulhbfISW70Wp4cVjzwWLexK1btzA19Rtcjh3UCvtA5k+oTjEe4UQzyvLNmWPtcV0ZEEVRghQXqhS6O9vVCQb93L+bsA2lszigS3oBmwp8ThpGHIEdTgoKWflUNu4m3PtP/RwYfykf11lJ6Lr35LiLe5+Te3J1+7l++XwGwWAA1aMVTS3Ty+QOa1UkKSbobVzqp4WuVuTdz76FmRLd0tKLgPIUKLwagav7Vq2Lyc0A8oxYQW02+kg89RjXtGMn2A3HImKFd6DzumCf2r711+HHSk6uUkocPq9DB7zjbkicSadSSdicLtjdXlSqNdHnc4UCdkwWZLJ5AXZJ5o/GVaJ/tVq4PMN7olO0DoqIBJ2Yn3+LSMiKtdUFfP311/j555/x6uXvcDr2UCn6gAMr2g07omELHjx4gNu3f8XDh1MCHK+vLaCQtQOkOMjP0M5olahnixLGeY24hBWKhkUxG7lNLHgY5/71fQ0fGD6Fa8fgR6kmLtt3Bv5zMp43+ftuHV1OAgh2uITd6FVPcCL+fArt5KaeI13Y3HYTYiGP6AMafYX3P5+RQBm/Uc6d/SuZjCEajZ4p2K7VaojFYkjKCVGYNpAGbSOLVt6ItvJKOIoOplPfg75AsJx6jnb6HVrUqh9BbowTCZ4LC+2oLEGH1VGuof6/4xvDWBsVCfmw9uE9Pryf1QHvuBsXO7zP7xPgNptTwS35uxa7C7GEJMAuubtxScbevgVSkrymwUBfq3UAv98rOLtPnjzBvXv38Ouv/4vFhVkkYjYc1HxoNvxo1pxIxp2Ynn6E+/fuwu8zIxF3YHr6oQDIZvOO4PWC0mVc0km9Q6scmHhBGwNENB4VEi2Uajlp2DHu+6Hvb3zB46ZcS1abc4An6LvJoLbXuXUDXVIXCHRLQm6KvMXhi3RuSvu4yedBLq/f6xB8XhXsBkUxp1qMeHFhWr/XhSucgYBP1KdoGV6+cpUzm80hFAqhUjmS4bxsItVZ1fwAKM/VGpbKiCYSWdL5XqKV3UCzJo3U5mmOQbtjAl0mc/q9Rvp2kx2XiMMS8RDcTgtWlt4JsKsD3ss62xDfU1aFRWuBUERwdQ+bTbh8ATjcvo5kS75QxOauCYEgq1pTgucjK0lU+/bRrqNaLcPj8cBgMGDTsAq/axeVnA2tuhmthgdejwmG9QXcvXsHP/98C+b9DdQrfsiSA48eTuHOndsIBZgB3gdqc6qzW3YGbeXfaOUtUJd3Jjf4EeQnFQk2l0sEDF2vd7IBQA+wx9eXqzAEeJ9SlreXjm5ajoJAh1k/XhO9jRy3kZt8LZhwKOZlYSDBrC7v/zgnOmxLuZyCQCBwxniJBWzM8qZS0uVtjoVpOerRvxQmSij3Uinqyt5eVJxGBQZlGu3UHFplL5oHzMQO1+5ZpEcOssPthj8UFBlrvQ9djf5DsMus7sbaEpYXZjtgVwe8QwDaywIhgVwwyBmsqsqQlFMiu5vLF8QMl7Nco8UOl9cvOE2UYQmGQ3B6qOQwSGVoHawGrdUqqFeLOCwFgfQsUJhHpeDGu7m3+PHHHwVn12rdQa0SQKXox/v5PwX1wWTawEHVDtQXj6XOqD+YfwnIz9BKrwijilazjlZLfV527oN+T590ai4mZUl4irOhDroPffurEWSu232gnigdo1iw0ysTelM+6wV0U8nIkWGEDnSvW7sd1/Ey1hLoMuM7rn2e3A/3H42GICWTJ5O84m/KdYZCwfPNKJjVrYTRSi0AyjO1qOwy86WLgC6L2pjVlaZVrm4tMdIqJoEtQe6+1Ya4FNNXKCeAo062pUH+JoUhHPTCsLp0CugS7C4vzumUhkEuZj/bUmKMVaqcyZbKFdhdXkiyIrK9BLu+YAgmqwOlchmKkkQkFhYGDUmF1oyqHS9njv381qltqEdYdKKt/IlWfgOppAt+rwVpxYPDuhcHVQ/2dlfxj398h9nZf6MszClWj8GuFjAYHCjcnSKvdxXNRgHVagXt9qEAvqd+c0wNncGR5x6OhoVm4SR+Q9+nDoy720ClnAULdW4q6O0lM6UbRuj9oLsfTOI9C7hKpSy8Pp+Q5zyJeknpI8eXlsRnfpuGSwUr2skXala38sfZMUobq/p55VgmP0Q7+RpNKhIJubHhsrrasQbDYZGgIldXT9Jcjf5E/KAkY9jbWuvwdQlytadhZRE+l0UHvFojHtcrtQiz2awAuKxMrdbqHfK+ks5icXVDLPMIjV5aDTqcIsOrgV1Kd23tGS9f7ukJNqsiK9tW3qGdeYt2dRNobKFdNyEctBypNDxARnGhXd8Gau8uCCZLQMWEVMKDtbVVSIkEDg8baLUaaDZ5TuNv6EoqiWXDJsKx8ET2P4lj1vc5/nbwV11Tyi4x23nTAK9WiKS90iVLN4y4vu30r+oP4/qdSCwipMYoA0VQG4/HxermSdBbKpXg83mPDYkoN1aT0EotAcnpERUYjmgO+d+BxP8frVamRh5TuBpLgw3ydrk6Oa7rpe9ntL7JSUdSimBtWS1M00CueF2YFdSGiN8pVvJ0WbIxAzdaKFJzsPtBVQbD9h6SSkp0/nwhD5PFKqRZyhVVpSGdTWFpbQP5IyMKSnixcxEMD9QpDgpoZ9aB+G9A4Q1qZSo6zOL27f9DOGjDYc2Gdm3pfLBbXwIaZhTzAaytLeOzzz7DnTt34HQ6UKmwivdgYtneYimP3X2zEO0etJhvoGs05vuu//ZoQetjXb9aNX9jqA0awFVfdcOIj9WmPsXf5RhFlQK72wWT1QbGcV4HuquRvkC3te4HubwxJjeY1aXcWPJ3QHmEkbm65T9Ua2BpRlVg6GGH3O894nmRdmd1OuHyeoX1cb//q2832TGB96ZUzGBjdfEMV5dgd315AX6XFYnIsdmKDnjHDHwSidgZoj47Ot1nJDmFVqstsr+UJNs2mpDKyII4T6UCBgpWfHL2yJuZkOIwWqzHs+BBjpVBpOgQhP9Wfguy5EQoaEOlHIHdtgspbker2gP01hfQbuyhXPDCuLeJL7/8Ek+eTOOHH37A999/j5WVFaTTdN9hlncymV7O2BhcbC6nCKK6Xu9kA8enHJjZz8rFNJKx6ytTdso4QDeMGCw5MEhM1bfteW1JX2AdBhMVHr/vlFoBY7ksSyLLS5rfyQe1ekN+Bw7TG2gzq5t7AYzE1f1TtQamzGZqAc1KbGiuLsccqi7QMIl6wd6AH/B0uEMAAAtVSURBVOSHfsqx8qqcu4jZpSwUOYbVD/Md2oKW2eVn2xsrCHhskMK+UzUaOuAdYxATHURKdNQY2LnJ2+Xz5IMdfdu4LzoRbx47EgOFw+PpKDVw+YQdjYGE21DBocyllIMBs721BNrpJSC/ClT2kJXNePrkEbY2l3FQXj7K8pLaMC8K2NqNXVRLHhj3NnDr1v+Iord4zIOA34rpxw/x7bff4vXr14iE6ZpGIDYZ0MtK4lgiJgIOr8/A5z3G+3pVOrp+HJMB/izeSSvR60Vt6DIN0HR0J2UYwRikPfV2OJl2eB2vK+M0QaHD7QGVhnpxWpnlpcsai9WOx8I20K6jlttHOz2jAtV+OLnnbUMFh8xz1Ugpbx5JV5f3gWMtC9PsLhdItet1Xtfxfl33Y2YMymaS2Ntex/LC3BmwS66uy2ZEPOQ5BXS1ImQd8I4RGGWzClIpcoWaHXzLpZxCoSCyutqHxVIJFrsD5TJJ71UB7JjdzebTYgZJntDevhlev1+8Z1ChkgOfQ8l30Yoxuwkor9HMvocS30K1YAJq79Uneb4Nk5AoqxQ9sFq28c87t3H//j34vGbh1NZsBBAKOjE1NSU0fDfWV1EpUdZlMoCXHZONm7QGUjwI/AdTsdAHpese3P6q42c7EzJl10Cbt1tHVwO6kzKM4LUpFjNC0zIRD0JKDKChOsbY+le1Bf13+oubpNvl8hkUSjnxepGFLsGiokhIJLRk0CHQLgCHPqC2BlQHkBbrBrzMCNNEQmFW9z2aZT+ah8MrT/C8qrUi6ATHehqCdb1N9NcmJn2d2I7SqQT2tg340A12F+awsbokTFUS4WMKgwZ0tVcd8I4xKJO/S4B7PIsFIpGIWM5hZar2IMeX27KB5AtZUbgWiUU7BhQenw87xv0OlSGVloUECmfSKggsi//rv4FV0WzkVIpD6i2QeQmUKd79ThS1Nao+oeaQVtzY2VnD3bv/FPbEBL71ilc4tjWqflgtu/jll1/w+PFDRINmHBadaFUjR5Wvk+sU5DH7ggGRBdf4zf2f++SOSz+Gm3NtmeXNpuKgsoEWHK/SazfQ1QwjimMwjOCEOpeVUSkfD+6MM5yQB/0uWPZ3ROXz+vJ7rK8swOXY7984YIzxVe9vV6O/FYo5sTrpDwaEnORl90W0pVJOTJpKhSTQTAAHFqCurTAOCXiZ1U0/Fe5rrbwJzXpmaAoDz4FjscfvRyaXFuOsntW9Gu2N7aeQTwnDlN2ttTOZ3dWleZiNm/A6zbgI7DKe64B3jAGZ/N2THuIEuRTflmVZw7oCDBMU036YnYxEfxowcFbJGyvJErZ2TZ3CNYI9p9uNQCgoOEXchplecoouCzRnvufMtxpRKQ70Ii8tCJOKUNCB58+f4sWLZwLQTk39Jni+1ZIX7QMrWg0vIiEn7t69K2gOtC5uVFxAcenIqMI48hLSmWPtui/aEpPRahWC35dtr39/NYLV9bkPVbCAjWYM0hVyYOulozsuwwgO6Jm0BJd9H8YdA6IRladIFyyf2waLaRsri6pLEV+3DcvYWv+AteV52K17OqexK0Zdn7Y+fGzgSpvZbhfAkACxr3MmHaaSQDVpQCO7BtTXj1YXhwS6Iqv7ElCeop1eHDmry36QSCZgcTjgCfj1lcQr1K6Jd7JZGft7W1hZ7KIwLMwKZQa3TbXK7idBoQPeMd3carWAeDwmitM0dEvvcAJeypRpD4LgdDqNbFaVSeEN5ZOBg9nLjV2jAL18T+6qP6jyiLicz+3IJyL/l8tJ3IaddTBr3iqadRmcEaNoRFr24vnzZ/jiiy8EVYE0BofdiGrJj/aBDTh0IZMO4NWr3/Hdd/+Nne11VEthdTmqYQHK60BmDm0aVTRUtYm+guAQ1510DvJ6jRYLYokeGo5D7HNSx6rvd/hB9WNdO/avfDZ5JRzYegHdcRlG8DwLhTRs5l1R3CG4cAuz2Fz/gP29TQF+NaBLsfadjRU4rUYE3Db4XRbBkTOsvIfZtK2D3k8k5nD8YZLF5nSKhEPfYw4VEiphtJVZtFMvgNIb1dmzm5rQ7/vKGyDzBG15Bq3CPpr19EhZXapJuLwe4fiZziinCu4+VhzSf1cdO+q1EuyWPexsrp7J6jI+2cw7CHisl2Z1TwJhHfCOKWDl82kkkywwUytRSWsgST8YDJ4S3qY8mSSR+nB2dkwObzgWESCWgxINKJjtzRyBY2Z7N3aMCEXDAvxym0g8Kmamgy2/VNE6rKBckLG+viIK0ebmZvH+/ZzI8P7rX68QDjlwUAugXAxhc9Mg1Brm5t4in42iVpGQiHvh9VgQizhRK3qBwqpqelEJjsShuqyzk/PMIBVlNr1vK+brB74uuw7695O5p/V6EWk58lGpDWcMI5JhlMsZkHrAPj/svef/kqZAULspbDfVjMnK0jz2ttdE9vZkIQhlfSjWHgm4xKDC5ULtGfTaRPaX+9Kr1yfTFoe9z5P4P9LqOO5wRbLvNtjIo5XbBZLPgNwMQLBae3u+HOaFoJeGSK8BWbMG9o9MpSuV8sIamLUymozaJK6dvs/B+ocWp3rRF6jEQLDrsp5fmHYS4Hb/rQPeMQHeTEY1nCDQZWbXZDJhfn4eBoMBkiR1Ctn4XeKc7CRvtBZMOIOmzAvdx7TPKdVld7s73N5yuYD17V3ICvc/WBU1DSRoS+xyubC8vIRM0o1iTpUiY5aXxWl2mwk22z4+//xzPHjwAHIyhEI+gdnZN/j737/C3/72X+JJsFzIBYDiChB/jFZ+H82DyUq48JqQBsLCgr6X1sZ0r/UANlgAu27XK5eRhANbd7Cc9PvTOroBjMswgn2FNAVmdNdOyPgwe2vcWYffbQWF2cM+BzbXPuDDwqyw5tTE2s8777DfKQYfs3FLB703MLYIuTFFEokX/q2NTX3153oObfkNkJw6UmAYFuge0R6yz4HEI7Ry22geUON3+Ikfk0PUvmcCia+6AtDVieecPHfHKU1ujK80l3DZTANldU/GLx3wjilQsQiN7ml8kLYQCoXw7NkzPH36FOvr653vWLDW01Kx6ziY1XW4XR2wG5fi2LfZOtxeVpNSo9cXCHS2ITjmk8Gpn6BE0HtwUBeVqPQuR24d9YIHwYADDx9O4aeffsI333wjnsGgG7WKDINBzQi/fDkDv8+B3Z1N/PjjD1hcXACVHFCcFU45rYxBFMqNEpguOwdeA+oWc2KgpGnnPHwQvOy39O+vTlCc9L1oNErCjIIA9GSwnNTfp4Hu+AwjxMBeysLttGB1SeXiigzJ0juxTEjAelKUnX97HPtCv/Lk5xedd8jrECDaaTPp/a8rhk+6nU5q/4yjBII0W9izWITxQt+/xaxu3oJ2/BGQfjKari6zweU3gPIYben3IxOJ4RMp4rzKedhdblEETRnRvs/rhtzbq3y+tWoBVvPuGfqCltU1720iGnSPFJN1wDuGhsyORJoCs7d8MMuby+WwsbEhnplMRnymfa4VrF3U+LhPPrkN+bqULSN/lZ8R6Ll9XuyYzOI9P6MG4r7VDiVFI4v+wQlBr3hyxlwJoZ3bxGHRCjnhwh9/vMZXX32FmZkZSPEgCHppQPHNN1/j/v372N1ZQzrlB8Ev1RtKhRDQMKJdWQXSL9FOvUOrHBh56emi8+GgLimSoHXw+vTNLRvgGl30+/p3/be163StVC5vcKTgehFQ5HeTNIygrWs46OlkdElVYHaEfLiQz3EK6F52nJd973dbYNoxiErq63SP9WM923dZJ5FIxsV4QxWGvuPpYUlYA7czH4DkQ6DwckjqwlFGt/KnSoOQptFOL49cH8LziMZjQtueSSHdxfPsvf9Y/YFZXWrr2ix7Z8Au49bG2hJs+zvnauteFp9Ofv8f5WT4V55a2+MAAAAASUVORK5CYII=;" vertex="1" parent="8wifd4MYzMfJhmpSew9y-36">
          <mxGeometry x="77.5" y="119" width="403.55" height="260" as="geometry" />
        </mxCell>
        <mxCell id="8wifd4MYzMfJhmpSew9y-37" value="" style="swimlane;startSize=20;shadow=1;fontFamily=Comic Sans MS;fontSize=12;strokeColor=#66FFFF;fillColor=#CCFFFF;align=center;verticalAlign=top;" vertex="1" parent="8wifd4MYzMfJhmpSew9y-34">
          <mxGeometry x="655" y="20" width="207" height="482.14" as="geometry" />
        </mxCell>
        <mxCell id="8wifd4MYzMfJhmpSew9y-38" value="Телефонная книжка" style="text;html=1;align=center;verticalAlign=middle;resizable=0;points=[];autosize=1;strokeColor=none;fillColor=none;fontSize=12;fontFamily=Comic Sans MS;fontStyle=1" vertex="1" parent="8wifd4MYzMfJhmpSew9y-37">
          <mxGeometry x="11" y="160" width="130" height="20" as="geometry" />
        </mxCell>
      </root>
    </mxGraphModel>
  </diagram>
</mxfile>
